<svg width="18" height="18" viewBox="0 0 18 18" fill="none" xmlns="http://www.w3.org/2000/svg">
<path d="M14.0233 17.2L11.7209 14.6405L12.6921 13.6508L14.0233 15.0073L17.0288 11.9444L18 13.1474L14.0233 17.2ZM7.53488 11.0913H9.2093V12.7976H7.53488V11.0913ZM7.53488 4.26587H9.2093V9.38492H7.53488V4.26587ZM8.37209 0C12.9767 0 16.7442 3.83929 16.7442 8.53175L16.6772 9.64941C16.1665 9.47877 15.6307 9.38492 15.0195 9.38492L15.0698 8.53175C15.0698 4.76071 12.0726 1.70635 8.37209 1.70635C4.67163 1.70635 1.67442 4.76071 1.67442 8.53175C1.67442 12.3028 4.67163 15.3571 8.37209 15.3571C8.96651 15.3571 9.53581 15.2804 10.0884 15.1353C10.1553 15.7155 10.3228 16.2615 10.5656 16.7649C9.86233 16.9611 9.12558 17.0635 8.37209 17.0635C3.74233 17.0635 0 13.2242 0 8.53175C0 3.83929 3.74233 0 8.37209 0Z" fill="#2D9CED"/>
</svg>
