<svg width="326" height="325" viewBox="0 0 326 325" fill="none" xmlns="http://www.w3.org/2000/svg">
<path d="M48.2139 303.002C111.61 331.859 214.384 331.859 277.78 303.002C341.175 274.146 341.168 227.302 277.78 198.43C214.391 169.559 111.61 169.573 48.2139 198.43C-15.182 227.287 -15.182 274.146 48.2139 303.002Z" fill="#F5F5F5"/>
<path d="M272.696 263.705C293.582 263.705 310.513 255.636 310.513 245.681C310.513 235.726 293.582 227.657 272.696 227.657C251.811 227.657 234.879 235.726 234.879 245.681C234.879 255.636 251.811 263.705 272.696 263.705Z" fill="#E0E0E0"/>
<path d="M51.0699 273.11C71.9557 273.11 88.8869 265.04 88.8869 255.085C88.8869 245.131 71.9557 237.061 51.0699 237.061C30.1842 237.061 13.2529 245.131 13.2529 255.085C13.2529 265.04 30.1842 273.11 51.0699 273.11Z" fill="#E0E0E0"/>
<path d="M28.5987 251.267H35.5317V239.399H28.5987V251.267Z" fill="#B16668"/>
<path d="M56.9448 242.285L63.8778 242.522L64.2256 229.965L56.9448 229.729V242.285Z" fill="#B16668"/>
<path d="M30.6705 155.241C30.6705 161.856 31.0182 200.213 31.0182 200.213C30.8554 202.115 29.0278 205.504 28.8799 212.363C28.6727 222.307 28.3027 245.341 28.3027 245.341C29.5002 245.927 30.8117 246.245 32.145 246.27C33.4782 246.296 34.8009 246.029 36.02 245.489C36.02 245.489 43.3674 212.733 44.6104 202.907C45.6907 194.309 47.5701 170.964 47.5701 170.964L52.8679 200.013C52.0541 203.626 51.7527 207.335 51.9726 211.031C52.2981 215.581 56.5156 238.408 56.5156 238.408C57.7238 239.09 59.067 239.498 60.4503 239.604C61.8337 239.71 63.2234 239.512 64.5215 239.022C64.5215 239.022 64.9359 203.21 65.0099 199.066C65.106 194.301 63.0269 153.318 63.0269 153.318L30.6705 155.241Z" fill="#37474F"/>
<path d="M35.5317 247.849V246.857C35.9016 246.857 36.131 247.22 36.2716 248.108C36.37 248.768 36.5034 249.423 36.6711 250.069C36.9816 251.283 37.3873 252.47 37.8846 253.62C38.8613 256.032 39.6826 256.935 41.9319 259.754C42.6989 260.536 43.4179 261.364 44.0851 262.233C44.4994 262.973 44.6474 265.052 43.9371 265.526C41.3178 267.272 37.3445 267.324 34.5328 266.495C33.4851 266.204 32.5434 265.617 31.8204 264.805C31.0974 263.992 30.6237 262.989 30.4559 261.915C30.3523 261.271 30.3893 260.62 30.3153 259.976C30.072 258.514 29.4779 257.133 28.5839 255.951C28.0592 255.263 27.6125 254.518 27.252 253.731C26.6675 252.303 27.1336 250.705 27.5036 249.292C27.8292 248.064 28.1769 246.717 28.5913 246.835V247.575C29.5804 248.35 30.8051 248.763 32.0615 248.744C33.0825 248.826 35.5391 248.618 35.5317 247.849Z" fill="#263238"/>
<path d="M63.9518 240.383C64.307 240.383 64.603 240.909 65.4317 241.767C66.6179 242.972 67.9955 243.972 69.5086 244.726C72.1057 246.029 77.1519 248.026 79.4308 249.055C80.8589 249.699 80.7923 251.423 79.3199 252.399C77.8474 253.376 74.281 254.086 70.0117 253.139C67.681 252.621 64.6474 250.468 62.731 250.587C60.8146 250.705 57.2186 250.675 55.8054 249.699C54.3922 248.722 54.9545 246.635 55.354 244.845C55.7906 242.884 56.3381 239.836 56.9819 239.969V240.642C57.818 241.907 62.1169 242.418 63.9518 241.493V240.383Z" fill="#263238"/>
<path d="M47.5331 170.964C51.1042 169.842 54.387 167.953 57.152 165.43C57.152 165.43 55.2874 168.915 49.7528 172.163L52.4313 198.001L47.5331 170.964Z" fill="#263238"/>
<path d="M58.5504 139.407C54.0221 124.328 54.9174 111.557 54.0665 107.65L65.6758 123.862C66.1671 129.205 66.9601 134.516 68.0509 139.77C69.3901 145.534 71.2177 152.718 73.4079 157.187C73.8053 157.975 74.4761 158.59 75.2947 158.919C77.5144 159.814 78.5059 160.946 80.2595 162.241C81.6357 163.262 82.679 163.395 82.5976 163.809C82.4456 164.276 82.1238 164.668 81.6961 164.908C81.2684 165.147 80.7662 165.218 80.2891 165.104C79.2303 164.882 78.202 164.535 77.2258 164.068C78.2103 165.739 79.4598 167.238 80.9254 168.508C84.2846 171.431 84.7656 173.495 79.1866 174.509C75.6868 175.152 72.5274 173.473 68.5392 166.207C67.0286 163.563 65.7106 160.813 64.5955 157.979C61.9318 150.58 59.9192 143.972 58.5504 139.407Z" fill="#B16668"/>
<path d="M53.1268 103.899C56.7302 104.535 60.2966 105.379 62.5089 108.841C64.7213 112.304 67.9177 128.649 67.9177 128.649C67.9177 128.649 63.2711 131.912 57.9437 131.771L53.1268 103.899Z" fill="#EA3E3E"/>
<path opacity="0.1" d="M53.1268 103.899C56.7302 104.535 60.2966 105.379 62.5089 108.841C64.7213 112.304 67.9177 128.649 67.9177 128.649C67.9177 128.649 63.2711 131.912 57.9437 131.771L53.1268 103.899Z" fill="black"/>
<path d="M28.2954 109.973C25.8759 111.697 13.1124 140.524 12.624 142.53C11.9655 145.26 12.2689 148.316 13.6081 149.307C14.9474 150.299 17.8996 148.878 19.446 147.369C22.4057 144.409 32.7645 122.848 32.7645 122.848L28.2954 109.973Z" fill="#9A4A4D"/>
<path d="M40.9849 103.965C35.0656 105.386 27.6664 107.761 25.0249 113.177C22.3835 118.593 18.3657 127.391 18.3657 127.391C21.1035 130.062 24.443 132.036 28.103 133.147L31.0626 127.968L30.6261 155.345C35.3985 158.822 52.9271 160.717 62.9751 153.377C62.9751 153.377 61.7469 120.554 61.7469 115.441C61.7469 110.328 58.9056 104.195 51.0699 103.736L40.9849 103.965Z" fill="#EA3E3E"/>
<path opacity="0.1" d="M31.1071 127.901C31.1071 127.901 34.0667 122.789 34.6957 121.553L30.9961 134.132L31.1071 127.901Z" fill="black"/>
<path d="M52.202 90.6765C57.4612 90.6765 61.7247 86.413 61.7247 81.1538C61.7247 75.8946 57.4612 71.6311 52.202 71.6311C46.9428 71.6311 42.6793 75.8946 42.6793 81.1538C42.6793 86.413 46.9428 90.6765 52.202 90.6765Z" fill="#263238"/>
<path d="M35.7314 87.924C35.7314 87.924 37.2779 95.1751 37.8994 96.3664C38.31 97.1018 38.9885 97.6504 39.7936 97.898L39.69 92.8L35.7314 87.924Z" fill="#263238"/>
<path d="M37.6701 77.5356C37.1299 77.474 36.5829 77.5358 36.0702 77.7166C35.5575 77.8973 35.0925 78.1922 34.7104 78.5789C33.4452 79.8737 34.1555 83.9433 35.7315 87.924L38.6394 88.2569L37.6701 77.5356Z" fill="#263238"/>
<path d="M39.5125 88.2643C38.928 88.612 38.0993 87.4873 37.3816 86.74C36.6638 85.9927 34.3109 84.9568 33.1419 87.4208C31.9728 89.8847 34.1777 93.2587 36.0275 93.8432C39.2091 94.8421 39.7271 92.7999 39.7271 92.7999L39.9565 104.639C43.915 109.714 54.9027 109.285 50.3153 103.987V100.488C51.7334 100.718 53.1724 100.792 54.6068 100.71C56.9523 100.347 58.4247 98.4899 59.135 95.9668C60.2745 91.8972 60.711 88.5676 59.7418 80.5987C58.6837 71.8234 48.4729 71.7198 42.9605 75.2048C37.4482 78.6898 39.5125 88.2643 39.5125 88.2643Z" fill="#B16668"/>
<path d="M39.5125 89.241C39.2165 89.241 38.1066 87.3986 37.3815 86.7401C36.3752 85.8226 37.6701 77.5356 37.6701 77.5356C37.3295 76.8107 37.2137 76.0005 37.3377 75.2093C37.4616 74.418 37.8196 73.682 38.3656 73.0961C39.7419 71.5793 41.6656 69.7221 47.9105 70.462C52.35 70.9948 57.2186 72.3784 61.1402 70.462C61.5047 71.7405 61.4782 73.0988 61.0641 74.362C60.6501 75.6253 59.8674 76.7357 58.8168 77.5504C58.8168 77.5504 57.3962 78.4605 53.6374 78.9192C50.1859 79.1782 46.7176 79.1113 43.2786 78.7195C42.1984 78.5715 41.969 79.6221 41.3845 82.4856C40.9257 84.9643 40.4966 89.2262 39.5125 89.241Z" fill="#263238"/>
<path d="M37.6775 78.1792L34.1555 76.285C34.2686 76.0488 34.4283 75.8378 34.625 75.6647C34.8216 75.4916 35.0512 75.36 35.2999 75.2778C35.5487 75.1955 35.8114 75.1644 36.0725 75.1862C36.3336 75.208 36.5875 75.2822 36.8192 75.4045C37.2919 75.6676 37.645 76.1029 37.8049 76.6197C37.9648 77.1366 37.9191 77.6952 37.6775 78.1792Z" fill="#263238"/>
<path d="M50.2782 100.48C50.2782 100.48 45.0544 99.4295 43.2268 98.4603C42.1515 97.8993 41.2698 97.028 40.6963 95.9594C40.9724 97.0318 41.4605 98.0382 42.1317 98.919C43.471 100.628 50.2708 101.879 50.2708 101.879L50.2782 100.48Z" fill="#9A4A4D"/>
<path d="M49.0129 86.9473C49.0169 87.2306 48.9087 87.5039 48.7118 87.7077C48.515 87.9115 48.2455 88.0291 47.9623 88.035C47.6822 88.0235 47.4176 87.9036 47.2244 87.7006C47.0311 87.4977 46.9242 87.2275 46.9264 86.9473C46.9224 86.664 47.0307 86.3906 47.2275 86.1869C47.4243 85.9831 47.6938 85.8655 47.9771 85.8596C48.2571 85.8711 48.5217 85.991 48.715 86.194C48.9082 86.3969 49.0151 86.667 49.0129 86.9473Z" fill="#263238"/>
<path d="M47.9105 82.9961L45.6908 84.2392C45.5295 83.9315 45.4934 83.5735 45.5899 83.2398C45.6864 82.9061 45.9081 82.6227 46.2087 82.4486C46.3558 82.3699 46.5173 82.3216 46.6834 82.3067C46.8495 82.2917 47.017 82.3103 47.1758 82.3614C47.3346 82.4125 47.4815 82.495 47.6077 82.604C47.7339 82.7131 47.8369 82.8464 47.9105 82.9961Z" fill="#263238"/>
<path d="M49.8047 94.191L52.202 95.0863C52.1506 95.2476 52.0669 95.3967 51.9562 95.5246C51.8454 95.6526 51.7098 95.7567 51.5576 95.8308C51.4054 95.9048 51.2398 95.9471 51.0708 95.9553C50.9017 95.9634 50.7328 95.9371 50.5742 95.8781C50.2519 95.752 49.9913 95.5053 49.8476 95.1904C49.704 94.8756 49.6886 94.5171 49.8047 94.191Z" fill="#9A4A4D"/>
<path d="M58.3654 83.8692L56.3232 82.3005C56.418 82.1612 56.5405 82.0428 56.683 81.9529C56.8255 81.8629 56.985 81.8032 57.1516 81.7775C57.3182 81.7518 57.4883 81.7607 57.6513 81.8036C57.8142 81.8465 57.9667 81.9225 58.099 82.0268C58.3706 82.2416 58.5495 82.5523 58.599 82.8949C58.6486 83.2376 58.565 83.5862 58.3654 83.8692Z" fill="#263238"/>
<path d="M57.7365 86.6587C57.7278 86.8644 57.6589 87.063 57.5383 87.2298C57.4177 87.3966 57.2507 87.5244 57.0581 87.5971C56.8655 87.6699 56.6558 87.6845 56.455 87.6391C56.2542 87.5936 56.0712 87.4902 55.9286 87.3417C55.7861 87.1931 55.6904 87.006 55.6533 86.8035C55.6162 86.601 55.6395 86.392 55.7201 86.2026C55.8008 86.0132 55.9353 85.8516 56.107 85.738C56.2787 85.6244 56.48 85.5638 56.6858 85.5636C56.8268 85.5665 56.9657 85.5971 57.0948 85.6537C57.2238 85.7103 57.3405 85.7918 57.4381 85.8935C57.5356 85.9952 57.6122 86.1151 57.6634 86.2464C57.7146 86.3777 57.7395 86.5178 57.7365 86.6587Z" fill="#263238"/>
<path d="M52.4017 85.6598L52.7421 91.9639L56.0347 90.8392L52.4017 85.6598Z" fill="#9A4A4D"/>
<path d="M24.5144 160.103C24.4162 160.103 24.3221 160.064 24.2528 159.994C24.1834 159.925 24.1444 159.831 24.1444 159.733V43.359C24.1444 43.2609 24.1834 43.1668 24.2528 43.0974C24.3221 43.028 24.4162 42.989 24.5144 42.989C24.6125 42.989 24.7066 43.028 24.776 43.0974C24.8453 43.1668 24.8843 43.2609 24.8843 43.359V159.733C24.8843 159.831 24.8453 159.925 24.776 159.994C24.7066 160.064 24.6125 160.103 24.5144 160.103Z" fill="#37474F"/>
<path d="M27.326 53.4883C27.326 52.297 24.8621 49.0488 24.3664 49.0488C23.8706 49.0488 21.6731 52.2379 21.6731 53.4883C21.6956 53.7362 21.7834 53.9737 21.9277 54.1765C22.072 54.3793 22.2676 54.5401 22.4944 54.6426C23.1096 54.9563 23.7904 55.1199 24.4811 55.1199C25.1717 55.1199 25.8525 54.9563 26.4677 54.6426C26.6959 54.5411 26.893 54.3807 27.0387 54.1779C27.1843 53.975 27.2733 53.737 27.2964 53.4883H27.326Z" fill="#EA3E3E"/>
<path opacity="0.1" d="M27.326 53.4883C27.326 52.297 24.8621 49.0488 24.3664 49.0488C23.8706 49.0488 21.6731 52.2379 21.6731 53.4883C21.6956 53.7362 21.7834 53.9737 21.9277 54.1765C22.072 54.3793 22.2676 54.5401 22.4944 54.6426C23.1096 54.9563 23.7904 55.1199 24.4811 55.1199C25.1717 55.1199 25.8525 54.9563 26.4677 54.6426C26.6959 54.5411 26.893 54.3807 27.0387 54.1779C27.1843 53.975 27.2733 53.737 27.2964 53.4883H27.326Z" fill="black"/>
<path d="M40.8739 27.6654C40.8739 36.7663 33.7264 48.2646 24.3886 50.4399C14.9769 47.8132 7.91077 36.7663 7.91077 27.6654C7.91077 18.5644 13.7709 10.0554 24.396 10.0554C35.0212 10.0554 40.8739 18.557 40.8739 27.6654Z" fill="#EA3E3E"/>
<path opacity="0.05" d="M8.51746 22.6709C8.10968 24.3043 7.90589 25.9818 7.91073 27.6653C7.91073 36.7663 14.9991 47.8132 24.396 50.4399C32.1577 48.6271 38.4026 40.377 40.2894 32.4156C40.2894 32.4156 37.8328 41.1539 27.0227 41.8569C16.2126 42.5598 7.48898 30.2032 8.51746 22.6709Z" fill="black"/>
<path d="M13.9781 149.485C12.0099 148.922 9.98993 143.033 10.1379 139.259C10.2859 135.486 15.3617 119.163 16.0572 116.026C16.8489 112.563 16.7971 109.929 17.5001 108.131C18.5359 105.475 21.9395 104.017 21.9395 104.017C21.9395 104.017 26.379 101.894 27.9772 101.575C29.5755 101.257 30.197 102.315 30.0194 103.151C29.8418 103.987 29.2795 106.111 29.1315 107.265C29.0261 108.743 28.5939 110.178 27.8662 111.468C27.0301 112.807 23.6191 116.011 23.486 117.794C23.3528 119.577 22.3687 129.256 21.8064 136.292C21.3402 142.049 20.7631 144.431 19.5126 145.955C18.2622 147.48 15.5097 149.914 13.9781 149.485Z" fill="#B16668"/>
<path d="M291.757 232.74H284.727V244.771H291.757V232.74Z" fill="#FAC1C0"/>
<path d="M267.391 232.104L260.369 232.34L260.022 219.614L267.391 219.37V232.104Z" fill="#FAC1C0"/>
<path d="M289.485 143.218C289.485 149.929 290.536 190.232 290.536 190.232C290.698 192.163 292.556 195.596 292.704 202.551C292.911 212.636 292.038 238.755 292.038 238.755C290.824 239.351 289.496 239.673 288.144 239.7C286.793 239.727 285.453 239.457 284.217 238.911C284.217 238.911 278.016 202.944 276.758 192.962C275.663 184.253 273.799 160.584 273.799 160.584L270.003 189.055C270.816 192.718 271.11 196.476 270.876 200.221C270.543 204.838 267.843 228.189 267.843 228.189C266.614 228.882 265.248 229.297 263.841 229.403C262.435 229.509 261.022 229.304 259.703 228.804C259.703 228.804 256.152 193.288 256.07 189.055C255.982 184.224 258.409 134.923 258.409 134.923L289.485 143.218Z" fill="#EA3E3E"/>
<path d="M261.945 129.359C266.474 114.272 265.578 101.501 266.429 97.5946L254.82 113.806C254.328 119.152 253.535 124.465 252.445 129.722C251.106 135.486 249.278 142.67 247.088 147.139C246.69 147.925 246.019 148.538 245.201 148.863C242.981 149.759 241.99 150.891 240.236 152.193C238.86 153.207 237.817 153.34 237.898 153.754C238.056 154.215 238.38 154.6 238.807 154.834C239.234 155.068 239.733 155.134 240.207 155.019C241.265 154.796 242.293 154.449 243.27 153.983C242.284 155.653 241.035 157.152 239.57 158.423C236.211 161.338 235.73 163.403 241.309 164.416C244.809 165.06 247.968 163.38 251.957 156.114C253.474 153.465 254.8 150.711 255.923 147.872C258.564 140.487 260.577 133.917 261.945 129.359Z" fill="#FAC1C0"/>
<path d="M267.362 93.8433C263.758 94.4796 260.199 95.3231 257.987 98.7859C255.775 102.249 252.578 118.593 252.578 118.593C252.578 118.593 257.225 121.856 262.552 121.716L267.362 93.8433Z" fill="#E0E0E0"/>
<path d="M292.193 99.9253C294.613 101.642 307.376 130.469 307.864 132.482C308.516 135.212 308.22 138.275 306.88 139.259C305.541 140.243 302.589 138.83 301.042 137.321C298.083 134.361 287.687 112.807 287.687 112.807L292.193 99.9253Z" fill="#F28F8F"/>
<path d="M279.629 93.8359C285.512 95.2565 292.948 97.6317 295.582 103.048C298.216 108.464 302.241 117.254 302.241 117.254C299.501 119.926 296.159 121.901 292.497 123.011L289.537 117.831L289.973 145.171C285.201 148.649 267.672 150.535 257.624 143.203C257.624 143.203 258.86 110.373 258.86 105.268C258.86 100.162 261.694 94.0209 269.537 93.5621L279.629 93.8359Z" fill="#F0F0F0"/>
<path d="M289.485 117.809C289.485 117.809 286.525 112.689 285.896 111.461L289.596 124.039L289.485 117.809Z" fill="#E0E0E0"/>
<path d="M284.727 241.301V240.294C284.054 240.59 282.508 246.547 279.703 249.092C277.484 251.112 274.465 253.45 273.695 255.699C272.926 257.949 277.905 259.34 279.977 258.97C282.382 258.548 286.555 256.854 287.598 255.27C288.642 253.687 289.137 251.386 289.988 250.239C290.839 249.092 292.8 247.797 293.259 246.465C293.51 245.725 293.214 244.135 292.859 242.766C292.504 241.397 292.178 240.154 291.757 240.272V241.012C290.755 241.797 289.514 242.214 288.242 242.196C287.214 242.329 284.72 242.085 284.727 241.301Z" fill="#263238"/>
<path d="M260.295 230.172C259.933 230.172 259.637 230.705 258.816 231.571C257.616 232.783 256.22 233.783 254.687 234.53C252.053 235.848 246.94 237.875 244.624 238.918C243.144 239.569 243.248 241.315 244.742 242.307C246.237 243.298 249.84 244.024 254.176 243.047C256.537 242.514 259.615 240.339 261.575 240.45C263.536 240.561 267.162 240.546 268.597 239.555C270.033 238.563 269.463 236.447 269.056 234.634C268.612 232.651 268.057 229.558 267.399 229.699V230.38C266.555 231.66 262.219 232.178 260.34 231.238L260.295 230.172Z" fill="#263238"/>
<path opacity="0.1" d="M273.814 160.584C270.181 159.45 266.84 157.536 264.025 154.975C264.025 154.975 265.919 158.512 271.527 161.797L270.329 186.592L273.814 160.584Z" fill="black"/>
<path d="M281.834 67.7094C282.362 67.6467 282.897 67.7054 283.398 67.8811C283.9 68.0568 284.354 68.3448 284.727 68.7231C285.97 69.9958 285.711 72.3487 284.727 77.7501L280.887 78.194L281.834 67.7094Z" fill="#263238"/>
<path d="M259.452 66.1261C258.625 66.1298 257.807 65.9636 257.047 65.6377C255.871 64.957 255.567 66.2962 256.204 67.4579C256.63 68.2889 257.262 68.9971 258.039 69.5151C258.816 70.0331 259.712 70.3438 260.643 70.4176C260.643 70.2548 261.746 67.4579 261.746 67.4579L259.452 66.1261Z" fill="#263238"/>
<path d="M280.036 78.1719C280.606 78.5122 281.42 77.432 282.123 76.692C282.826 75.9521 285.12 74.9458 286.259 77.358C287.399 79.7701 284.779 83.0849 283.225 84.1652C281.376 85.4526 280.036 84.4463 280.036 84.4463L279.629 93.8433C279.629 93.8433 277.587 98.8303 272.067 99.5776C266.548 100.325 267.687 95.7818 269.5 93.5473V90.1289C269.5 90.1289 266.651 90.6912 265.305 90.3435C264.328 90.0356 263.444 89.4906 262.73 88.7572C262.016 88.0238 261.495 87.1249 261.213 86.1408C259.696 81.1274 259.379 75.8275 260.288 70.6692C261.694 62.1379 271.313 61.9974 276.699 65.3862C282.086 68.775 280.036 78.1719 280.036 78.1719Z" fill="#FAC1C0"/>
<path d="M280.036 79.1338C280.317 79.1338 281.413 77.3284 282.123 76.6847C283.107 75.7894 281.834 67.6873 281.834 67.6873C281.834 67.6873 282.833 64.6167 280.887 62.5745C278.941 60.5324 275.175 60.8801 272.423 60.7839C269.042 60.8059 265.692 60.1335 262.582 58.8084C258.675 57.1066 258.379 56.9068 257.891 58.6234C257.402 60.34 257.225 64.2763 259.563 66.9104L261.501 67.6503C261.501 67.6503 262.552 68.5752 266.2 69.0192C269.565 69.2741 272.947 69.2097 276.3 68.8268C277.358 68.6862 277.587 69.7073 278.157 72.5264C278.653 74.9459 279.067 79.1116 280.036 79.1338Z" fill="#263238"/>
<path d="M281.827 68.3163L285.275 66.4665C285.165 66.2349 285.009 66.028 284.817 65.8582C284.625 65.6884 284.401 65.5592 284.157 65.4783C283.914 65.3974 283.657 65.3666 283.401 65.3876C283.146 65.4087 282.897 65.4812 282.67 65.6008C282.207 65.8578 281.861 66.2835 281.704 66.7893C281.547 67.2952 281.591 67.8421 281.827 68.3163Z" fill="#263238"/>
<path d="M269.507 90.1215C269.507 90.1215 274.62 89.093 276.403 88.1459C277.456 87.5985 278.318 86.7445 278.875 85.6968C278.605 86.7436 278.127 87.7251 277.469 88.5824C276.167 90.2547 269.507 91.4829 269.507 91.4829V90.1215Z" fill="#F28F8F"/>
<path d="M270.728 76.7217C270.735 76.9234 270.802 77.1185 270.919 77.2827C271.037 77.4469 271.2 77.5729 271.388 77.6451C271.576 77.7173 271.782 77.7325 271.979 77.6887C272.176 77.645 272.356 77.5442 272.496 77.399C272.636 77.2538 272.73 77.0706 272.767 76.8722C272.804 76.6737 272.782 76.4689 272.703 76.2831C272.624 76.0973 272.492 75.9388 272.324 75.8273C272.156 75.7159 271.958 75.6564 271.757 75.6562C271.619 75.6582 271.483 75.6873 271.357 75.742C271.23 75.7967 271.116 75.8758 271.021 75.9749C270.925 76.0739 270.85 76.1909 270.8 76.3191C270.75 76.4472 270.725 76.5841 270.728 76.7217Z" fill="#263238"/>
<path d="M272.001 72.482L274.221 73.6955C274.378 73.395 274.413 73.045 274.318 72.7192C274.223 72.3935 274.005 72.1175 273.71 71.9493C273.564 71.8656 273.403 71.813 273.236 71.7946C273.069 71.7763 272.9 71.7926 272.739 71.8427C272.579 71.8927 272.43 71.9753 272.303 72.0853C272.176 72.1953 272.073 72.3304 272.001 72.482Z" fill="#263238"/>
<path d="M270.81 83.8396L268.471 84.7275C268.522 84.8848 268.604 85.0303 268.712 85.1552C268.821 85.2802 268.953 85.3819 269.101 85.4545C269.25 85.527 269.412 85.5689 269.577 85.5774C269.742 85.586 269.907 85.5612 270.062 85.5044C270.38 85.3802 270.637 85.1361 270.776 84.8248C270.916 84.5134 270.928 84.1597 270.81 83.8396Z" fill="#F28F8F"/>
<path d="M261.124 73.947L263.122 72.408C263.028 72.2704 262.907 72.1538 262.766 72.0654C262.624 71.977 262.467 71.9189 262.302 71.8945C262.137 71.8702 261.969 71.8803 261.808 71.924C261.648 71.9678 261.498 72.0444 261.368 72.149C261.106 72.3613 260.935 72.6655 260.89 72.9996C260.845 73.3337 260.928 73.6725 261.124 73.947Z" fill="#263238"/>
<path d="M262.271 76.433C262.278 76.635 262.345 76.8304 262.463 76.9948C262.58 77.1591 262.744 77.2851 262.933 77.3571C263.121 77.4291 263.327 77.4438 263.525 77.3994C263.722 77.3551 263.902 77.2536 264.041 77.1076C264.181 76.9617 264.275 76.7778 264.311 76.5789C264.347 76.38 264.323 76.1749 264.243 75.9893C264.163 75.8036 264.031 75.6456 263.861 75.5351C263.692 75.4245 263.494 75.3663 263.292 75.3676C263.016 75.3753 262.754 75.4915 262.563 75.6909C262.372 75.8903 262.267 76.1569 262.271 76.433Z" fill="#263238"/>
<path d="M267.872 75.634L267.532 81.7901L264.321 80.695L267.872 75.634Z" fill="#F28F8F"/>
<path d="M295.981 150.047C295.883 150.047 295.789 150.008 295.72 149.939C295.65 149.869 295.611 149.775 295.611 149.677V33.3036C295.611 33.2054 295.65 33.1113 295.72 33.042C295.789 32.9726 295.883 32.9336 295.981 32.9336C296.08 32.9336 296.174 32.9726 296.243 33.042C296.312 33.1113 296.351 33.2054 296.351 33.3036V149.677C296.351 149.775 296.312 149.869 296.243 149.939C296.174 150.008 296.08 150.047 295.981 150.047Z" fill="#37474F"/>
<path d="M293.185 43.4329C293.185 42.249 295.648 38.9934 296.144 38.9934C296.64 38.9934 298.838 42.1824 298.838 43.4329C298.816 43.681 298.728 43.9188 298.584 44.1217C298.439 44.3246 298.243 44.4853 298.016 44.5872C297.401 44.9009 296.72 45.0645 296.03 45.0645C295.339 45.0645 294.658 44.9009 294.043 44.5872C293.808 44.4912 293.604 44.333 293.453 44.1296C293.302 43.9261 293.209 43.6852 293.185 43.4329Z" fill="#EA3E3E"/>
<path opacity="0.1" d="M293.185 43.4329C293.185 42.249 295.648 38.9934 296.144 38.9934C296.64 38.9934 298.838 42.1824 298.838 43.4329C298.816 43.681 298.728 43.9188 298.584 44.1217C298.439 44.3246 298.243 44.4853 298.016 44.5872C297.401 44.9009 296.72 45.0645 296.03 45.0645C295.339 45.0645 294.658 44.9009 294.043 44.5872C293.808 44.4912 293.604 44.333 293.453 44.1296C293.302 43.9261 293.209 43.6852 293.185 43.4329Z" fill="black"/>
<path d="M279.615 17.6099C279.615 26.7109 286.755 38.2092 296.1 40.3845C305.497 37.7578 312.585 26.7109 312.585 17.6099C312.585 8.50901 306.725 0 296.1 0C285.475 0 279.615 8.51641 279.615 17.6099Z" fill="#EA3E3E"/>
<path opacity="0.05" d="M311.875 22.3675C311.875 22.3675 309.463 31.0985 298.608 31.8014C288.19 32.4748 279.718 21.0357 280.036 13.459C279.754 14.8245 279.613 16.2155 279.615 17.6099C279.615 26.7108 286.755 38.2091 296.1 40.3844C303.891 38.2091 310.084 30.2476 311.986 22.4045L311.875 22.3675Z" fill="black"/>
<path d="M306.503 139.429C308.471 138.867 310.491 132.985 310.343 129.204C310.195 125.423 305.119 109.115 304.424 105.97C303.632 102.508 303.684 99.8736 302.981 98.0756C301.945 95.4267 298.542 93.9691 298.542 93.9691C298.542 93.9691 294.102 91.8381 292.504 91.52C290.906 91.2018 290.284 92.2599 290.462 93.096C290.639 93.9321 291.202 96.0556 291.35 97.2099C291.454 98.6874 291.886 100.123 292.615 101.413C293.451 102.752 296.862 105.956 296.995 107.739C297.128 109.522 298.112 119.208 298.675 126.237C299.141 131.993 299.718 134.376 300.968 135.9C302.219 137.424 305.023 139.866 306.503 139.429Z" fill="#FAC1C0"/>
<path d="M115.435 247.486C136.321 247.486 153.252 239.417 153.252 229.462C153.252 219.507 136.321 211.438 115.435 211.438C94.5493 211.438 77.618 219.507 77.618 229.462C77.618 239.417 94.5493 247.486 115.435 247.486Z" fill="#E0E0E0"/>
<path d="M195.79 252.969C216.675 252.969 233.607 244.899 233.607 234.945C233.607 224.99 216.675 216.921 195.79 216.921C174.904 216.921 157.973 224.99 157.973 234.945C157.973 244.899 174.904 252.969 195.79 252.969Z" fill="#E0E0E0"/>
<path d="M124.95 80.806C126.911 80.5248 128.568 80.806 131.994 85.4823C135.058 89.6702 141.162 96.6994 141.162 96.6994C141.162 96.6994 146.682 82.234 146.519 80.2881C146.356 78.3421 145.135 77.1434 144.336 73.5623C143.537 69.9811 143.308 69.3004 142.708 68.2571C142.109 67.2138 144.188 66.9622 145.024 68.2571C145.86 69.5519 145.964 71.3795 146.548 71.0539C147.133 70.7284 147.532 66.792 147.037 63.9656C146.541 61.1391 147.828 60.5028 148.413 61.4055C148.752 61.9101 148.991 62.4754 149.116 63.0703C149.721 62.9467 150.348 62.9857 150.932 63.1833C151.517 63.3808 152.039 63.7299 152.446 64.1949C153.925 65.808 155.154 68.2867 155.146 72.482C155.139 76.6773 153.2 78.9192 152.926 80.8134C152.653 82.7076 149.227 100.266 146.8 106.2C145.276 109.899 143.167 111.024 140.592 108.856C137.122 105.933 127.599 94.228 127.599 94.228L124.95 80.806Z" fill="#FAC1C0"/>
<path d="M124.95 80.8061C126.719 80.2807 128.65 80.6951 130.44 82.8408C132.231 84.9866 138.787 93.2884 138.787 93.2884C138.787 93.2884 138.594 97.5355 133.112 101.472L126.859 94.7386L124.95 80.8061Z" fill="#EA3E3E"/>
<path d="M134.214 217.808L134.155 216.824C134.621 217.956 136.722 222.84 139.615 225.171C141.909 227.028 145.024 229.151 145.912 231.319C146.8 233.487 141.961 234.649 139.904 234.405C137.514 234.131 134.369 232.969 132.579 231.023C131.321 229.654 130.477 227.997 129.575 226.917C128.672 225.837 126.667 224.697 126.134 223.402C125.846 222.699 126.045 221.101 126.312 219.754C126.578 218.408 126.978 217.032 127.399 217.12C127.382 217.411 127.347 217.7 127.296 217.986C128.324 218.702 129.568 219.042 130.818 218.948C131.832 218.926 134.273 218.578 134.214 217.808Z" fill="#263238"/>
<path d="M141.695 226.791C140.955 226.229 140.267 225.681 139.615 225.156C137.595 223.521 135.96 220.642 134.998 218.674V218.637C134.262 217.044 133.941 215.29 134.066 213.539L134.155 211.208L126.756 211.356L127.296 217.971V218.141H127.333C127.755 219.555 131.151 223.188 133.104 225.541C134.406 227.131 136.804 229.122 139.593 229.321C142.242 229.573 143.5 228.67 141.695 226.791Z" fill="#FAC1C0"/>
<path d="M92.9046 218.652C92.5495 218.445 91.9649 219.651 91.3508 220.568C90.6916 221.71 90.378 223.018 90.4481 224.334C90.6118 225.817 90.5344 227.316 90.2188 228.774C89.8044 231.23 89.0867 234.05 91.558 236.314C93.6815 238.252 98.417 239.155 99.9264 237.793C100.233 237.544 100.477 237.226 100.637 236.864C100.798 236.503 100.871 236.109 100.851 235.714C100.548 234.642 100.132 233.605 99.6083 232.621C99.0244 231.506 98.5008 230.36 98.0396 229.188L92.9046 218.652Z" fill="#263238"/>
<path d="M99.5787 214.494C99.2531 214.22 98.5502 223.306 98.3504 225.467C98.1506 227.627 98.528 228.759 98.8831 231.06C99.0601 231.604 99.0203 232.195 98.7722 232.71C98.5846 232.949 98.3436 233.14 98.0686 233.269C97.7935 233.397 97.4922 233.46 97.1887 233.45C95.6201 233.45 94.3771 232.873 93.06 231.386C92.4089 230.646 92.3645 228.685 92.4015 227.975C92.5088 226.784 92.531 225.588 92.4681 224.394C92.3497 223.128 91.9797 221.641 92.1425 220.694C92.2817 219.96 92.5312 219.252 92.8824 218.593C93.4818 217.224 93.8813 213.48 93.8813 213.48L99.5787 214.494Z" fill="#FAC1C0"/>
<path d="M102.679 118.164C98.8387 123.1 98.1432 128.19 98.9793 142.581C99.8154 156.973 98.6019 168.73 98.3874 169.537C98.1728 170.343 95.7385 178.29 94.5916 183.639C93.2524 189.906 93.0674 215.707 93.0674 215.707C93.0674 215.707 95.7977 217.187 100.015 216.181C100.015 216.181 110.196 175.863 111.277 172.615C112.357 169.366 120.533 135.863 120.533 135.863L119.49 116.573L102.679 118.164Z" fill="#37474F"/>
<path d="M132.046 134.753C131.462 128.094 130.034 116.559 130.034 116.559L113.016 115.56C110.256 119.859 111.454 127.006 112.209 133.466L121.946 171.586C121.747 173.414 120.067 177.283 121.946 187.124C124.04 198.09 126.608 212.585 126.608 212.585C126.608 212.585 130.603 214.213 134.273 212.666C134.273 212.666 135.679 177.949 134.784 168.471C133.8 158.179 132.446 139.311 132.046 134.753Z" fill="#37474F"/>
<path d="M117.559 150.928L120.333 136.943C122.793 136.067 125.128 134.876 127.281 133.399C125.906 135.137 124.265 136.648 122.42 137.876L117.559 150.928Z" fill="#263238"/>
<path d="M103.707 84.2983C101.798 85.4008 98.639 86.4071 97.3219 90.1215C95.5239 95.3009 90.7515 108.752 88.9165 113.584H97.7363L103.841 101.08C108.561 97.0249 107.925 85.756 103.707 84.2983Z" fill="#FAC1C0"/>
<path d="M128.924 105.749C129.345 109.633 130.914 124.002 130.914 124.002C118.077 130.846 102.161 126.311 99.7267 123.492C101.946 116.226 104.307 112.09 106.12 110.173L103.841 101.08C103.841 101.08 109.22 94.6794 103.707 84.2984L110.862 81.9455L120.659 81.0946L124.95 80.806C126.482 82.2415 128.894 87.3839 130.463 91.3868C131.469 93.9691 132.557 98.0978 128.924 105.749Z" fill="#F5F5F5"/>
<path d="M103.707 84.2983C99.4899 85.127 97.5957 87.1988 95.9087 91.8011C94.0885 96.7807 91.9058 102.16 91.9058 102.16C93.0874 103.867 94.7363 105.198 96.655 105.992C98.5737 106.786 100.681 107.01 102.723 106.636L105.454 99.0226C105.454 99.0226 109.116 92.3042 103.707 84.2983Z" fill="#EA3E3E"/>
<path d="M105.002 105.652C105.113 106.096 108.117 110.092 109.59 111.009C111.062 111.927 106.985 113.229 106.408 115.56C105.246 120.243 112.505 126.259 121.525 127.117C111.321 128.789 101.606 125.637 99.7489 123.492C101.969 116.226 104.329 112.09 106.142 110.173L105.002 105.652Z" fill="#E6E6E6"/>
<path d="M131.994 79.8959H118.284C116.08 79.8969 113.897 79.4635 111.861 78.6205C109.824 77.7775 107.974 76.5414 106.415 74.983C104.857 73.4245 103.621 71.5742 102.778 69.5377C101.935 67.5013 101.501 65.3187 101.502 63.1147C101.502 59.0722 103.108 55.1953 105.967 52.3368C108.825 49.4783 112.702 47.8724 116.745 47.8724C118.747 47.8715 120.73 48.265 122.58 49.0306C124.43 49.7961 126.111 50.9187 127.527 52.3342C128.943 53.7496 130.067 55.4303 130.833 57.28C131.6 59.1298 131.994 61.1124 131.994 63.1147V79.8959Z" fill="#263238"/>
<path d="M126.549 54.5094C128.162 55.4639 130.152 59.5113 129.952 68.0055C129.782 75.1974 127.451 76.9806 126.253 77.4912C125.054 78.0017 122.819 77.6909 120.629 77.321V81.6421C120.493 82.5552 120.001 83.3772 119.26 83.9284C117.47 85.0457 115.354 84.6239 114.162 84.1948C111.536 83.2477 111.018 81.975 111.018 81.975L111.062 72.038C111.062 72.038 109.775 73.2959 107.577 71.3795C105.772 69.7961 105.165 67.1324 106.571 65.6969C106.937 65.3566 107.379 65.1083 107.86 64.9723C108.341 64.8363 108.847 64.8167 109.337 64.915C109.827 65.0133 110.287 65.2267 110.678 65.5376C111.069 65.8486 111.381 66.2481 111.588 66.7032C111.588 66.7032 112.875 66.8068 114.162 64.4095C114.162 64.4095 114.118 57.9131 115.568 57.0695C120.193 54.3911 123.463 54.5094 126.549 54.5094Z" fill="#FAC1C0"/>
<path d="M120.651 65.7413C120.66 65.8615 120.646 65.9823 120.608 66.0966C120.57 66.211 120.509 66.3167 120.43 66.4075C120.351 66.4984 120.255 66.5726 120.146 66.6259C120.038 66.6792 119.921 66.7105 119.801 66.718C119.614 66.7356 119.426 66.6967 119.261 66.6064C119.096 66.5161 118.962 66.3784 118.877 66.2113C118.791 66.0441 118.757 65.8551 118.78 65.6687C118.803 65.4822 118.881 65.3068 119.004 65.1652C119.128 65.0236 119.291 64.9222 119.472 64.8741C119.654 64.826 119.846 64.8334 120.023 64.8955C120.2 64.9575 120.355 65.0712 120.467 65.222C120.579 65.3728 120.643 65.5537 120.651 65.7413Z" fill="#263238"/>
<g style="mix-blend-mode:multiply" opacity="0.5">
<g style="mix-blend-mode:multiply" opacity="0.5">
<path d="M122.161 72.297L124.262 72.9629C124.223 73.1029 124.157 73.2336 124.066 73.3471C123.975 73.4607 123.863 73.5548 123.735 73.6239C123.607 73.693 123.467 73.7356 123.322 73.7491C123.178 73.7627 123.032 73.747 122.893 73.7028C122.615 73.6063 122.384 73.407 122.248 73.1456C122.111 72.8842 122.08 72.5806 122.161 72.297Z" fill="#F28F8F"/>
</g>
</g>
<path d="M128.835 62.9223L127.007 61.657C127.083 61.5331 127.183 61.426 127.302 61.3425C127.421 61.259 127.556 61.2008 127.698 61.1717C127.84 61.1425 127.987 61.143 128.129 61.173C128.271 61.2031 128.406 61.262 128.524 61.3463C128.769 61.5184 128.938 61.7783 128.996 62.0719C129.054 62.3655 128.996 62.6701 128.835 62.9223Z" fill="#263238"/>
<path d="M119.394 62.5302L117.314 63.3293C117.255 63.1968 117.223 63.0535 117.221 62.9082C117.219 62.7629 117.247 62.6188 117.303 62.4848C117.359 62.3509 117.443 62.2299 117.548 62.1295C117.653 62.0291 117.777 61.9514 117.914 61.9012C118.194 61.7969 118.504 61.8039 118.779 61.9209C119.054 62.0379 119.274 62.2559 119.394 62.5302Z" fill="#263238"/>
<path d="M128.339 65.5416C128.342 65.7202 128.292 65.8957 128.195 66.0462C128.099 66.1967 127.961 66.3154 127.797 66.3877C127.634 66.4599 127.453 66.4825 127.276 66.4525C127.1 66.4225 126.937 66.3413 126.807 66.2191C126.676 66.0968 126.585 65.9389 126.544 65.765C126.502 65.5912 126.513 65.409 126.575 65.2413C126.637 65.0736 126.746 64.9277 126.89 64.8219C127.034 64.7161 127.206 64.655 127.385 64.6463C127.629 64.6403 127.867 64.7308 128.045 64.8983C128.224 65.0658 128.329 65.2969 128.339 65.5416Z" fill="#263238"/>
<g style="mix-blend-mode:multiply" opacity="0.5">
<g style="mix-blend-mode:multiply" opacity="0.5">
<path d="M123.996 65.0237L124.136 70.4694L127.007 69.5815L123.996 65.0237Z" fill="#F28F8F"/>
</g>
</g>
<g style="mix-blend-mode:multiply" opacity="0.5">
<g style="mix-blend-mode:multiply" opacity="0.5">
<path d="M120.659 77.3284C118.343 77.0251 113.578 75.6636 112.838 73.7769C113.134 74.7317 113.718 75.5717 114.51 76.1816C115.931 77.4024 120.659 78.7713 120.659 78.7713V77.3284Z" fill="#F28F8F"/>
</g>
</g>
<path d="M114.54 48.6863L114.192 44.6908C114.454 44.6514 114.721 44.666 114.976 44.7336C115.232 44.8013 115.471 44.9206 115.679 45.0841C115.887 45.2477 116.06 45.4521 116.185 45.6848C116.311 45.9175 116.388 46.1735 116.412 46.437C116.451 46.9813 116.279 47.5198 115.929 47.9392C115.58 48.3587 115.082 48.6265 114.54 48.6863Z" fill="#263238"/>
<path d="M114.325 49.0859L111.092 46.7182C111.237 46.4977 111.425 46.309 111.645 46.1635C111.865 46.0179 112.112 45.9186 112.371 45.8716C112.631 45.8245 112.897 45.8307 113.154 45.8897C113.411 45.9488 113.654 46.0595 113.866 46.2151C114.297 46.5433 114.584 47.0244 114.67 47.5588C114.755 48.0932 114.632 48.6399 114.325 49.0859Z" fill="#263238"/>
<path d="M111.617 66.6884V70.4694C112.3 70.4694 112.955 70.1981 113.438 69.7152C113.921 69.2323 114.192 68.5774 114.192 67.8944V64.3947L111.617 66.6884Z" fill="#263238"/>
<path d="M121.917 48.7677C125.312 48.7677 128.568 50.1163 130.968 52.5169C133.369 54.9174 134.717 58.1733 134.717 61.5682V63.2256H128.458C127.048 63.2262 125.686 62.716 124.624 61.7896C123.561 60.8632 122.87 59.5833 122.679 58.1868L122.449 63.2256C121.291 63.2264 120.174 62.793 119.319 62.0109C118.465 61.2288 117.934 60.1548 117.832 59.0007L117.758 58.172C117.649 59.5473 117.025 60.8309 116.012 61.7673C114.999 62.7038 113.67 63.2244 112.29 63.2256H111.728L111.092 54.1839L121.917 48.7677Z" fill="#263238"/>
<path d="M208.923 227.768V226.791C208.531 227.953 206.703 232.954 203.973 235.455C201.79 237.446 198.794 239.747 198.054 241.967C197.314 244.186 202.197 245.052 204.239 244.69C206.607 244.275 209.678 242.929 211.343 240.879C212.519 239.436 213.266 237.727 214.103 236.595C214.939 235.463 216.87 234.19 217.321 232.895C217.573 232.155 217.277 230.594 216.929 229.262C216.581 227.93 216.263 226.695 215.841 226.806V227.546C214.856 228.323 213.633 228.736 212.379 228.715C211.372 228.744 208.916 228.545 208.923 227.768Z" fill="#263238"/>
<path d="M201.998 237.194C202.678 236.587 203.359 236.003 203.973 235.433C205.897 233.687 207.355 230.72 208.198 228.693C208.679 227.539 208.93 226.302 208.938 225.052V221.108H215.856V227.531V227.701H215.819C215.486 229.136 212.312 232.969 210.507 235.463C209.3 237.135 206.999 239.258 204.254 239.628C201.635 239.991 200.311 239.17 201.998 237.194Z" fill="#B16668"/>
<path d="M181.924 220.946V219.954C181.539 221.116 179.704 226.118 176.981 228.619C174.798 230.609 171.802 232.91 171.062 235.13C170.322 237.35 175.205 238.215 177.247 237.853C179.615 237.431 182.678 236.092 184.351 234.042C185.52 232.599 186.267 230.89 187.11 229.758C187.954 228.626 189.878 227.353 190.329 226.059C190.581 225.319 190.285 223.757 189.937 222.426C189.611 221.205 189.264 219.858 188.849 219.969V220.709C187.864 221.486 186.641 221.899 185.386 221.878C184.373 221.922 181.916 221.723 181.924 220.946Z" fill="#263238"/>
<path d="M175.006 230.372C175.679 229.765 176.36 229.181 176.981 228.611C178.898 226.865 180.363 223.898 181.199 221.871C181.684 220.718 181.935 219.481 181.939 218.23V214.286H188.857V220.702V220.872H188.82C188.487 222.307 185.313 226.133 183.507 228.633C182.294 230.306 180 232.429 177.255 232.799C174.643 233.169 173.319 232.348 175.006 230.372Z" fill="#B16668"/>
<path d="M214.465 120.243C219.83 131.964 214.273 173.243 214.273 173.243C214.436 175.145 216.604 178.889 217.417 187.257C218.372 197.143 215.938 221.974 215.938 221.974C214.883 222.586 213.695 222.932 212.476 222.981C211.258 223.03 210.046 222.781 208.945 222.255C208.945 222.255 202.323 184.823 201.088 174.997C200 166.421 197.928 147.554 197.928 147.554L192.009 174.93C192.868 177.697 193.492 180.531 193.873 183.402C194.436 189.189 188.835 216.114 188.835 216.114C188.835 216.114 186.445 216.987 181.909 216.321C181.909 216.321 179.933 180.583 179.408 173.621C178.528 161.915 181.628 125.408 183.781 118.482L214.465 120.243Z" fill="#37474F"/>
<path d="M197.928 147.546L196.182 136.662C196.182 136.662 188.783 135.131 185.475 131.993C185.475 131.993 188.975 136.351 194.184 137.779L196.145 146.14L192.726 171.512L197.928 147.546Z" fill="#263238"/>
<path d="M194.317 79.1855C192.649 78.9104 190.937 79.1068 189.375 79.7527C187.813 80.3985 186.462 81.4681 185.475 82.8407C183.145 85.941 174.177 112.023 174.177 112.023H182.249L193.296 90.1659L194.317 79.1855Z" fill="#B16668"/>
<path d="M205.002 79.5038C211.883 79.9773 212.364 83.2995 214.08 86.9029C215.351 89.705 215.468 92.8943 214.406 95.7819L209.619 109.648C209.619 109.648 211.838 115.071 214.465 120.199C202.434 126.91 187.414 123.381 183.796 118.482C183.648 117.447 184.536 109.322 185.15 104.017C183.026 98.6971 182.471 95.3305 183.367 91.8159C185.024 85.2973 191.461 78.9414 194.317 79.1708L205.002 79.5038Z" fill="#F5F5F5"/>
<path d="M201.924 121.516C202.868 121.299 203.76 120.896 204.546 120.33C205.333 119.763 205.998 119.045 206.502 118.218C207.007 117.39 207.341 116.47 207.485 115.512C207.629 114.554 207.579 113.576 207.34 112.637C207.309 112.508 207.267 112.381 207.214 112.26C207.049 111.755 206.72 111.321 206.278 111.027C205.836 110.733 205.308 110.596 204.78 110.639C205.552 110.13 206.216 109.471 206.731 108.703C207.247 107.934 207.605 107.071 207.784 106.163L209.263 98.8302C209.263 98.8302 206.548 90.2176 206.822 87.2654L213.725 87.6649L214.62 88.2865C215.354 90.7399 215.284 93.3636 214.421 95.7744L209.633 109.64C209.633 109.64 211.853 115.064 214.48 120.192C210.566 122.297 206.246 123.538 201.812 123.831C197.378 124.125 192.932 123.464 188.775 121.893C193.143 122.598 197.604 122.47 201.924 121.516Z" fill="#E6E6E6"/>
<path d="M230.329 113.888C230.329 113.888 223.499 100.451 218.986 90.1659C215.73 82.7668 214.998 81.065 209.811 80.2585L207.983 79.9773C205.527 88.0498 207.244 91.7123 210.455 97.2395L221.694 118.549C224.239 118.024 230.381 114.657 230.329 113.888Z" fill="#B16668"/>
<path d="M202.146 73.7991H197.269C193.829 73.7991 190.53 72.4325 188.098 70C185.665 67.5676 184.299 64.2684 184.299 60.8284V58.653C184.299 55.1934 185.673 51.8754 188.119 49.4291C190.566 46.9827 193.884 45.6084 197.343 45.6084H202.035C205.494 45.6084 208.812 46.9827 211.259 49.4291C213.705 51.8754 215.079 55.1934 215.079 58.653V60.8284C215.079 64.2684 213.713 67.5676 211.28 70C208.848 72.4325 205.549 73.7991 202.109 73.7991H202.146Z" fill="#263238"/>
<path d="M189.389 51.8309C187.762 52.7928 185.749 56.8845 185.949 65.4601C186.119 72.7261 188.472 74.5167 189.648 75.0346C190.825 75.5526 193.111 75.2344 195.331 74.8718V79.2299C195.331 79.2299 192.26 82.7889 192.46 84.7867C192.66 86.7845 196.9 87.258 199.748 85.3046C201.608 83.9676 203.204 82.2966 204.454 80.3768V69.8404C204.454 69.8404 205.934 71.8382 208.398 70.2104C210.862 68.5826 210.943 64.5648 209.522 63.1146C208.102 61.6644 205.024 62.1305 204.454 64.1283C204.454 64.1283 200.917 64.2541 196.211 61.6644C194.38 60.6787 192.807 59.2741 191.622 57.5652C190.436 55.8564 189.671 53.8916 189.389 51.8309Z" fill="#B16668"/>
<path d="M194.872 63.6326C194.869 63.8127 194.92 63.9896 195.017 64.1413C195.114 64.293 195.254 64.4127 195.419 64.4855C195.584 64.5583 195.766 64.581 195.944 64.5507C196.121 64.5205 196.286 64.4386 196.417 64.3153C196.549 64.192 196.641 64.0328 196.682 63.8575C196.724 63.6822 196.713 63.4985 196.651 63.3294C196.588 63.1604 196.478 63.0134 196.333 62.9067C196.187 62.8001 196.014 62.7386 195.834 62.7299C195.712 62.7259 195.59 62.7461 195.475 62.7894C195.36 62.8326 195.255 62.898 195.166 62.9819C195.077 63.0657 195.005 63.1663 194.954 63.278C194.904 63.3896 194.876 63.5101 194.872 63.6326Z" fill="#263238"/>
<path d="M193.814 69.7887L191.698 70.4694C191.738 70.6097 191.805 70.7405 191.897 70.8541C191.988 70.9677 192.101 71.0618 192.229 71.1309C192.358 71.1999 192.499 71.2424 192.644 71.2559C192.789 71.2693 192.935 71.2535 193.074 71.2093C193.354 71.1097 193.586 70.9079 193.723 70.6444C193.861 70.3809 193.893 70.0752 193.814 69.7887Z" fill="#9A4A4D"/>
<path d="M187.377 60.8283L189.227 59.5409C189.148 59.417 189.045 59.3103 188.924 59.2272C188.804 59.1441 188.667 59.0863 188.523 59.0573C188.38 59.0283 188.231 59.0286 188.088 59.0583C187.944 59.088 187.808 59.1465 187.688 59.2301C187.44 59.4051 187.269 59.669 187.211 59.9668C187.153 60.2646 187.213 60.5733 187.377 60.8283Z" fill="#263238"/>
<path d="M187.806 62.9741C187.805 63.1539 187.856 63.3301 187.954 63.4809C188.053 63.6316 188.193 63.7502 188.358 63.8218C188.523 63.8935 188.705 63.9152 188.882 63.884C189.059 63.8529 189.223 63.7704 189.354 63.6468C189.485 63.5232 189.576 63.364 189.617 63.1888C189.658 63.0137 189.646 62.8304 189.584 62.6618C189.521 62.4931 189.411 62.3465 189.266 62.2403C189.121 62.134 188.947 62.0727 188.768 62.064C188.52 62.0599 188.281 62.1529 188.101 62.323C187.922 62.4931 187.816 62.7268 187.806 62.9741Z" fill="#263238"/>
<path d="M192.275 62.4487L192.127 67.9463L189.234 67.051L192.275 62.4487Z" fill="#9A4A4D"/>
<path d="M195.338 74.8719C197.669 74.5611 202.479 73.1775 203.226 71.2833C202.929 72.2439 202.342 73.0891 201.546 73.7028C200.111 74.9385 195.338 76.3221 195.338 76.3221V74.8719Z" fill="#9A4A4D"/>
<path d="M213.2 47.2583C210.196 48.5088 210.869 51.0837 212.127 54.0877C213.385 57.0918 214.754 59.3781 217.713 58.0907C218.508 57.8523 219.243 57.4497 219.872 56.9088C220.501 56.3679 221.01 55.7008 221.364 54.9508C221.719 54.2009 221.912 53.3848 221.93 52.5555C221.949 51.7262 221.794 50.9021 221.474 50.1368C221.153 49.3716 220.676 48.6821 220.072 48.1132C219.469 47.5442 218.752 47.1085 217.969 46.8343C217.186 46.5601 216.355 46.4535 215.528 46.5215C214.701 46.5894 213.898 46.8304 213.17 47.2287L213.2 47.2583Z" fill="#263238"/>
<path d="M210.558 49.9516L209.508 44.9423C209.83 44.8613 210.164 44.8457 210.492 44.8965C210.82 44.9473 211.135 45.0634 211.417 45.238C211.699 45.4126 211.943 45.6421 212.135 45.9129C212.327 46.1836 212.463 46.4902 212.534 46.8143C212.673 47.4911 212.545 48.1954 212.177 48.78C211.809 49.3646 211.229 49.7843 210.558 49.9516Z" fill="#263238"/>
<path d="M235.212 112.023H78.3876V147.931H235.212V112.023Z" fill="#EA3E3E"/>
<path d="M78.3875 118.505C77.9288 119.785 76.9077 120.391 76.1678 121.664C75.4279 122.937 75.1171 126.74 75.9532 128.323C76.5907 129.434 77.4863 130.375 78.5642 131.067C79.6422 131.758 80.8709 132.18 82.1463 132.297C83.2163 132.34 84.2729 132.045 85.1652 131.453C85.5808 131.174 85.9482 130.829 86.2528 130.432C86.531 130.006 86.7407 129.539 86.8744 129.048C86.8849 129.009 86.9053 128.974 86.9336 128.945C86.9736 128.919 87.0194 128.904 87.0667 128.9C87.3909 128.854 87.6957 128.718 87.9472 128.508C88.0726 128.403 88.1734 128.272 88.2424 128.124C88.3115 127.975 88.3471 127.814 88.3468 127.65C88.3221 127.442 88.2481 127.243 88.131 127.069C88.0139 126.895 87.8571 126.752 87.6735 126.651C87.2996 126.459 86.9049 126.31 86.497 126.207C85.5129 125.889 84.6028 125.393 83.6409 125.031C81.6916 124.337 79.9023 123.258 78.3802 121.856L78.3875 118.505Z" fill="#FAC1C0"/>
<path d="M235.22 119.659C235.678 120.954 236.7 121.568 237.439 122.863C238.179 124.158 238.505 128.042 237.661 129.618C237.015 130.747 236.105 131.702 235.01 132.404C233.915 133.106 232.667 133.534 231.372 133.651C230.343 133.722 229.319 133.458 228.453 132.898C227.587 132.337 226.926 131.511 226.57 130.543C225.897 128.212 227.058 127.332 229.855 126.274C231.835 125.573 233.653 124.478 235.197 123.055L235.22 119.659Z" fill="#B16668"/>
<path d="M166.659 108.901C170.803 109.574 171.994 112.023 171.994 112.023H168.605C168.605 112.023 168.176 113.162 169.345 117.432C169.745 118.912 167.532 118.971 167.466 118.408C167.066 119.326 164.151 120.628 161.976 119.148C159.978 117.824 159.09 115.797 159.534 112.001C160.266 107.776 165.919 108.782 166.659 108.901Z" fill="#B16668"/>
<path d="M100.093 133.796C100.597 133.796 100.957 133.922 101.173 134.174C101.389 134.414 101.497 134.756 101.497 135.2C101.497 135.392 101.473 135.602 101.425 135.83C101.377 136.058 101.287 136.274 101.155 136.478C101.035 136.67 100.855 136.838 100.615 136.982C100.387 137.114 100.087 137.18 99.7153 137.18C99.1753 137.18 98.8093 137.042 98.6173 136.766C98.4253 136.478 98.3293 136.124 98.3293 135.704C98.3293 135.464 98.3593 135.23 98.4193 135.002C98.4793 134.774 98.5753 134.57 98.7073 134.39C98.8393 134.21 99.0193 134.066 99.2473 133.958C99.4753 133.85 99.7573 133.796 100.093 133.796ZM100.489 132.536C100.189 132.536 99.9433 132.5 99.7513 132.428C99.5593 132.356 99.4093 132.248 99.3013 132.104C99.1933 131.948 99.1153 131.762 99.0673 131.546C99.0313 131.318 99.0133 131.06 99.0133 130.772C99.0133 130.664 99.0133 130.55 99.0133 130.43C99.0253 130.298 99.0373 130.136 99.0493 129.944C99.0733 129.752 99.0913 129.512 99.1033 129.224C99.1273 128.936 99.1573 128.57 99.1933 128.126C99.2293 127.67 99.2713 127.124 99.3193 126.488C99.3673 125.852 99.4213 125.09 99.4813 124.202C99.4933 123.938 99.5233 123.782 99.5713 123.734C99.6073 123.698 99.7033 123.68 99.8593 123.68H100.921C101.581 123.68 102.049 123.812 102.325 124.076C102.613 124.328 102.757 124.628 102.757 124.976C102.757 125.192 102.733 125.48 102.685 125.84C102.649 126.188 102.595 126.578 102.523 127.01C102.451 127.442 102.367 127.898 102.271 128.378C102.187 128.846 102.097 129.314 102.001 129.782C101.917 130.238 101.833 130.676 101.749 131.096C101.665 131.516 101.593 131.876 101.533 132.176C101.509 132.32 101.467 132.416 101.407 132.464C101.359 132.512 101.269 132.536 101.137 132.536H100.489ZM112.887 137.18C112.179 137.18 111.597 137.132 111.141 137.036C110.685 136.952 110.319 136.826 110.043 136.658C109.779 136.478 109.593 136.256 109.485 135.992C109.389 135.728 109.341 135.416 109.341 135.056C109.341 134.948 109.347 134.798 109.359 134.606C109.371 134.402 109.389 134.12 109.413 133.76C109.437 133.4 109.467 132.938 109.503 132.374C109.551 131.798 109.611 131.078 109.683 130.214C109.767 129.146 109.833 128.3 109.881 127.676C109.929 127.052 109.965 126.572 109.989 126.236C110.013 125.888 110.025 125.648 110.025 125.516C110.037 125.372 110.043 125.252 110.043 125.156C110.043 124.964 110.043 124.808 110.043 124.688C110.055 124.568 110.067 124.478 110.079 124.418C110.103 124.346 110.133 124.298 110.169 124.274C110.217 124.238 110.283 124.22 110.367 124.22C111.075 124.172 111.675 124.136 112.167 124.112C112.671 124.088 113.109 124.076 113.481 124.076C114.393 124.076 115.173 124.154 115.821 124.31C116.481 124.454 117.015 124.664 117.423 124.94C117.831 125.216 118.131 125.558 118.323 125.966C118.515 126.374 118.611 126.836 118.611 127.352C118.611 127.64 118.581 127.94 118.521 128.252C118.461 128.552 118.359 128.84 118.215 129.116C118.071 129.392 117.873 129.638 117.621 129.854C117.381 130.058 117.075 130.208 116.703 130.304C117.399 130.52 117.891 130.88 118.179 131.384C118.467 131.876 118.611 132.464 118.611 133.148C118.611 133.7 118.521 134.222 118.341 134.714C118.161 135.194 117.849 135.62 117.405 135.992C116.961 136.352 116.373 136.64 115.641 136.856C114.909 137.072 113.991 137.18 112.887 137.18ZM113.913 131.6C113.781 131.6 113.619 131.612 113.427 131.636C113.235 131.648 113.037 131.672 112.833 131.708L112.635 134.642C113.067 134.774 113.457 134.84 113.805 134.84C114.177 134.84 114.477 134.786 114.705 134.678C114.933 134.57 115.107 134.438 115.227 134.282C115.359 134.114 115.443 133.934 115.479 133.742C115.527 133.538 115.551 133.352 115.551 133.184C115.551 132.74 115.425 132.368 115.173 132.068C114.933 131.756 114.513 131.6 113.913 131.6ZM113.157 126.65C113.133 126.962 113.109 127.328 113.085 127.748C113.073 128.168 113.049 128.624 113.013 129.116C113.397 129.212 113.739 129.26 114.039 129.26C114.399 129.26 114.687 129.218 114.903 129.134C115.119 129.05 115.287 128.942 115.407 128.81C115.539 128.678 115.623 128.534 115.659 128.378C115.707 128.222 115.731 128.072 115.731 127.928C115.731 127.556 115.605 127.238 115.353 126.974C115.113 126.698 114.693 126.56 114.093 126.56C113.961 126.56 113.811 126.572 113.643 126.596C113.487 126.608 113.325 126.626 113.157 126.65ZM122.634 137C122.262 137 121.956 136.964 121.716 136.892C121.488 136.808 121.302 136.694 121.158 136.55C121.026 136.406 120.93 136.232 120.87 136.028C120.822 135.812 120.798 135.566 120.798 135.29C120.798 135.11 120.804 134.858 120.816 134.534C120.84 134.198 120.876 133.742 120.924 133.166C120.972 132.578 121.026 131.84 121.086 130.952C121.158 130.052 121.242 128.942 121.338 127.622C121.35 127.358 121.38 127.202 121.428 127.154C121.464 127.118 121.56 127.1 121.716 127.1H122.418C122.79 127.1 123.09 127.136 123.318 127.208C123.558 127.28 123.744 127.388 123.876 127.532C124.02 127.676 124.116 127.85 124.164 128.054C124.224 128.258 124.254 128.486 124.254 128.738C124.254 128.918 124.242 129.188 124.218 129.548C124.194 129.908 124.158 130.4 124.11 131.024C124.074 131.636 124.02 132.404 123.948 133.328C123.876 134.24 123.786 135.344 123.678 136.64C123.666 136.784 123.636 136.88 123.588 136.928C123.54 136.976 123.438 137 123.282 137H122.634ZM121.356 124.976C121.356 124.496 121.53 124.118 121.878 123.842C122.226 123.566 122.694 123.428 123.282 123.428C123.798 123.428 124.17 123.536 124.398 123.752C124.638 123.956 124.758 124.232 124.758 124.58C124.758 125.024 124.59 125.396 124.254 125.696C123.93 125.984 123.45 126.128 122.814 126.128C121.842 126.128 121.356 125.744 121.356 124.976ZM130.72 137.18C130.192 137.18 129.664 137.114 129.136 136.982C128.62 136.85 128.152 136.622 127.732 136.298C127.324 135.974 126.988 135.542 126.724 135.002C126.46 134.462 126.328 133.784 126.328 132.968C126.328 132.668 126.352 132.308 126.4 131.888C126.448 131.468 126.538 131.036 126.67 130.592C126.814 130.148 127.006 129.71 127.246 129.278C127.498 128.834 127.822 128.438 128.218 128.09C128.614 127.742 129.094 127.46 129.658 127.244C130.222 127.028 130.894 126.92 131.674 126.92C132.298 126.92 132.826 126.992 133.258 127.136C133.69 127.28 134.038 127.478 134.302 127.73C134.566 127.97 134.758 128.252 134.878 128.576C134.998 128.9 135.058 129.248 135.058 129.62C135.058 130.172 134.944 130.64 134.716 131.024C134.5 131.408 134.212 131.732 133.852 131.996C133.504 132.248 133.114 132.446 132.682 132.59C132.25 132.734 131.824 132.848 131.404 132.932C130.984 133.004 130.594 133.052 130.234 133.076C129.886 133.088 129.616 133.094 129.424 133.094C129.424 133.322 129.454 133.55 129.514 133.778C129.586 133.994 129.688 134.186 129.82 134.354C129.952 134.522 130.126 134.66 130.342 134.768C130.558 134.876 130.822 134.93 131.134 134.93C131.446 134.93 131.686 134.882 131.854 134.786C132.034 134.678 132.178 134.564 132.286 134.444C132.394 134.312 132.484 134.198 132.556 134.102C132.64 133.994 132.748 133.94 132.88 133.94C132.94 133.94 133.042 133.958 133.186 133.994C133.342 134.018 133.498 134.078 133.654 134.174C133.81 134.27 133.948 134.402 134.068 134.57C134.188 134.738 134.248 134.954 134.248 135.218C134.248 135.566 134.14 135.866 133.924 136.118C133.708 136.37 133.426 136.574 133.078 136.73C132.742 136.886 132.364 137 131.944 137.072C131.524 137.144 131.116 137.18 130.72 137.18ZM131.062 129.314C130.798 129.314 130.57 129.392 130.378 129.548C130.198 129.692 130.042 129.878 129.91 130.106C129.79 130.334 129.694 130.586 129.622 130.862C129.562 131.138 129.514 131.402 129.478 131.654C130.222 131.642 130.822 131.516 131.278 131.276C131.746 131.036 131.98 130.694 131.98 130.25C131.98 130.01 131.902 129.794 131.746 129.602C131.602 129.41 131.374 129.314 131.062 129.314ZM143 135.416C143 135.152 143.018 134.81 143.054 134.39C143.102 133.958 143.144 133.508 143.18 133.04C143.228 132.56 143.27 132.098 143.306 131.654C143.354 131.21 143.378 130.838 143.378 130.538C143.378 130.226 143.3 129.95 143.144 129.71C143 129.458 142.712 129.332 142.28 129.332C141.86 129.332 141.512 129.434 141.236 129.638C140.96 129.842 140.726 130.214 140.534 130.754C140.354 131.294 140.204 132.038 140.084 132.986C139.964 133.934 139.85 135.152 139.742 136.64C139.73 136.784 139.7 136.88 139.652 136.928C139.604 136.976 139.502 137 139.346 137H138.698C138.326 137 138.02 136.964 137.78 136.892C137.552 136.808 137.366 136.694 137.222 136.55C137.09 136.406 136.994 136.232 136.934 136.028C136.886 135.812 136.862 135.566 136.862 135.29C136.862 135.11 136.868 134.858 136.88 134.534C136.904 134.198 136.94 133.742 136.988 133.166C137.036 132.578 137.09 131.84 137.15 130.952C137.222 130.052 137.306 128.942 137.402 127.622C137.414 127.358 137.444 127.202 137.492 127.154C137.528 127.118 137.624 127.1 137.78 127.1H138.482C138.842 127.1 139.136 127.142 139.364 127.226C139.604 127.31 139.796 127.424 139.94 127.568C140.084 127.7 140.186 127.862 140.246 128.054C140.306 128.234 140.342 128.42 140.354 128.612C140.726 127.976 141.152 127.538 141.632 127.298C142.112 127.046 142.712 126.92 143.432 126.92C143.936 126.92 144.374 126.974 144.746 127.082C145.118 127.19 145.424 127.376 145.664 127.64C145.916 127.892 146.102 128.228 146.222 128.648C146.342 129.056 146.402 129.566 146.402 130.178C146.402 130.37 146.39 130.646 146.366 131.006C146.342 131.366 146.312 131.762 146.276 132.194C146.24 132.614 146.198 133.058 146.15 133.526C146.114 133.982 146.078 134.408 146.042 134.804C146.006 135.2 145.976 135.548 145.952 135.848C145.928 136.148 145.916 136.346 145.916 136.442C145.916 136.706 145.886 136.868 145.826 136.928C145.766 136.976 145.634 137 145.43 137H144.854C144.47 137 144.158 136.964 143.918 136.892C143.678 136.82 143.492 136.718 143.36 136.586C143.228 136.454 143.132 136.292 143.072 136.1C143.024 135.896 143 135.668 143 135.416ZM152.743 134.714C152.887 134.21 153.019 133.712 153.139 133.22C153.271 132.728 153.397 132.206 153.517 131.654C153.649 131.09 153.787 130.478 153.931 129.818C154.087 129.146 154.267 128.384 154.471 127.532C154.507 127.364 154.561 127.256 154.633 127.208C154.705 127.148 154.861 127.118 155.101 127.118C155.281 127.118 155.521 127.124 155.821 127.136C156.121 127.148 156.415 127.19 156.703 127.262C156.991 127.334 157.237 127.442 157.441 127.586C157.657 127.73 157.765 127.928 157.765 128.18C157.765 128.384 157.693 128.714 157.549 129.17C157.405 129.626 157.219 130.148 156.991 130.736C156.763 131.312 156.505 131.918 156.217 132.554C155.941 133.19 155.671 133.79 155.407 134.354C155.143 134.918 154.897 135.416 154.669 135.848C154.441 136.268 154.273 136.562 154.165 136.73C154.069 136.862 153.985 136.94 153.913 136.964C153.841 136.988 153.721 137 153.553 137H151.951C151.699 137 151.489 136.958 151.321 136.874C151.165 136.778 151.033 136.658 150.925 136.514C150.817 136.37 150.727 136.208 150.655 136.028C150.583 135.836 150.517 135.638 150.457 135.434C150.109 134.234 149.803 133.208 149.539 132.356C149.287 131.492 149.071 130.772 148.891 130.196C148.711 129.62 148.567 129.164 148.459 128.828C148.351 128.48 148.267 128.216 148.207 128.036C148.147 127.844 148.105 127.718 148.081 127.658C148.057 127.586 148.045 127.538 148.045 127.514C148.057 127.43 148.117 127.34 148.225 127.244C148.333 127.148 148.471 127.1 148.639 127.1C149.191 127.1 149.659 127.124 150.043 127.172C150.439 127.208 150.763 127.28 151.015 127.388C151.279 127.496 151.477 127.646 151.609 127.838C151.753 128.03 151.855 128.282 151.915 128.594C151.927 128.678 151.951 128.846 151.987 129.098C152.023 129.35 152.059 129.656 152.095 130.016C152.143 130.364 152.197 130.754 152.257 131.186C152.317 131.606 152.371 132.032 152.419 132.464C152.479 132.884 152.533 133.292 152.581 133.688C152.641 134.084 152.695 134.426 152.743 134.714ZM163.431 137.18C162.903 137.18 162.375 137.114 161.847 136.982C161.331 136.85 160.863 136.622 160.443 136.298C160.035 135.974 159.699 135.542 159.435 135.002C159.171 134.462 159.039 133.784 159.039 132.968C159.039 132.668 159.063 132.308 159.111 131.888C159.159 131.468 159.249 131.036 159.381 130.592C159.525 130.148 159.717 129.71 159.957 129.278C160.209 128.834 160.533 128.438 160.929 128.09C161.325 127.742 161.805 127.46 162.369 127.244C162.933 127.028 163.605 126.92 164.385 126.92C165.009 126.92 165.537 126.992 165.969 127.136C166.401 127.28 166.749 127.478 167.013 127.73C167.277 127.97 167.469 128.252 167.589 128.576C167.709 128.9 167.769 129.248 167.769 129.62C167.769 130.172 167.655 130.64 167.427 131.024C167.211 131.408 166.923 131.732 166.563 131.996C166.215 132.248 165.825 132.446 165.393 132.59C164.961 132.734 164.535 132.848 164.115 132.932C163.695 133.004 163.305 133.052 162.945 133.076C162.597 133.088 162.327 133.094 162.135 133.094C162.135 133.322 162.165 133.55 162.225 133.778C162.297 133.994 162.399 134.186 162.531 134.354C162.663 134.522 162.837 134.66 163.053 134.768C163.269 134.876 163.533 134.93 163.845 134.93C164.157 134.93 164.397 134.882 164.565 134.786C164.745 134.678 164.889 134.564 164.997 134.444C165.105 134.312 165.195 134.198 165.267 134.102C165.351 133.994 165.459 133.94 165.591 133.94C165.651 133.94 165.753 133.958 165.897 133.994C166.053 134.018 166.209 134.078 166.365 134.174C166.521 134.27 166.659 134.402 166.779 134.57C166.899 134.738 166.959 134.954 166.959 135.218C166.959 135.566 166.851 135.866 166.635 136.118C166.419 136.37 166.137 136.574 165.789 136.73C165.453 136.886 165.075 137 164.655 137.072C164.235 137.144 163.827 137.18 163.431 137.18ZM163.773 129.314C163.509 129.314 163.281 129.392 163.089 129.548C162.909 129.692 162.753 129.878 162.621 130.106C162.501 130.334 162.405 130.586 162.333 130.862C162.273 131.138 162.225 131.402 162.189 131.654C162.933 131.642 163.533 131.516 163.989 131.276C164.457 131.036 164.691 130.694 164.691 130.25C164.691 130.01 164.613 129.794 164.457 129.602C164.313 129.41 164.085 129.314 163.773 129.314ZM175.711 135.416C175.711 135.152 175.729 134.81 175.765 134.39C175.813 133.958 175.855 133.508 175.891 133.04C175.939 132.56 175.981 132.098 176.017 131.654C176.065 131.21 176.089 130.838 176.089 130.538C176.089 130.226 176.011 129.95 175.855 129.71C175.711 129.458 175.423 129.332 174.991 129.332C174.571 129.332 174.223 129.434 173.947 129.638C173.671 129.842 173.437 130.214 173.245 130.754C173.065 131.294 172.915 132.038 172.795 132.986C172.675 133.934 172.561 135.152 172.453 136.64C172.441 136.784 172.411 136.88 172.363 136.928C172.315 136.976 172.213 137 172.057 137H171.409C171.037 137 170.731 136.964 170.491 136.892C170.263 136.808 170.077 136.694 169.933 136.55C169.801 136.406 169.705 136.232 169.645 136.028C169.597 135.812 169.573 135.566 169.573 135.29C169.573 135.11 169.579 134.858 169.591 134.534C169.615 134.198 169.651 133.742 169.699 133.166C169.747 132.578 169.801 131.84 169.861 130.952C169.933 130.052 170.017 128.942 170.113 127.622C170.125 127.358 170.155 127.202 170.203 127.154C170.239 127.118 170.335 127.1 170.491 127.1H171.193C171.553 127.1 171.847 127.142 172.075 127.226C172.315 127.31 172.507 127.424 172.651 127.568C172.795 127.7 172.897 127.862 172.957 128.054C173.017 128.234 173.053 128.42 173.065 128.612C173.437 127.976 173.863 127.538 174.343 127.298C174.823 127.046 175.423 126.92 176.143 126.92C176.647 126.92 177.085 126.974 177.457 127.082C177.829 127.19 178.135 127.376 178.375 127.64C178.627 127.892 178.813 128.228 178.933 128.648C179.053 129.056 179.113 129.566 179.113 130.178C179.113 130.37 179.101 130.646 179.077 131.006C179.053 131.366 179.023 131.762 178.987 132.194C178.951 132.614 178.909 133.058 178.861 133.526C178.825 133.982 178.789 134.408 178.753 134.804C178.717 135.2 178.687 135.548 178.663 135.848C178.639 136.148 178.627 136.346 178.627 136.442C178.627 136.706 178.597 136.868 178.537 136.928C178.477 136.976 178.345 137 178.141 137H177.565C177.181 137 176.869 136.964 176.629 136.892C176.389 136.82 176.203 136.718 176.071 136.586C175.939 136.454 175.843 136.292 175.783 136.1C175.735 135.896 175.711 135.668 175.711 135.416ZM183.291 137C182.919 137 182.613 136.964 182.373 136.892C182.145 136.808 181.959 136.694 181.815 136.55C181.683 136.406 181.587 136.232 181.527 136.028C181.479 135.812 181.455 135.566 181.455 135.29C181.455 135.11 181.461 134.858 181.473 134.534C181.497 134.198 181.533 133.742 181.581 133.166C181.629 132.578 181.683 131.84 181.743 130.952C181.815 130.052 181.899 128.942 181.995 127.622C182.007 127.358 182.037 127.202 182.085 127.154C182.121 127.118 182.217 127.1 182.373 127.1H183.075C183.447 127.1 183.747 127.136 183.975 127.208C184.215 127.28 184.401 127.388 184.533 127.532C184.677 127.676 184.773 127.85 184.821 128.054C184.881 128.258 184.911 128.486 184.911 128.738C184.911 128.918 184.899 129.188 184.875 129.548C184.851 129.908 184.815 130.4 184.767 131.024C184.731 131.636 184.677 132.404 184.605 133.328C184.533 134.24 184.443 135.344 184.335 136.64C184.323 136.784 184.293 136.88 184.245 136.928C184.197 136.976 184.095 137 183.939 137H183.291ZM182.013 124.976C182.013 124.496 182.187 124.118 182.535 123.842C182.883 123.566 183.351 123.428 183.939 123.428C184.455 123.428 184.827 123.536 185.055 123.752C185.295 123.956 185.415 124.232 185.415 124.58C185.415 125.024 185.247 125.396 184.911 125.696C184.587 125.984 184.107 126.128 183.471 126.128C182.499 126.128 182.013 125.744 182.013 124.976ZM190.514 137.18C190.046 137.18 189.596 137.096 189.164 136.928C188.744 136.76 188.372 136.496 188.048 136.136C187.736 135.776 187.484 135.32 187.292 134.768C187.112 134.216 187.022 133.55 187.022 132.77C187.022 132.422 187.046 132.038 187.094 131.618C187.142 131.186 187.226 130.754 187.346 130.322C187.466 129.89 187.634 129.47 187.85 129.062C188.066 128.654 188.336 128.294 188.66 127.982C188.996 127.658 189.392 127.4 189.848 127.208C190.316 127.016 190.862 126.92 191.486 126.92C192.086 126.92 192.566 127.028 192.926 127.244C193.298 127.448 193.532 127.808 193.628 128.324C193.652 127.856 193.676 127.448 193.7 127.1C193.724 126.752 193.742 126.428 193.754 126.128C193.778 125.828 193.802 125.528 193.826 125.228C193.85 124.928 193.874 124.586 193.898 124.202C193.91 123.938 193.94 123.782 193.988 123.734C194.012 123.71 194.042 123.698 194.078 123.698C194.114 123.686 194.18 123.68 194.276 123.68H194.978C195.338 123.68 195.638 123.722 195.878 123.806C196.118 123.89 196.31 124.004 196.454 124.148C196.598 124.292 196.7 124.46 196.76 124.652C196.82 124.832 196.85 125.024 196.85 125.228C196.85 125.228 196.838 125.378 196.814 125.678C196.79 125.978 196.76 126.38 196.724 126.884C196.688 127.376 196.646 127.94 196.598 128.576C196.55 129.212 196.502 129.872 196.454 130.556C196.406 131.228 196.358 131.9 196.31 132.572C196.262 133.232 196.214 133.844 196.166 134.408C196.118 134.96 196.076 135.44 196.04 135.848C196.016 136.244 195.998 136.508 195.986 136.64C195.962 136.784 195.932 136.88 195.896 136.928C195.86 136.976 195.758 137 195.59 137H194.942C194.69 137 194.45 136.982 194.222 136.946C194.006 136.898 193.814 136.826 193.646 136.73C193.49 136.622 193.364 136.484 193.268 136.316C193.184 136.136 193.142 135.908 193.142 135.632C192.926 136.088 192.596 136.46 192.152 136.748C191.72 137.036 191.174 137.18 190.514 137.18ZM192.08 129.314C191.468 129.314 191.012 129.584 190.712 130.124C190.424 130.652 190.28 131.366 190.28 132.266C190.28 132.578 190.298 132.884 190.334 133.184C190.382 133.484 190.46 133.754 190.568 133.994C190.676 134.234 190.82 134.426 191 134.57C191.192 134.714 191.432 134.786 191.72 134.786C192.236 134.786 192.668 134.534 193.016 134.03C193.364 133.526 193.538 132.734 193.538 131.654C193.538 131.354 193.52 131.066 193.484 130.79C193.448 130.502 193.376 130.25 193.268 130.034C193.16 129.818 193.01 129.644 192.818 129.512C192.626 129.38 192.38 129.314 192.08 129.314ZM202.923 137.18C202.095 137.18 201.405 137.066 200.853 136.838C200.313 136.598 199.881 136.274 199.557 135.866C199.233 135.458 199.005 134.984 198.873 134.444C198.741 133.892 198.675 133.304 198.675 132.68C198.675 131.96 198.759 131.258 198.927 130.574C199.107 129.878 199.407 129.26 199.827 128.72C200.247 128.18 200.799 127.748 201.483 127.424C202.179 127.088 203.043 126.92 204.075 126.92C205.587 126.92 206.667 127.292 207.315 128.036C207.975 128.768 208.305 129.8 208.305 131.132C208.305 131.504 208.275 131.918 208.215 132.374C208.167 132.818 208.065 133.262 207.909 133.706C207.765 134.15 207.561 134.582 207.297 135.002C207.045 135.422 206.721 135.794 206.325 136.118C205.929 136.442 205.449 136.7 204.885 136.892C204.333 137.084 203.679 137.18 202.923 137.18ZM203.769 129.314C203.313 129.314 202.947 129.434 202.671 129.674C202.407 129.902 202.203 130.184 202.059 130.52C201.927 130.844 201.837 131.192 201.789 131.564C201.753 131.924 201.735 132.23 201.735 132.482C201.735 133.274 201.861 133.856 202.113 134.228C202.365 134.6 202.725 134.786 203.193 134.786C203.613 134.786 203.955 134.654 204.219 134.39C204.495 134.126 204.705 133.808 204.849 133.436C205.005 133.064 205.107 132.674 205.155 132.266C205.215 131.858 205.245 131.516 205.245 131.24C205.245 130.64 205.131 130.172 204.903 129.836C204.687 129.488 204.309 129.314 203.769 129.314ZM216.504 133.796C217.008 133.796 217.368 133.922 217.584 134.174C217.8 134.414 217.908 134.756 217.908 135.2C217.908 135.392 217.884 135.602 217.836 135.83C217.788 136.058 217.698 136.274 217.566 136.478C217.446 136.67 217.266 136.838 217.026 136.982C216.798 137.114 216.498 137.18 216.126 137.18C215.586 137.18 215.22 137.042 215.028 136.766C214.836 136.478 214.74 136.124 214.74 135.704C214.74 135.464 214.77 135.23 214.83 135.002C214.89 134.774 214.986 134.57 215.118 134.39C215.25 134.21 215.43 134.066 215.658 133.958C215.886 133.85 216.168 133.796 216.504 133.796ZM216.9 132.536C216.6 132.536 216.354 132.5 216.162 132.428C215.97 132.356 215.82 132.248 215.712 132.104C215.604 131.948 215.526 131.762 215.478 131.546C215.442 131.318 215.424 131.06 215.424 130.772C215.424 130.664 215.424 130.55 215.424 130.43C215.436 130.298 215.448 130.136 215.46 129.944C215.484 129.752 215.502 129.512 215.514 129.224C215.538 128.936 215.568 128.57 215.604 128.126C215.64 127.67 215.682 127.124 215.73 126.488C215.778 125.852 215.832 125.09 215.892 124.202C215.904 123.938 215.934 123.782 215.982 123.734C216.018 123.698 216.114 123.68 216.27 123.68H217.332C217.992 123.68 218.46 123.812 218.736 124.076C219.024 124.328 219.168 124.628 219.168 124.976C219.168 125.192 219.144 125.48 219.096 125.84C219.06 126.188 219.006 126.578 218.934 127.01C218.862 127.442 218.778 127.898 218.682 128.378C218.598 128.846 218.508 129.314 218.412 129.782C218.328 130.238 218.244 130.676 218.16 131.096C218.076 131.516 218.004 131.876 217.944 132.176C217.92 132.32 217.878 132.416 217.818 132.464C217.77 132.512 217.68 132.536 217.548 132.536H216.9Z" fill="white"/>
</svg>
