<svg width="21" height="21" viewBox="0 0 21 21" fill="none" xmlns="http://www.w3.org/2000/svg">
<path d="M14.6753 3.83273L17.1671 6.32332L14.6753 3.83273ZM16.2777 1.63862L9.54006 8.37626C9.19192 8.7239 8.9545 9.16682 8.8577 9.6492L8.23535 12.7645L11.3506 12.141C11.833 12.0445 12.2753 11.808 12.6236 11.4598L19.3612 4.72214C19.5637 4.51968 19.7243 4.27931 19.8339 4.01478C19.9434 3.75024 19.9998 3.46671 19.9998 3.18038C19.9998 2.89405 19.9434 2.61052 19.8339 2.34599C19.7243 2.08145 19.5637 1.84109 19.3612 1.63862C19.1588 1.43615 18.9184 1.27555 18.6539 1.16597C18.3893 1.0564 18.1058 1 17.8195 1C17.5331 1 17.2496 1.0564 16.9851 1.16597C16.7205 1.27555 16.4802 1.43615 16.2777 1.63862V1.63862Z" stroke="#848484" stroke-width="1.6" stroke-linecap="round" stroke-linejoin="round"/>
<mask id="path-2-inside-1" fill="white">
<path d="M17.647 15.1172V18.6466C17.647 19.2707 17.3991 19.8692 16.9579 20.3104C16.5166 20.7517 15.9181 20.9996 15.2941 20.9996H2.35294C1.7289 20.9996 1.13042 20.7517 0.689159 20.3104C0.247898 19.8692 0 19.2707 0 18.6466V5.70548C0 5.08144 0.247898 4.48296 0.689159 4.0417C1.13042 3.60044 1.7289 3.35254 2.35294 3.35254H5.88234"/>
</mask>
<path d="M19.447 15.1172C19.447 14.1231 18.6411 13.3172 17.647 13.3172C16.6529 13.3172 15.847 14.1231 15.847 15.1172H19.447ZM0 18.6466H-1.8H0ZM2.35294 3.35254V1.55254V3.35254ZM5.88234 5.15254C6.87646 5.15254 7.68234 4.34665 7.68234 3.35254C7.68234 2.35843 6.87646 1.55254 5.88234 1.55254V5.15254ZM15.847 15.1172V18.6466H19.447V15.1172H15.847ZM15.847 18.6466C15.847 18.7933 15.7888 18.9339 15.6851 19.0376L18.2307 21.5832C19.0095 20.8044 19.447 19.7481 19.447 18.6466H15.847ZM15.6851 19.0376C15.5814 19.1413 15.4407 19.1996 15.2941 19.1996V22.7996C16.3955 22.7996 17.4518 22.362 18.2307 21.5832L15.6851 19.0376ZM15.2941 19.1996H2.35294V22.7996H15.2941V19.1996ZM2.35294 19.1996C2.20629 19.1996 2.06565 19.1413 1.96195 19.0376L-0.583633 21.5832C0.195194 22.362 1.25151 22.7996 2.35294 22.7996V19.1996ZM1.96195 19.0376C1.85826 18.9339 1.8 18.7933 1.8 18.6466H-1.8C-1.8 19.7481 -1.36246 20.8044 -0.583633 21.5832L1.96195 19.0376ZM1.8 18.6466V5.70548H-1.8V18.6466H1.8ZM1.8 5.70548C1.8 5.55883 1.85826 5.41819 1.96195 5.31449L-0.583633 2.76891C-1.36246 3.54773 -1.8 4.60405 -1.8 5.70548H1.8ZM1.96195 5.31449C2.06565 5.21079 2.20629 5.15254 2.35294 5.15254V1.55254C1.25151 1.55254 0.195194 1.99008 -0.583633 2.76891L1.96195 5.31449ZM2.35294 5.15254H5.88234V1.55254H2.35294V5.15254Z" fill="#848484" mask="url(#path-2-inside-1)"/>
</svg>
