<svg width="20" height="20" viewBox="0 0 20 20" fill="none" xmlns="http://www.w3.org/2000/svg">
<path d="M0 2.85714C0 2.09938 0.301019 1.37266 0.836838 0.836838C1.37266 0.301019 2.09938 0 2.85714 0H14.8271C15.5848 0.000161821 16.3115 0.301287 16.8471 0.837143L19.1629 3.15286C19.6987 3.68855 19.9998 4.41516 20 5.17286V17.1429C20 17.9006 19.699 18.6273 19.1632 19.1632C18.6273 19.699 17.9006 20 17.1429 20H2.85714C2.09938 20 1.37266 19.699 0.836838 19.1632C0.301019 18.6273 0 17.9006 0 17.1429V2.85714ZM2.85714 1.42857C2.47826 1.42857 2.1149 1.57908 1.84699 1.84699C1.57908 2.1149 1.42857 2.47826 1.42857 2.85714V17.1429C1.42857 17.5217 1.57908 17.8851 1.84699 18.153C2.1149 18.4209 2.47826 18.5714 2.85714 18.5714V12.1429C2.85714 11.5745 3.08291 11.0295 3.48477 10.6276C3.88663 10.2258 4.43168 10 5 10H15C15.5683 10 16.1134 10.2258 16.5152 10.6276C16.9171 11.0295 17.1429 11.5745 17.1429 12.1429V18.5714C17.5217 18.5714 17.8851 18.4209 18.153 18.153C18.4209 17.8851 18.5714 17.5217 18.5714 17.1429V5.17286C18.5713 4.79401 18.4208 4.4307 18.1529 4.16286L15.8371 1.84714C15.5693 1.57922 15.206 1.42865 14.8271 1.42857H14.2857V5C14.2857 5.56832 14.0599 6.11337 13.6581 6.51523C13.2562 6.91709 12.7112 7.14286 12.1429 7.14286H6.42857C5.86025 7.14286 5.31521 6.91709 4.91334 6.51523C4.51148 6.11337 4.28571 5.56832 4.28571 5V1.42857H2.85714ZM5.71429 1.42857V5C5.71429 5.18944 5.78954 5.37112 5.9235 5.50508C6.05745 5.63903 6.23913 5.71429 6.42857 5.71429H12.1429C12.3323 5.71429 12.514 5.63903 12.6479 5.50508C12.7819 5.37112 12.8571 5.18944 12.8571 5V1.42857H5.71429ZM15.7143 18.5714V12.1429C15.7143 11.9534 15.639 11.7717 15.5051 11.6378C15.3711 11.5038 15.1894 11.4286 15 11.4286H5C4.81056 11.4286 4.62888 11.5038 4.49492 11.6378C4.36097 11.7717 4.28571 11.9534 4.28571 12.1429V18.5714H15.7143Z" fill="#646464"/>
</svg>
