<svg width="323" height="306" viewBox="0 0 323 306" fill="none" xmlns="http://www.w3.org/2000/svg">
<path d="M161.051 305.079C249.996 305.079 322.101 261.925 322.101 208.692C322.101 155.459 249.996 112.305 161.051 112.305C72.1055 112.305 0.000976562 155.459 0.000976562 208.692C0.000976562 261.925 72.1055 305.079 161.051 305.079Z" fill="#F5F5F5"/>
<path d="M189.569 165.75L186.651 164.068C185.542 163.503 184.316 163.208 183.071 163.208C181.826 163.208 180.6 163.503 179.491 164.068L25.4433 253.007C23.473 254.146 23.473 256.007 25.4433 257.126L28.3541 258.808C29.4638 259.37 30.6903 259.663 31.9343 259.663C33.1783 259.663 34.4048 259.37 35.5145 258.808L82.3143 231.828L103.136 243.849C108.505 246.945 117.285 246.945 122.654 243.849L154.92 225.21C159.506 222.56 159.506 218.228 154.92 215.598L132.698 202.719L189.569 169.883C191.539 168.744 191.539 166.883 189.569 165.75Z" fill="#E0E0E0"/>
<path d="M245.63 274.962C261.708 284.243 287.768 284.243 303.84 274.962C319.911 265.68 319.918 250.638 303.84 241.357C287.761 232.075 261.708 232.075 245.63 241.357C229.552 250.638 229.558 265.68 245.63 274.962Z" fill="#E0E0E0"/>
<path d="M88.1564 31.6807L90.7446 30.1154C90.7222 29.9355 90.7108 29.7544 90.7103 29.573V28.2961C90.7784 27.0583 91.1371 25.8539 91.7573 24.7805C92.3775 23.707 93.2418 22.7948 94.2802 22.1175C94.5897 21.9109 94.9374 21.768 95.3028 21.6973C95.6682 21.6266 96.044 21.6294 96.4084 21.7056C96.731 18.4721 98.9759 14.8404 101.708 13.234C104.653 11.5314 107.049 12.9113 107.049 16.3164V18.2318C107.038 19.1647 106.885 20.0906 106.596 20.9779L110.249 18.8497C111.347 18.2181 112.233 18.7261 112.233 19.9893C112.196 20.6773 111.997 21.3468 111.652 21.9433C111.307 22.5398 110.826 23.0464 110.249 23.4219L88.1427 36.2529C87.0511 36.8845 86.1655 36.3764 86.1655 35.1132C86.2043 34.4249 86.4048 33.7554 86.7507 33.159C87.0966 32.5626 87.5782 32.0561 88.1564 31.6807Z" fill="#EBEBEB"/>
<path d="M65.9958 26.4631L63.2497 27.5066V21.534C63.2497 16.797 59.4739 15.6642 55.3685 18.0259C51.3043 20.3806 47.9816 26.1542 47.9816 30.8912V31.7562C47.4062 31.5798 46.7983 31.5363 46.2037 31.6291C45.6091 31.7218 45.0433 31.9484 44.549 32.2917C42.9931 33.3049 41.6985 34.6712 40.7704 36.2793C39.8423 37.8874 39.3069 39.6919 39.2079 41.5459V41.9372L35.4183 44.1204C34.3932 44.788 33.5401 45.688 32.9282 46.7472C32.3162 47.8065 31.9628 48.9951 31.8965 50.2166C31.8965 52.4615 33.4755 53.3677 35.4183 52.2762L65.9958 34.5915C67.0192 33.9227 67.8707 33.0223 68.4814 31.9632C69.092 30.9041 69.4447 29.716 69.5107 28.4952C69.5107 26.2503 67.9386 25.3373 65.9958 26.4631Z" fill="#EBEBEB"/>
<path d="M123.025 239.036L149.737 223.589C152.483 221.997 153.856 219.917 153.856 217.836C153.856 215.756 153.856 214.116 153.856 214.116L128.723 199.857C127.95 199.351 127.306 198.671 126.844 197.871C126.383 197.07 126.116 196.173 126.066 195.25V162.297L79.438 189.264V222.216C79.4888 223.139 79.7565 224.036 80.2194 224.835C80.6822 225.634 81.3271 226.313 82.1017 226.816L103.095 239.036C108.594 242.215 117.519 242.215 123.025 239.036Z" fill="#263238"/>
<path opacity="0.15" d="M90.635 228.045V231.745L82.1016 226.816C81.3278 226.311 80.684 225.631 80.2224 224.831C79.7607 224.03 79.4944 223.132 79.4448 222.21V189.264L88.3352 184.135C88.5137 186.394 88.7197 188.728 88.8982 191.001L82.6715 194.605V220.335C82.7186 221.257 82.9832 222.154 83.4438 222.954C83.9044 223.753 84.5479 224.432 85.3214 224.935L90.635 228.045Z" fill="black"/>
<path d="M82.6508 220.356C82.7011 221.279 82.9685 222.178 83.4314 222.978C83.8942 223.778 84.5394 224.458 85.3145 224.963L103.082 235.322C108.574 238.508 117.498 238.508 123.025 235.322L149.744 219.882C155.236 216.704 155.236 211.548 149.744 208.369L131.956 197.996C131.182 197.493 130.538 196.814 130.076 196.015C129.615 195.216 129.349 194.318 129.3 193.397V167.673L82.6165 194.625L82.6508 220.356Z" fill="#455A64"/>
<path opacity="0.3" d="M137.38 201.134L131.963 198.003C131.189 197.5 130.545 196.821 130.083 196.022C129.622 195.222 129.355 194.325 129.306 193.403V167.673L82.6233 194.625V220.356C82.6736 221.279 82.941 222.178 83.4039 222.978C83.8667 223.778 84.5119 224.458 85.287 224.963L90.6075 228.038L137.38 201.134Z" fill="black"/>
<path d="M27.0841 240.663C28.0912 241.151 29.199 241.394 30.3178 241.374C31.4365 241.354 32.5348 241.07 33.5236 240.546L187.008 151.931C187.975 151.3 188.778 150.451 189.355 149.451C189.931 148.452 190.263 147.33 190.324 146.178V6.34813C190.285 5.22957 189.983 4.13601 189.441 3.15656C188.899 2.1771 188.134 1.33944 187.207 0.71183C186.2 0.224351 185.092 -0.0191055 183.974 0.00117022C182.855 0.021446 181.757 0.304886 180.768 0.828539L27.29 89.4372C26.3212 90.0705 25.5154 90.9234 24.938 91.9266C24.3607 92.9298 24.0281 94.055 23.9673 95.2109V235.027C24.0073 236.145 24.3103 237.238 24.8518 238.218C25.3934 239.197 26.1581 240.035 27.0841 240.663Z" fill="#455A64"/>
<path d="M33.5237 240.54L187.008 151.931C187.975 151.299 188.78 150.448 189.357 149.448C189.934 148.447 190.268 147.324 190.331 146.171V6.34124C190.331 4.21991 188.841 3.36176 187.008 4.42586L33.5237 93.0346C32.5571 93.6654 31.7527 94.5149 31.1755 95.5144C30.5982 96.5138 30.2644 97.6352 30.2009 98.7876V238.624C30.2009 240.752 31.6907 241.597 33.5237 240.54Z" fill="#37474F"/>
<path d="M34.5947 216.8V100.27C34.6334 99.5601 34.8403 98.8691 35.1983 98.2544C35.5564 97.6397 36.0554 97.1189 36.6543 96.7349L183.885 11.7167C185.017 11.0302 185.944 11.5931 185.944 12.8975V129.427C185.905 130.138 185.698 130.83 185.34 131.445C184.982 132.061 184.483 132.583 183.885 132.969L36.6337 217.981C35.5078 218.633 34.5947 218.097 34.5947 216.8Z" fill="#EA3E3E"/>
<path opacity="0.7" d="M34.5947 216.8V100.27C34.6334 99.5601 34.8403 98.8691 35.1983 98.2544C35.5564 97.6397 36.0554 97.1189 36.6543 96.7349L183.885 11.7167C185.017 11.0302 185.944 11.5931 185.944 12.8975V129.427C185.905 130.138 185.698 130.83 185.34 131.445C184.982 132.061 184.483 132.583 183.885 132.969L36.6337 217.981C35.5078 218.633 34.5947 218.097 34.5947 216.8Z" fill="white"/>
<path d="M24.9491 91.9087L31.1758 95.4992C30.5866 96.4994 30.2496 97.628 30.1941 98.7876V238.624C30.1941 240.553 31.5053 241.638 33.5168 240.546C32.5295 241.075 31.4307 241.361 30.3111 241.381C29.1915 241.402 28.083 241.155 27.0773 240.663C26.1614 240.119 25.3959 239.355 24.8504 238.441C24.3048 237.526 23.9966 236.489 23.9536 235.425V95.2108C23.9972 94.043 24.34 92.906 24.9491 91.9087Z" fill="#263238"/>
<path d="M107.352 189.085L114.869 184.767C115.555 184.383 116.091 184.657 116.091 185.385C116.06 185.794 115.933 186.191 115.721 186.543C115.508 186.894 115.217 187.191 114.869 187.41L107.352 191.721C106.665 192.113 106.136 191.838 106.136 191.103C106.165 190.695 106.291 190.299 106.502 189.948C106.713 189.598 107.004 189.302 107.352 189.085Z" fill="#EA3E3E"/>
<path d="M70.3689 262.577L75.607 259.549C75.607 259.549 78.7307 246.581 77.4881 234.91C75.7375 218.509 64.9385 212.337 60.8194 213.752C56.7003 215.166 55.5264 219.93 62.3161 229.713C66.3116 235.473 71.2682 247.48 70.3689 262.577Z" fill="#EA3E3E"/>
<g opacity="0.3">
<path opacity="0.3" d="M70.3689 262.577L75.607 259.549C75.607 259.549 78.7307 246.581 77.4881 234.91C75.7375 218.509 64.9385 212.337 60.8194 213.752C56.7003 215.166 55.5264 219.93 62.3161 229.713C66.3116 235.473 71.2682 247.48 70.3689 262.577Z" fill="white"/>
</g>
<path d="M72.5382 256.206H72.4902C72.4429 256.198 72.3977 256.18 72.3574 256.154C72.3171 256.128 72.2825 256.094 72.2555 256.054C72.2286 256.015 72.21 255.97 72.2008 255.923C72.1915 255.876 72.1919 255.827 72.2018 255.78C75.0715 240.677 69.7853 223.651 63.2771 216.573C63.2426 216.541 63.2152 216.501 63.1964 216.457C63.1776 216.414 63.168 216.367 63.168 216.319C63.168 216.272 63.1776 216.225 63.1964 216.181C63.2152 216.137 63.2426 216.098 63.2771 216.065C63.3109 216.031 63.351 216.005 63.3952 215.986C63.4394 215.968 63.4868 215.958 63.5346 215.958C63.5824 215.958 63.6297 215.968 63.6739 215.986C63.7181 216.005 63.7582 216.031 63.792 216.065C70.4581 223.267 75.8404 240.546 72.9296 255.883C72.9175 255.977 72.8704 256.062 72.7977 256.122C72.725 256.182 72.6322 256.212 72.5382 256.206Z" fill="white"/>
<path d="M57.1672 270.197C56.3845 270.595 54.3044 268.824 53.7346 268.378C52.7346 267.62 51.9472 266.618 51.4485 265.467C50.8895 264.169 50.7502 262.729 51.0503 261.348C51.2071 260.618 51.4159 259.899 51.675 259.199L52.3615 257.139C52.6423 256.472 52.7848 255.755 52.7803 255.032C52.6636 253.576 51.4073 252.499 50.3157 251.599C49.0731 250.569 47.7962 249.224 47.8923 247.48C48.0556 246.138 48.6591 244.887 49.6086 243.924C50.4942 242.915 51.524 242.029 52.3547 240.958C52.9841 240.214 53.3401 239.276 53.3639 238.301C53.3101 237.702 53.1399 237.119 52.8627 236.585C52.2155 235.466 51.6621 234.295 51.2082 233.084C50.8443 231.848 50.9816 230.338 51.9702 229.514C52.4104 229.22 52.9048 229.016 53.4246 228.914C53.9444 228.813 54.4792 228.816 54.9978 228.924C55.9848 229.088 56.9228 229.471 57.7438 230.043C60.4281 231.718 61.8629 235.061 64.7051 236.386C65.8466 236.81 67.0137 237.16 68.1995 237.436C68.7943 237.576 69.3529 237.84 69.8391 238.21C70.3252 238.581 70.7279 239.049 71.0211 239.585C71.9891 241.782 69.8608 244.329 70.5062 246.643C71.0691 248.702 72.9914 249.56 74.0005 251.448C74.4059 252.274 74.5382 253.206 74.3781 254.112C74.2097 255.652 73.7557 257.146 73.0394 258.519C72.2415 259.929 71.3588 261.288 70.3963 262.59C70.3963 262.59 57.2907 270.135 57.1672 270.197Z" fill="#EA3E3E"/>
<g opacity="0.65">
<path opacity="0.65" d="M57.1672 270.197C56.3845 270.595 54.3044 268.824 53.7346 268.378C52.7346 267.62 51.9472 266.618 51.4485 265.467C50.8895 264.169 50.7502 262.729 51.0503 261.348C51.2071 260.618 51.4159 259.899 51.675 259.199L52.3615 257.139C52.6423 256.472 52.7848 255.755 52.7803 255.032C52.6636 253.576 51.4073 252.499 50.3157 251.599C49.0731 250.569 47.7962 249.224 47.8923 247.48C48.0556 246.138 48.6591 244.887 49.6086 243.924C50.4942 242.915 51.524 242.029 52.3547 240.958C52.9841 240.214 53.3401 239.276 53.3639 238.301C53.3101 237.702 53.1399 237.119 52.8627 236.585C52.2155 235.466 51.6621 234.295 51.2082 233.084C50.8443 231.848 50.9816 230.338 51.9702 229.514C52.4104 229.22 52.9048 229.016 53.4246 228.914C53.9444 228.813 54.4792 228.816 54.9978 228.924C55.9848 229.088 56.9228 229.471 57.7438 230.043C60.4281 231.718 61.8629 235.061 64.7051 236.386C65.8466 236.81 67.0137 237.16 68.1995 237.436C68.7943 237.576 69.3529 237.84 69.8391 238.21C70.3252 238.581 70.7279 239.049 71.0211 239.585C71.9891 241.782 69.8608 244.329 70.5062 246.643C71.0691 248.702 72.9914 249.56 74.0005 251.448C74.4059 252.274 74.5382 253.206 74.3781 254.112C74.2097 255.652 73.7557 257.146 73.0394 258.519C72.2415 259.929 71.3588 261.288 70.3963 262.59C70.3963 262.59 57.2907 270.135 57.1672 270.197Z" fill="white"/>
</g>
<path d="M64.76 266.243C64.7142 266.239 64.6696 266.227 64.6288 266.206C64.588 266.185 64.5518 266.156 64.5223 266.121C64.4929 266.085 64.4708 266.045 64.4574 266.001C64.444 265.957 64.4395 265.911 64.4442 265.865C65.6937 252.258 60.0299 236.88 55.5813 232.267C55.5491 232.235 55.5236 232.197 55.5061 232.155C55.4887 232.113 55.4797 232.069 55.4797 232.023C55.4797 231.978 55.4887 231.933 55.5061 231.891C55.5236 231.849 55.5491 231.811 55.5813 231.78C55.6466 231.716 55.734 231.681 55.825 231.681C55.916 231.681 56.0034 231.716 56.0687 231.78C60.6066 236.482 66.3665 252.121 65.117 265.92C65.1117 266.01 65.0713 266.094 65.0045 266.154C64.9377 266.215 64.8499 266.246 64.76 266.243Z" fill="white"/>
<path d="M63.4075 249.457C63.3735 249.464 63.3386 249.464 63.3045 249.457C60.1181 248.42 56.8289 247.729 53.4942 247.398C53.4491 247.394 53.4051 247.382 53.3648 247.362C53.3244 247.341 53.2886 247.313 53.2592 247.278C53.2298 247.244 53.2076 247.204 53.1937 247.161C53.1799 247.118 53.1747 247.072 53.1784 247.027C53.1818 246.982 53.1944 246.937 53.2154 246.897C53.2365 246.856 53.2656 246.821 53.3009 246.792C53.3362 246.763 53.377 246.741 53.4209 246.729C53.4648 246.716 53.5107 246.713 53.556 246.718C56.9537 247.058 60.3035 247.772 63.5448 248.846C63.6298 248.88 63.6985 248.945 63.7368 249.028C63.7751 249.111 63.7801 249.206 63.7508 249.293C63.7169 249.352 63.666 249.399 63.6047 249.428C63.5434 249.458 63.4747 249.468 63.4075 249.457Z" fill="white"/>
<path d="M248.966 9.69149C248.958 9.5634 248.935 9.43671 248.898 9.3139C248.904 9.30118 248.908 9.28705 248.908 9.27271C248.908 9.25837 248.904 9.24424 248.898 9.23152C248.881 9.10666 248.849 8.9844 248.802 8.86767C248.749 8.68251 248.668 8.50656 248.561 8.34592C248.529 8.26707 248.483 8.19491 248.424 8.13309C248.393 8.07713 248.354 8.0262 248.307 7.98206C248.229 7.88282 248.139 7.79298 248.04 7.71432C247.93 7.63629 247.813 7.56959 247.689 7.51523C247.238 7.34586 246.752 7.28922 246.273 7.35023C245.794 7.41124 245.338 7.58806 244.943 7.86535L105.196 88.4967C102.937 89.7943 101.077 92.9797 101.077 97.5382V226.281C101.076 226.775 101.206 227.261 101.453 227.689C101.7 228.117 102.056 228.472 102.484 228.719C102.912 228.965 103.398 229.094 103.893 229.093C104.387 229.092 104.872 228.96 105.299 228.711L244.895 148.073C246.092 147.297 247.088 146.249 247.804 145.016C248.519 143.783 248.934 142.398 249.014 140.974V10.1995C248.987 10.0279 248.98 9.84939 248.966 9.69149Z" fill="#FAFAFA"/>
<path d="M246.708 7.94775C246.945 7.941 247.18 7.9904 247.394 8.09192C247.46 8.1179 247.523 8.15253 247.58 8.19489H247.621C247.672 8.23536 247.718 8.28142 247.758 8.3322L247.813 8.40771L247.861 8.47637L247.895 8.51756V8.57248L247.943 8.64799C248.012 8.75124 248.063 8.86484 248.094 8.98439C248.108 9.0203 248.12 9.05697 248.129 9.09423V9.14915L248.211 9.41003C248.232 9.48174 248.246 9.55532 248.252 9.62971C248.252 9.77388 248.252 9.93178 248.252 10.0828V140.953C248.172 142.258 247.79 143.527 247.136 144.658C246.482 145.79 245.574 146.755 244.483 147.475L104.915 228.141C104.589 228.337 104.216 228.439 103.837 228.436C103.266 228.434 102.718 228.207 102.314 227.803C101.911 227.399 101.683 226.852 101.681 226.281V97.5382C101.681 92.8973 103.631 90.1169 105.45 89.0666L245.218 8.40771C245.667 8.12841 246.18 7.96995 246.708 7.94775ZM246.708 7.26123C246.065 7.28415 245.44 7.47595 244.895 7.81731L105.196 88.4967C102.937 89.7943 101.077 92.9797 101.077 97.5382V226.281C101.077 226.65 101.15 227.016 101.291 227.358C101.433 227.699 101.64 228.01 101.901 228.271C102.163 228.532 102.473 228.74 102.814 228.881C103.156 229.023 103.522 229.095 103.892 229.095C104.375 229.09 104.849 228.958 105.265 228.711L244.895 148.073C246.092 147.297 247.088 146.249 247.804 145.016C248.519 143.783 248.934 142.398 249.014 140.974V10.1995C249.014 10.0279 249.014 9.8494 249.014 9.6915C249.006 9.56342 248.983 9.43672 248.946 9.31392C248.952 9.30119 248.956 9.28707 248.956 9.27272C248.956 9.25838 248.952 9.24425 248.946 9.23153C248.929 9.10667 248.897 8.98441 248.85 8.86768C248.797 8.68252 248.716 8.50657 248.609 8.34593C248.577 8.26709 248.531 8.19492 248.472 8.13311C248.441 8.07714 248.402 8.02621 248.355 7.98207C248.277 7.88283 248.187 7.79299 248.088 7.71433C247.978 7.6363 247.861 7.5696 247.737 7.51524C247.444 7.37541 247.122 7.30494 246.797 7.30929L246.708 7.26123Z" fill="#E0E0E0"/>
<path d="M141.472 85.9291L234.673 32.113V36.4381L141.472 90.2473C140.593 90.7553 139.879 90.3365 139.879 89.3273V88.6889C139.907 88.1355 140.065 87.5967 140.342 87.1169C140.619 86.637 141.006 86.2299 141.472 85.9291Z" fill="#E0E0E0"/>
<path d="M242.156 27.7949L236.513 31.049V35.374L242.156 32.1131C242.618 31.812 243.003 31.4066 243.279 30.9297C243.556 30.4527 243.717 29.9175 243.749 29.367V28.7285C243.749 27.6988 243.035 27.2869 242.156 27.7949Z" fill="#E0E0E0"/>
<path d="M239.41 32.6005C239.298 32.602 239.189 32.571 239.094 32.5113C238.956 32.4118 238.846 32.2775 238.776 32.122C238.706 31.9665 238.679 31.7953 238.696 31.6257C238.702 31.2539 238.795 30.8886 238.968 30.5594C239.14 30.2303 239.388 29.9464 239.691 29.7309C239.804 29.6553 239.934 29.611 240.069 29.6026C240.205 29.5941 240.34 29.6218 240.46 29.6829C240.598 29.7833 240.707 29.9177 240.777 30.073C240.846 30.2282 240.875 30.399 240.859 30.5685C240.855 30.9406 240.762 31.3064 240.589 31.6359C240.416 31.9653 240.167 32.2489 239.863 32.4632C239.727 32.5475 239.57 32.5948 239.41 32.6005ZM240.138 29.9369C240.041 29.9422 239.947 29.9704 239.863 30.0192C239.61 30.2055 239.403 30.447 239.258 30.7254C239.113 31.0039 239.033 31.3118 239.026 31.6257C239.013 31.7367 239.028 31.8492 239.068 31.9533C239.109 32.0573 239.174 32.1499 239.259 32.223C239.329 32.2546 239.406 32.2668 239.482 32.2584C239.558 32.2499 239.63 32.2211 239.691 32.1749C239.944 31.9887 240.151 31.7472 240.296 31.4687C240.442 31.1903 240.521 30.8824 240.529 30.5685C240.542 30.4574 240.527 30.345 240.486 30.2409C240.446 30.1368 240.38 30.0442 240.296 29.9712C240.247 29.9462 240.192 29.9344 240.138 29.9369Z" fill="#FAFAFA"/>
<path d="M241.161 32.3122C241.127 32.3209 241.091 32.3209 241.058 32.3122L240.323 31.7561C240.294 31.7244 240.277 31.6827 240.277 31.6394C240.277 31.5961 240.294 31.5545 240.323 31.5227C240.335 31.5051 240.351 31.4902 240.369 31.4789C240.388 31.4676 240.408 31.4601 240.429 31.4569C240.45 31.4536 240.472 31.4548 240.493 31.4602C240.513 31.4656 240.533 31.4752 240.55 31.4884L241.291 32.0445C241.321 32.0762 241.337 32.1179 241.337 32.1612C241.337 32.2045 241.321 32.2461 241.291 32.2779C241.274 32.2933 241.253 32.3045 241.23 32.3104C241.207 32.3164 241.184 32.317 241.161 32.3122Z" fill="#FAFAFA"/>
<path d="M105.196 88.4967C102.937 89.7942 101.077 92.9796 101.077 97.5381V226.281C101.076 226.775 101.206 227.261 101.453 227.689C101.7 228.117 102.056 228.472 102.484 228.719C102.912 228.965 103.398 229.094 103.893 229.093C104.387 229.092 104.872 228.96 105.299 228.711L136.336 210.793V83.0046L136.384 70.4962L105.196 88.4967Z" fill="#F0F0F0"/>
<path d="M135.705 71.6427L135.65 83.0046V210.415L104.976 228.141C104.651 228.337 104.278 228.439 103.899 228.436C103.327 228.434 102.78 228.207 102.376 227.803C101.972 227.399 101.745 226.852 101.743 226.281V97.5381C101.743 92.8973 103.693 90.1169 105.512 89.0665L135.719 71.6427H135.705ZM136.405 70.4962L105.23 88.4967C102.972 89.7942 101.111 92.9796 101.111 97.5381V226.281C101.111 226.65 101.184 227.016 101.326 227.358C101.467 227.699 101.674 228.01 101.936 228.271C102.197 228.532 102.507 228.74 102.849 228.881C103.19 229.023 103.556 229.095 103.926 229.095C104.41 229.09 104.883 228.958 105.299 228.711L136.336 210.793V83.0046L136.385 70.4962H136.405Z" fill="#E0E0E0"/>
<path d="M113.427 103.731L129.808 94.2772C130.384 93.9477 130.851 94.2154 130.851 94.8813V96.2544C130.832 96.6163 130.727 96.9684 130.546 97.2822C130.364 97.596 130.111 97.8625 129.808 98.0599L113.427 107.5C112.851 107.829 112.384 107.561 112.384 106.895V105.522C112.405 105.163 112.511 104.813 112.692 104.502C112.873 104.191 113.125 103.927 113.427 103.731Z" fill="#E0E0E0"/>
<path d="M109.123 107.424V108.797C109.103 109.159 108.998 109.511 108.817 109.824C108.636 110.138 108.383 110.405 108.079 110.603L107.661 110.857C107.084 111.193 106.617 110.918 106.617 110.252V108.879C106.637 108.517 106.742 108.164 106.923 107.849C107.104 107.534 107.357 107.266 107.661 107.067L108.079 106.813C108.656 106.483 109.123 106.758 109.123 107.424Z" fill="#EA3E3E"/>
<path d="M113.427 111.241L129.808 101.788C130.384 101.458 130.851 101.726 130.851 102.392V103.765C130.832 104.127 130.727 104.479 130.546 104.793C130.364 105.106 130.111 105.373 129.808 105.57L113.427 115.024C112.851 115.353 112.384 115.086 112.384 114.42V113.047C112.403 112.685 112.508 112.333 112.689 112.019C112.87 111.705 113.123 111.438 113.427 111.241Z" fill="#E0E0E0"/>
<path d="M109.123 114.934V116.307C109.104 116.669 108.999 117.022 108.818 117.335C108.636 117.649 108.383 117.916 108.079 118.113L107.661 118.367C107.084 118.703 106.617 118.436 106.617 117.77V116.397C106.637 116.034 106.742 115.681 106.923 115.366C107.104 115.051 107.357 114.784 107.661 114.584L108.079 114.33C108.656 113.994 109.123 114.268 109.123 114.934Z" fill="#EA3E3E"/>
<path d="M113.427 118.752L129.808 109.298C130.384 108.969 130.851 109.236 130.851 109.902V111.275C130.832 111.637 130.727 111.989 130.546 112.303C130.364 112.617 130.111 112.883 129.808 113.081L113.427 122.534C112.851 122.864 112.384 122.596 112.384 121.93V120.557C112.403 120.195 112.508 119.843 112.689 119.529C112.87 119.215 113.123 118.949 113.427 118.752Z" fill="#E0E0E0"/>
<path d="M109.123 122.445V123.818C109.104 124.18 108.999 124.532 108.818 124.846C108.636 125.16 108.383 125.426 108.079 125.624L107.661 125.878C107.084 126.214 106.617 125.946 106.617 125.28V123.907C106.637 123.545 106.742 123.192 106.923 122.877C107.104 122.562 107.357 122.294 107.661 122.095L108.079 121.841C108.656 121.511 109.123 121.779 109.123 122.445Z" fill="#EA3E3E"/>
<path d="M113.427 143.658L129.808 134.205C130.384 133.875 130.851 134.143 130.851 134.809V136.182C130.832 136.544 130.727 136.896 130.546 137.21C130.364 137.524 130.111 137.79 129.808 137.988L113.427 147.441C112.851 147.771 112.384 147.503 112.384 146.837V145.464C112.403 145.102 112.508 144.75 112.689 144.436C112.87 144.122 113.123 143.856 113.427 143.658Z" fill="#E0E0E0"/>
<path d="M109.123 147.386V148.759C109.104 149.121 108.999 149.473 108.818 149.787C108.636 150.101 108.383 150.367 108.079 150.565L107.661 150.819C107.084 151.155 106.617 150.887 106.617 150.221V148.848C106.637 148.486 106.742 148.133 106.923 147.818C107.104 147.503 107.357 147.235 107.661 147.036L108.079 146.782C108.656 146.418 109.123 146.7 109.123 147.386Z" fill="#EA3E3E"/>
<path d="M113.427 150.311L129.808 140.857C130.384 140.528 130.851 140.795 130.851 141.461V142.834C130.832 143.196 130.727 143.549 130.546 143.862C130.364 144.176 130.111 144.443 129.808 144.64L113.427 154.093C112.851 154.423 112.384 154.155 112.384 153.489V152.116C112.403 151.754 112.508 151.402 112.689 151.088C112.87 150.775 113.123 150.508 113.427 150.311Z" fill="#E0E0E0"/>
<path d="M109.123 154.004V155.377C109.104 155.739 108.999 156.091 108.818 156.405C108.636 156.719 108.383 156.985 108.079 157.183L107.661 157.437C107.084 157.773 106.617 157.505 106.617 156.839V155.466C106.637 155.104 106.742 154.751 106.923 154.436C107.104 154.121 107.357 153.853 107.661 153.654L108.079 153.4C108.656 153.07 109.123 153.338 109.123 154.004Z" fill="#EA3E3E"/>
<path d="M113.427 156.997L129.808 147.544C130.384 147.214 130.851 147.482 130.851 148.148V149.521C130.832 149.883 130.727 150.235 130.546 150.549C130.364 150.863 130.111 151.129 129.808 151.327L113.427 160.78C112.851 161.11 112.384 160.842 112.384 160.176V158.803C112.403 158.441 112.508 158.089 112.689 157.775C112.87 157.461 113.123 157.195 113.427 156.997Z" fill="#E0E0E0"/>
<path d="M109.123 160.656V162.03C109.104 162.391 108.999 162.744 108.818 163.057C108.636 163.371 108.383 163.638 108.079 163.835L107.661 164.089C107.084 164.425 106.617 164.158 106.617 163.492V162.119C106.637 161.756 106.742 161.403 106.923 161.088C107.104 160.774 107.357 160.506 107.661 160.306L108.079 160.052C108.656 159.743 109.123 159.991 109.123 160.656Z" fill="#EA3E3E"/>
<path d="M113.146 126.523V128.871L115.178 126.523H113.146Z" fill="#EA3E3E"/>
<path d="M116.427 126.042C116.427 126.475 116.736 126.653 117.114 126.427L130.158 118.916C130.359 118.784 130.525 118.606 130.645 118.398C130.764 118.189 130.832 117.955 130.844 117.715C130.844 117.275 130.535 117.097 130.158 117.317L117.114 124.868C116.916 124.997 116.751 125.17 116.632 125.374C116.513 125.578 116.443 125.807 116.427 126.042Z" fill="#E0E0E0"/>
<path d="M113.146 130.292V132.64L115.178 130.292H113.146Z" fill="#EA3E3E"/>
<path d="M116.427 129.811C116.427 130.244 116.736 130.415 117.114 130.196L130.158 122.672C130.359 122.539 130.525 122.362 130.645 122.153C130.764 121.944 130.832 121.71 130.844 121.47C130.844 121.031 130.535 120.852 130.158 121.072L117.114 128.624C116.914 128.754 116.748 128.929 116.629 129.135C116.51 129.342 116.441 129.573 116.427 129.811Z" fill="#E0E0E0"/>
<path d="M113.146 134.061V136.402L115.178 134.061H113.146Z" fill="#EA3E3E"/>
<path d="M116.427 133.58C116.427 134.013 116.736 134.184 117.114 133.965L130.158 126.454C130.358 126.321 130.524 126.143 130.643 125.935C130.762 125.726 130.831 125.493 130.844 125.253C130.844 124.813 130.535 124.635 130.158 124.855L117.114 132.406C116.916 132.535 116.751 132.708 116.632 132.912C116.513 133.116 116.443 133.345 116.427 133.58Z" fill="#E0E0E0"/>
<path d="M113.146 137.83V140.171L115.178 137.83H113.146Z" fill="#EA3E3E"/>
<path d="M116.427 137.349C116.427 137.782 116.736 137.953 117.114 137.734L130.158 130.223C130.358 130.09 130.524 129.912 130.643 129.704C130.762 129.495 130.831 129.262 130.844 129.022C130.844 128.582 130.535 128.404 130.158 128.624L117.114 136.175C116.915 136.303 116.75 136.476 116.63 136.68C116.511 136.884 116.442 137.113 116.427 137.349Z" fill="#E0E0E0"/>
<path d="M247.648 7.48773C247.197 7.31835 246.71 7.26172 246.232 7.32273C245.753 7.38374 245.297 7.56056 244.902 7.83785L105.196 88.4967C104 89.2713 103.003 90.3172 102.288 91.5495C101.572 92.7818 101.157 94.1656 101.077 95.5884V103.531L95.8525 100.463V92.6158C95.9309 91.1968 96.3428 89.8163 97.055 88.5865C97.7671 87.3566 98.7593 86.3121 99.951 85.5378L239.664 4.87896C240.831 4.19244 241.881 4.19244 242.637 4.63868C243.392 5.08492 246.776 7.02776 247.648 7.48773Z" fill="#EA3E3E"/>
<path d="M248.98 10.172C248.98 7.59075 247.14 6.54038 244.861 7.84476L105.196 88.4967C103.999 89.2705 103.002 90.3162 102.286 91.5487C101.57 92.7812 101.156 94.1654 101.077 95.5885V103.538L248.98 18.17V10.172Z" fill="#EA3E3E"/>
<g opacity="0.2">
<path opacity="0.2" d="M244.888 7.83785L105.196 88.4967C103.996 89.2511 103.005 90.2944 102.313 91.5311L97.1157 88.5242C97.7901 87.301 98.7662 86.2706 99.951 85.5309L239.664 4.87896C240.09 4.56996 240.592 4.38354 241.116 4.33997C241.64 4.2964 242.166 4.39734 242.637 4.63181C243.371 5.08492 246.756 7.01403 247.635 7.48086C247.182 7.31187 246.696 7.25606 246.217 7.31828C245.738 7.3805 245.282 7.55888 244.888 7.83785Z" fill="white"/>
</g>
<path opacity="0.15" d="M95.8662 100.483V92.6158C95.9183 91.1576 96.3489 89.7381 97.1157 88.4967L102.326 91.4968C101.571 92.7215 101.15 94.1228 101.104 95.561V103.511L95.8662 100.483Z" fill="black"/>
<path d="M232.847 18.5819C231.989 19.0761 231.289 20.5522 231.289 21.8771C231.289 23.2021 231.975 23.868 232.847 23.3737C233.719 22.8795 234.398 21.4034 234.398 20.0785C234.398 18.7535 233.705 18.0876 232.847 18.5819Z" fill="#37474F"/>
<path d="M238.449 15.3415C237.584 15.8358 236.891 17.3118 236.891 18.6368C236.891 19.9618 237.577 20.6277 238.449 20.1334C239.321 19.6391 240.001 18.1631 240.001 16.8381C240.001 15.5131 239.314 14.8472 238.449 15.3415Z" fill="#37474F"/>
<path d="M244.044 12.1011C243.186 12.6023 242.492 14.0714 242.492 15.3964C242.492 16.7214 243.179 17.3873 244.044 16.893C244.909 16.3987 245.602 14.9227 245.602 13.5977C245.602 12.2728 244.909 11.6068 244.044 12.1011Z" fill="#37474F"/>
<path d="M102.354 228.635L98.0425 226.143C97.4673 225.811 96.9753 225.352 96.6041 224.802C96.233 224.251 95.9923 223.622 95.9006 222.965C95.8906 222.768 95.8906 222.571 95.9006 222.374V100.469L101.132 103.531V226.281C101.133 226.428 101.144 226.574 101.166 226.72C101.177 226.799 101.196 226.877 101.221 226.953C101.214 226.987 101.214 227.022 101.221 227.056C101.244 227.143 101.273 227.228 101.31 227.31C101.31 227.322 101.31 227.333 101.31 227.345L101.455 227.647C101.509 227.743 101.578 227.839 101.64 227.928C101.689 227.997 101.741 228.064 101.798 228.127C102.015 228.377 102.276 228.586 102.567 228.745L102.354 228.635Z" fill="#E0E0E0"/>
<path d="M147.609 280.364C146.772 280.384 145.945 280.188 145.206 279.795L115.741 262.79L117.231 261.925L115.123 260.057C115.047 259.989 114.989 259.903 114.953 259.808C114.917 259.712 114.905 259.609 114.917 259.508C114.934 259.398 114.977 259.294 115.042 259.204C115.108 259.114 115.195 259.042 115.295 258.993L128.462 251.387C128.821 251.203 129.238 251.168 129.622 251.29L132.966 252.547C133.06 252.578 133.159 252.591 133.258 252.584C133.357 252.576 133.454 252.55 133.542 252.506L158.442 238.13L158.614 238.233L187.523 254.922C187.805 255.084 188.039 255.318 188.201 255.601C188.362 255.883 188.446 256.203 188.443 256.529C188.446 256.854 188.361 257.174 188.198 257.455C188.035 257.736 187.8 257.969 187.516 258.128L150.005 279.795C149.268 280.185 148.443 280.381 147.609 280.364ZM117.114 262.79L145.536 279.197C146.176 279.515 146.881 279.68 147.595 279.68C148.31 279.68 149.015 279.515 149.655 279.197L187.173 257.531C187.35 257.429 187.497 257.283 187.599 257.106C187.701 256.929 187.755 256.729 187.755 256.525C187.755 256.321 187.701 256.121 187.599 255.944C187.497 255.768 187.35 255.621 187.173 255.519L158.442 238.933L133.899 253.11C133.724 253.204 133.531 253.261 133.333 253.277C133.134 253.294 132.935 253.27 132.746 253.206L129.396 251.949C129.301 251.919 129.202 251.908 129.103 251.916C129.004 251.924 128.907 251.952 128.819 251.998L115.645 259.597L117.759 261.465C117.835 261.533 117.892 261.619 117.928 261.714C117.964 261.81 117.977 261.913 117.965 262.014C117.946 262.123 117.902 262.226 117.837 262.315C117.771 262.405 117.686 262.478 117.588 262.529L117.114 262.79Z" fill="#E0E0E0"/>
<path d="M164.484 280.378C163.646 280.391 162.819 280.19 162.081 279.795L132.595 262.79L134.091 261.925L131.977 260.057C131.901 259.989 131.843 259.903 131.807 259.808C131.771 259.712 131.759 259.609 131.771 259.508C131.79 259.399 131.834 259.296 131.9 259.206C131.965 259.117 132.05 259.044 132.149 258.993L145.323 251.387C145.68 251.203 146.094 251.169 146.476 251.29L149.82 252.547C150.012 252.61 150.221 252.595 150.403 252.506L175.296 238.13L175.475 238.233L197.622 251.05L197.278 251.647L175.31 238.961L150.753 253.11C150.578 253.204 150.385 253.261 150.187 253.277C149.988 253.294 149.789 253.27 149.6 253.206L146.257 251.949C146.063 251.889 145.854 251.906 145.673 251.998L132.506 259.597L134.613 261.471C134.689 261.538 134.747 261.623 134.783 261.717C134.819 261.812 134.831 261.913 134.819 262.014C134.803 262.124 134.76 262.228 134.694 262.318C134.628 262.408 134.542 262.48 134.442 262.529L133.989 262.796L162.424 279.197C163.064 279.515 163.769 279.68 164.484 279.68C165.198 279.68 165.903 279.515 166.543 279.197L197.601 261.259L197.944 261.863L166.886 279.795C166.148 280.19 165.321 280.391 164.484 280.378Z" fill="#EA3E3E"/>
<path d="M205.112 263.407C202.182 263.467 199.286 262.779 196.695 261.41C194.368 260.037 193.105 258.252 193.132 256.309C193.159 254.366 194.45 252.622 196.743 251.297C201.391 248.613 208.956 248.613 213.604 251.297C215.924 252.636 217.194 254.435 217.188 256.357C217.181 258.279 215.89 260.078 213.563 261.41C210.959 262.776 208.052 263.464 205.112 263.407ZM197.045 260.806C201.48 263.366 208.716 263.366 213.219 260.806C215.32 259.604 216.487 258.025 216.494 256.357C216.501 254.689 215.355 253.103 213.261 251.895C208.798 249.32 201.549 249.32 197.086 251.895C195.027 253.096 193.853 254.641 193.825 256.323C193.798 258.005 194.944 259.597 197.045 260.806Z" fill="#EA3E3E"/>
<path d="M208.997 259.288C208.877 259.289 208.759 259.258 208.654 259.199L200.979 254.764C200.9 254.719 200.831 254.659 200.776 254.587C200.721 254.516 200.68 254.434 200.657 254.347C200.633 254.259 200.627 254.168 200.639 254.078C200.65 253.989 200.68 253.902 200.725 253.824C200.77 253.745 200.83 253.676 200.901 253.621C200.973 253.566 201.055 253.525 201.142 253.502C201.23 253.478 201.321 253.472 201.41 253.484C201.5 253.495 201.587 253.525 201.665 253.57L209.347 257.998C209.426 258.043 209.496 258.104 209.551 258.176C209.606 258.249 209.646 258.331 209.669 258.42C209.692 258.508 209.698 258.6 209.685 258.69C209.672 258.78 209.641 258.867 209.594 258.945C209.534 259.05 209.447 259.137 209.342 259.197C209.237 259.257 209.118 259.289 208.997 259.288Z" fill="#EA3E3E"/>
<path d="M201.322 259.288C201.168 259.292 201.017 259.244 200.893 259.152C200.769 259.059 200.681 258.928 200.641 258.779C200.601 258.629 200.613 258.471 200.674 258.329C200.736 258.188 200.843 258.071 200.979 257.998L208.654 253.57C208.732 253.524 208.818 253.494 208.908 253.482C208.997 253.47 209.088 253.475 209.176 253.498C209.263 253.521 209.345 253.561 209.417 253.616C209.489 253.67 209.549 253.739 209.595 253.817C209.641 253.895 209.672 253.982 209.685 254.072C209.698 254.162 209.693 254.254 209.67 254.342C209.647 254.431 209.606 254.513 209.551 254.586C209.496 254.658 209.426 254.719 209.347 254.764L201.665 259.199C201.561 259.258 201.442 259.289 201.322 259.288Z" fill="#EA3E3E"/>
<path d="M103.315 70.7778C104.001 71.2103 107.262 73.0639 108.079 73.4827C107.646 73.3244 107.181 73.2742 106.724 73.3364C106.267 73.3986 105.832 73.5714 105.457 73.8397L50.9542 105.323C49.8239 106.066 48.8848 107.065 48.2132 108.238C47.5416 109.412 47.1565 110.728 47.0891 112.079V174.112C47.0609 175.234 47.4752 176.321 48.2424 177.14C48.3337 177.226 48.43 177.306 48.5308 177.38C45.4209 175.17 42.1668 175.204 42.105 171.277V109.243C42.1811 107.891 42.5735 106.575 43.2508 105.402C43.928 104.228 44.8712 103.23 46.0044 102.488L100.507 71.0044C100.914 70.7239 101.388 70.5554 101.881 70.5156C102.373 70.4758 102.868 70.5663 103.315 70.7778Z" fill="#263238"/>
<path d="M107.194 73.3042C106.576 73.3263 105.976 73.5085 105.45 73.8328L50.9542 105.316C49.8262 106.061 48.8889 107.061 48.2176 108.234C47.5463 109.407 47.1597 110.722 47.0891 112.072V174.105C47.0891 176.069 48.1807 177.744 49.7047 177.744C50.1603 177.731 50.6048 177.601 50.9954 177.366L105.56 145.862C106.684 145.123 107.62 144.131 108.291 142.965C108.962 141.799 109.351 140.491 109.425 139.148L109.349 76.1189C109.349 74.3546 108.471 73.3729 107.194 73.3729V73.3042Z" fill="#37474F"/>
<path d="M105.443 73.8328L50.961 105.316C49.8151 106.034 48.8702 107.031 48.215 108.214L43.2583 105.344C43.9138 104.174 44.8595 103.193 46.0044 102.495L100.507 71.0112C100.912 70.7184 101.39 70.5419 101.889 70.5008C102.387 70.4596 102.887 70.5554 103.335 70.7778C104.022 71.2103 107.276 73.0501 108.093 73.5238C107.66 73.3521 107.192 73.2905 106.729 73.3444C106.267 73.3983 105.825 73.5661 105.443 73.8328Z" fill="#455A64"/>
<path d="M64.5198 109.236V146.308C64.5198 148.004 65.7075 148.691 67.1766 147.846L99.2781 129.31C100.049 128.808 100.692 128.133 101.154 127.337C101.617 126.542 101.887 125.649 101.942 124.731V87.6592C101.942 85.9635 100.754 85.2769 99.285 86.1214L67.1835 104.657C66.412 105.159 65.769 105.834 65.3064 106.63C64.8437 107.425 64.5743 108.318 64.5198 109.236Z" fill="#EA3E3E"/>
<path opacity="0.3" d="M87.1817 102.927C87.1817 101.232 85.9872 100.545 84.518 101.39L64.5198 112.937V146.301C64.5198 147.997 65.7075 148.684 67.1766 147.839L87.1748 136.292L87.1817 102.927Z" fill="black"/>
<path d="M54.5447 126.516V163.588C54.5447 165.284 55.7324 165.97 57.2015 165.126L89.303 146.59C90.0772 146.085 90.7213 145.405 91.183 144.605C91.6447 143.804 91.9108 142.906 91.9598 141.983V104.911C91.9598 103.216 90.7722 102.529 89.303 103.374L57.2015 121.91C56.4281 122.415 55.7845 123.095 55.3229 123.895C54.8614 124.696 54.5947 125.594 54.5447 126.516Z" fill="#EA3E3E"/>
<path opacity="0.3" d="M54.5447 126.516V163.588C54.5447 165.284 55.7324 165.97 57.2015 165.126L89.303 146.59C90.0772 146.085 90.7213 145.405 91.183 144.605C91.6447 143.804 91.9108 142.906 91.9598 141.983V104.911C91.9598 103.216 90.7722 102.529 89.303 103.374L57.2015 121.91C56.4281 122.415 55.7845 123.095 55.3229 123.895C54.8614 124.696 54.5947 125.594 54.5447 126.516Z" fill="white"/>
<path d="M84.4767 131.301V127.553C84.4767 126.866 84.003 126.598 83.4195 126.942L76.9937 130.649V123.235C76.9937 122.548 76.52 122.28 75.9296 122.617L72.6892 124.491C72.3797 124.692 72.122 124.964 71.9371 125.284C71.7522 125.603 71.6453 125.962 71.6251 126.331V133.745L65.2062 137.452C64.8962 137.653 64.6383 137.925 64.4533 138.245C64.2684 138.564 64.1617 138.923 64.1421 139.292V143.041C64.1421 143.727 64.6158 143.988 65.2062 143.652L71.6251 139.944V147.386C71.6251 148.073 72.1057 148.34 72.6892 147.997L75.9296 146.13C76.2397 145.927 76.4976 145.655 76.6825 145.334C76.8674 145.013 76.974 144.653 76.9937 144.283V136.848L83.4195 133.141C83.7266 132.938 83.9821 132.665 84.1657 132.346C84.3492 132.027 84.4557 131.669 84.4767 131.301Z" fill="white"/>
<path d="M127.089 155.357L123.292 153.167V192.284L127.089 194.467L134.442 179.035L144.904 173L127.089 155.357Z" fill="#E0E0E0"/>
<path d="M127.089 194.797C127.029 194.797 126.971 194.783 126.917 194.756L123.128 192.566C123.078 192.537 123.037 192.496 123.008 192.447C122.979 192.398 122.964 192.342 122.963 192.284V153.153C122.965 153.095 122.98 153.038 123.009 152.988C123.038 152.938 123.079 152.895 123.128 152.865C123.18 152.838 123.238 152.823 123.296 152.823C123.355 152.823 123.412 152.838 123.464 152.865L127.254 155.055L127.316 155.103L145.131 172.787C145.167 172.824 145.195 172.868 145.212 172.917C145.228 172.966 145.233 173.018 145.227 173.069C145.221 173.118 145.204 173.166 145.177 173.208C145.149 173.25 145.112 173.284 145.069 173.309L134.696 179.295L127.412 194.612C127.392 194.652 127.364 194.689 127.33 194.718C127.296 194.748 127.256 194.77 127.213 194.783C127.173 194.798 127.131 194.803 127.089 194.797ZM123.657 192.092L126.966 194.008L134.174 178.904C134.202 178.844 134.247 178.794 134.304 178.76L144.389 172.938L126.883 155.624L123.629 153.743L123.657 192.092Z" fill="#455A64"/>
<path d="M127.089 155.357V194.467L134.442 179.035L144.904 173L127.089 155.357Z" fill="#FAFAFA"/>
<path d="M127.089 194.797H127.013C126.94 194.781 126.873 194.741 126.826 194.682C126.778 194.623 126.752 194.55 126.753 194.474V155.343C126.751 155.277 126.769 155.212 126.805 155.157C126.841 155.101 126.892 155.058 126.953 155.032C127.013 155.006 127.08 154.999 127.145 155.012C127.21 155.024 127.269 155.056 127.315 155.103L145.131 172.787C145.167 172.824 145.195 172.868 145.211 172.917C145.228 172.966 145.233 173.018 145.227 173.069C145.221 173.118 145.204 173.166 145.177 173.208C145.149 173.25 145.112 173.284 145.069 173.309L134.696 179.295L127.412 194.612C127.384 194.672 127.337 194.722 127.28 194.756C127.222 194.789 127.155 194.803 127.089 194.797ZM127.418 156.146V193.005L134.146 178.89C134.174 178.83 134.22 178.78 134.277 178.746L144.362 172.925L127.418 156.146Z" fill="#455A64"/>
<path d="M116.283 153.098L112.494 150.908V190.026L116.283 192.209L123.643 176.776L134.098 170.735L116.283 153.098Z" fill="#263238"/>
<path d="M116.283 153.098V192.209L123.643 176.776L134.098 170.735L116.283 153.098Z" fill="#455A64"/>
<path d="M198.809 162.881C198.756 162.881 198.703 162.866 198.657 162.838C198.611 162.81 198.573 162.771 198.548 162.723C198.508 162.653 198.497 162.569 198.518 162.491C198.538 162.413 198.589 162.346 198.658 162.304L200.251 161.384C200.322 161.343 200.406 161.332 200.486 161.353C200.565 161.375 200.632 161.427 200.673 161.498C200.714 161.569 200.725 161.653 200.704 161.732C200.683 161.811 200.631 161.879 200.56 161.92L198.967 162.84C198.919 162.867 198.865 162.881 198.809 162.881ZM196.599 162.325C196.559 162.326 196.518 162.319 196.481 162.304C196.444 162.289 196.409 162.267 196.381 162.239C196.352 162.211 196.329 162.177 196.313 162.14C196.298 162.103 196.29 162.063 196.29 162.023C196.287 162.007 196.287 161.991 196.29 161.975V160.162C196.29 160.08 196.322 160.002 196.38 159.944C196.438 159.886 196.517 159.853 196.599 159.853C196.681 159.853 196.759 159.886 196.817 159.944C196.875 160.002 196.908 160.08 196.908 160.162V162.009C196.908 162.093 196.874 162.173 196.815 162.232C196.756 162.292 196.676 162.325 196.592 162.325H196.599ZM203.066 160.423C202.997 160.426 202.93 160.405 202.875 160.364C202.819 160.323 202.78 160.265 202.762 160.199C202.745 160.132 202.75 160.062 202.778 159.999C202.806 159.936 202.854 159.885 202.915 159.853L204.507 158.933C204.542 158.913 204.58 158.899 204.62 158.893C204.66 158.887 204.701 158.89 204.74 158.9C204.779 158.91 204.816 158.928 204.848 158.953C204.88 158.977 204.906 159.008 204.926 159.043C204.966 159.114 204.977 159.197 204.957 159.275C204.936 159.353 204.886 159.421 204.816 159.462L203.217 160.382C203.169 160.412 203.115 160.428 203.059 160.43L203.066 160.423ZM207.315 157.972C207.262 157.972 207.209 157.957 207.163 157.93C207.117 157.902 207.079 157.862 207.054 157.814C207.014 157.744 207.003 157.661 207.024 157.583C207.044 157.504 207.095 157.437 207.164 157.396L208.764 156.476C208.799 156.451 208.839 156.434 208.882 156.425C208.924 156.417 208.968 156.417 209.01 156.427C209.052 156.436 209.091 156.455 209.126 156.48C209.161 156.506 209.189 156.539 209.211 156.577C209.232 156.614 209.245 156.656 209.249 156.699C209.253 156.742 209.248 156.785 209.235 156.826C209.221 156.867 209.199 156.905 209.17 156.936C209.141 156.968 209.105 156.994 209.066 157.011L207.473 157.931C207.423 157.96 207.366 157.974 207.308 157.972H207.315ZM196.599 157.402C196.517 157.402 196.438 157.37 196.38 157.312C196.322 157.254 196.29 157.175 196.29 157.094V155.254C196.29 155.172 196.322 155.093 196.38 155.035C196.438 154.977 196.517 154.945 196.599 154.945C196.681 154.945 196.759 154.977 196.817 155.035C196.875 155.093 196.908 155.172 196.908 155.254V157.094C196.908 157.135 196.899 157.175 196.884 157.213C196.868 157.251 196.844 157.286 196.815 157.314C196.785 157.343 196.75 157.366 196.712 157.381C196.674 157.396 196.633 157.403 196.592 157.402H196.599ZM211.572 155.515C211.518 155.514 211.465 155.499 211.419 155.473C211.372 155.447 211.332 155.409 211.304 155.364C211.264 155.292 211.254 155.209 211.276 155.13C211.298 155.052 211.35 154.985 211.421 154.945L213.013 154.025C213.082 153.996 213.159 153.993 213.23 154.017C213.301 154.041 213.361 154.09 213.399 154.154C213.436 154.219 213.449 154.295 213.435 154.368C213.421 154.442 213.381 154.507 213.322 154.553L211.723 155.473C211.675 155.502 211.62 155.516 211.565 155.515H211.572ZM215.828 153.064C215.773 153.065 215.719 153.051 215.672 153.023C215.624 152.995 215.586 152.954 215.56 152.906C215.52 152.836 215.509 152.752 215.53 152.674C215.55 152.596 215.601 152.528 215.67 152.487L217.27 151.567C217.305 151.542 217.345 151.525 217.388 151.517C217.43 151.508 217.473 151.509 217.516 151.518C217.558 151.528 217.597 151.546 217.632 151.572C217.667 151.598 217.695 151.63 217.717 151.668C217.738 151.706 217.751 151.747 217.755 151.79C217.759 151.833 217.754 151.876 217.741 151.917C217.727 151.958 217.705 151.996 217.676 152.028C217.647 152.06 217.611 152.085 217.572 152.103L215.972 153.022C215.926 153.049 215.874 153.063 215.821 153.064H215.828ZM196.606 152.494C196.524 152.494 196.445 152.461 196.387 152.403C196.329 152.345 196.297 152.267 196.297 152.185V150.345C196.297 150.263 196.329 150.185 196.387 150.127C196.445 150.069 196.524 150.036 196.606 150.036C196.688 150.036 196.766 150.069 196.824 150.127C196.882 150.185 196.915 150.263 196.915 150.345V152.192C196.914 152.233 196.905 152.274 196.888 152.311C196.871 152.349 196.847 152.383 196.817 152.411C196.787 152.439 196.751 152.461 196.713 152.475C196.674 152.489 196.633 152.496 196.592 152.494H196.606ZM220.084 150.606C220.019 150.603 219.956 150.579 219.905 150.538C219.853 150.497 219.817 150.44 219.8 150.376C219.783 150.313 219.787 150.246 219.811 150.184C219.835 150.123 219.878 150.071 219.933 150.036L221.526 149.116C221.561 149.095 221.6 149.081 221.641 149.076C221.681 149.07 221.722 149.072 221.762 149.082C221.802 149.092 221.839 149.11 221.871 149.135C221.904 149.16 221.931 149.191 221.952 149.226C221.991 149.297 222.001 149.381 221.98 149.459C221.958 149.538 221.906 149.604 221.835 149.645L220.242 150.565C220.196 150.591 220.144 150.605 220.091 150.606H220.084ZM224.341 148.155C224.286 148.154 224.233 148.139 224.186 148.111C224.139 148.084 224.1 148.044 224.073 147.997C224.033 147.926 224.024 147.842 224.045 147.764C224.067 147.685 224.119 147.619 224.19 147.578L225.783 146.658C225.854 146.619 225.938 146.609 226.016 146.631C226.094 146.653 226.161 146.704 226.201 146.775C226.242 146.845 226.253 146.929 226.232 147.007C226.212 147.085 226.161 147.152 226.091 147.194L224.492 148.114C224.442 148.143 224.385 148.158 224.327 148.155H224.341ZM196.606 147.578C196.524 147.578 196.445 147.546 196.387 147.488C196.329 147.43 196.297 147.351 196.297 147.269V145.43C196.297 145.389 196.305 145.349 196.32 145.311C196.336 145.274 196.358 145.24 196.387 145.211C196.416 145.182 196.45 145.16 196.487 145.144C196.525 145.129 196.565 145.121 196.606 145.121C196.646 145.121 196.686 145.129 196.724 145.144C196.761 145.16 196.795 145.182 196.824 145.211C196.853 145.24 196.876 145.274 196.891 145.311C196.907 145.349 196.915 145.389 196.915 145.43V147.269C196.915 147.311 196.906 147.353 196.89 147.391C196.873 147.429 196.849 147.464 196.819 147.493C196.789 147.522 196.753 147.544 196.714 147.559C196.675 147.574 196.634 147.58 196.592 147.578H196.606ZM228.597 145.697C228.543 145.698 228.49 145.685 228.443 145.658C228.396 145.632 228.357 145.593 228.33 145.546C228.289 145.476 228.278 145.393 228.299 145.314C228.319 145.236 228.37 145.169 228.439 145.128L230.039 144.208C230.073 144.186 230.112 144.171 230.152 144.165C230.192 144.159 230.233 144.161 230.272 144.171C230.312 144.181 230.348 144.2 230.38 144.225C230.412 144.25 230.439 144.282 230.458 144.317C230.497 144.389 230.507 144.472 230.486 144.551C230.464 144.629 230.412 144.696 230.341 144.736L228.748 145.656C228.698 145.685 228.641 145.699 228.584 145.697H228.597ZM232.847 143.247C232.793 143.246 232.74 143.232 232.694 143.204C232.648 143.176 232.611 143.136 232.586 143.089C232.565 143.054 232.551 143.016 232.546 142.976C232.54 142.936 232.542 142.895 232.552 142.856C232.563 142.817 232.581 142.78 232.605 142.748C232.63 142.716 232.661 142.69 232.696 142.67L234.289 141.75C234.36 141.709 234.444 141.698 234.523 141.719C234.602 141.74 234.67 141.792 234.711 141.863C234.752 141.934 234.763 142.019 234.742 142.098C234.72 142.177 234.668 142.244 234.597 142.285L233.005 143.205C232.955 143.242 232.895 143.264 232.833 143.267L232.847 143.247ZM196.606 142.67C196.524 142.67 196.445 142.637 196.387 142.579C196.329 142.521 196.297 142.443 196.297 142.361V140.521C196.297 140.439 196.329 140.361 196.387 140.303C196.445 140.245 196.524 140.212 196.606 140.212C196.688 140.212 196.766 140.245 196.824 140.303C196.882 140.361 196.915 140.439 196.915 140.521V142.361C196.915 142.403 196.906 142.444 196.89 142.482C196.873 142.521 196.849 142.555 196.819 142.584C196.789 142.613 196.753 142.636 196.714 142.65C196.675 142.665 196.634 142.672 196.592 142.67H196.606ZM236.726 140.356C236.678 140.369 236.629 140.369 236.581 140.356C236.546 140.338 236.514 140.313 236.488 140.282C236.461 140.252 236.442 140.216 236.43 140.178C236.417 140.139 236.413 140.099 236.417 140.059C236.42 140.019 236.432 139.98 236.451 139.944C236.661 139.553 236.779 139.118 236.794 138.674V138.304C236.805 138.23 236.842 138.164 236.898 138.115C236.954 138.067 237.026 138.041 237.1 138.041C237.174 138.041 237.245 138.067 237.301 138.115C237.357 138.164 237.394 138.23 237.405 138.304V138.674C237.393 139.217 237.251 139.748 236.993 140.226C236.963 140.272 236.921 140.308 236.871 140.331C236.821 140.354 236.766 140.363 236.712 140.356H236.726ZM196.592 137.775C196.511 137.775 196.434 137.743 196.376 137.687C196.318 137.63 196.285 137.554 196.283 137.473V135.626C196.283 135.544 196.316 135.466 196.373 135.408C196.431 135.35 196.51 135.317 196.592 135.317C196.674 135.317 196.752 135.35 196.81 135.408C196.868 135.466 196.901 135.544 196.901 135.626V137.473C196.899 137.554 196.866 137.63 196.808 137.687C196.75 137.743 196.673 137.775 196.592 137.775ZM237.096 135.53C237.014 135.53 236.936 135.498 236.878 135.44C236.82 135.382 236.787 135.303 236.787 135.221V133.381C236.781 133.337 236.784 133.292 236.796 133.25C236.808 133.207 236.83 133.167 236.859 133.134C236.888 133.1 236.924 133.073 236.964 133.055C237.005 133.036 237.048 133.026 237.093 133.026C237.137 133.026 237.181 133.036 237.222 133.055C237.262 133.073 237.298 133.1 237.327 133.134C237.356 133.167 237.377 133.207 237.39 133.25C237.402 133.292 237.405 133.337 237.398 133.381V135.221C237.393 135.299 237.358 135.373 237.301 135.426C237.244 135.48 237.168 135.51 237.09 135.509L237.096 135.53ZM196.592 132.866C196.51 132.866 196.431 132.834 196.373 132.776C196.316 132.718 196.283 132.639 196.283 132.557V130.718C196.283 130.636 196.316 130.557 196.373 130.499C196.431 130.441 196.51 130.409 196.592 130.409C196.674 130.409 196.752 130.441 196.81 130.499C196.868 130.557 196.901 130.636 196.901 130.718V132.557C196.896 132.636 196.861 132.709 196.803 132.763C196.746 132.816 196.67 132.846 196.592 132.846V132.866ZM237.096 130.615C237.016 130.615 236.939 130.583 236.883 130.526C236.826 130.469 236.794 130.393 236.794 130.313V128.466C236.805 128.393 236.842 128.326 236.898 128.278C236.954 128.229 237.026 128.203 237.1 128.203C237.174 128.203 237.245 128.229 237.301 128.278C237.357 128.326 237.394 128.393 237.405 128.466V130.313C237.398 130.392 237.361 130.466 237.301 130.518C237.241 130.571 237.162 130.598 237.083 130.594L237.096 130.615ZM196.592 127.958C196.51 127.958 196.431 127.925 196.373 127.867C196.316 127.809 196.283 127.731 196.283 127.649V125.809C196.283 125.727 196.316 125.648 196.373 125.591C196.431 125.533 196.51 125.5 196.592 125.5C196.674 125.5 196.752 125.533 196.81 125.591C196.868 125.648 196.901 125.727 196.901 125.809V127.649C196.896 127.727 196.861 127.801 196.803 127.854C196.746 127.908 196.67 127.937 196.592 127.937V127.958ZM237.096 125.706C237.016 125.704 236.939 125.671 236.882 125.613C236.826 125.555 236.794 125.478 236.794 125.397V123.557C236.788 123.513 236.791 123.468 236.803 123.426C236.815 123.383 236.837 123.343 236.866 123.31C236.895 123.276 236.931 123.249 236.971 123.23C237.011 123.212 237.055 123.202 237.1 123.202C237.144 123.202 237.188 123.212 237.229 123.23C237.269 123.249 237.305 123.276 237.334 123.31C237.363 123.343 237.384 123.383 237.397 123.426C237.409 123.468 237.412 123.513 237.405 123.557V125.397C237.4 125.478 237.363 125.553 237.303 125.607C237.243 125.661 237.163 125.689 237.083 125.685L237.096 125.706ZM196.592 123.042C196.51 123.042 196.431 123.01 196.373 122.952C196.316 122.894 196.283 122.815 196.283 122.733V120.894C196.283 120.812 196.316 120.733 196.373 120.675C196.431 120.617 196.51 120.585 196.592 120.585C196.674 120.585 196.752 120.617 196.81 120.675C196.868 120.733 196.901 120.812 196.901 120.894V122.733C196.896 122.812 196.861 122.885 196.803 122.939C196.746 122.992 196.67 123.022 196.592 123.022V123.042ZM237.096 120.797C237.016 120.796 236.939 120.762 236.882 120.705C236.826 120.647 236.794 120.569 236.794 120.488V118.649C236.788 118.605 236.791 118.56 236.803 118.517C236.815 118.474 236.837 118.435 236.866 118.401C236.895 118.367 236.931 118.34 236.971 118.322C237.011 118.303 237.055 118.294 237.1 118.294C237.144 118.294 237.188 118.303 237.229 118.322C237.269 118.34 237.305 118.367 237.334 118.401C237.363 118.435 237.384 118.474 237.397 118.517C237.409 118.56 237.412 118.605 237.405 118.649V120.488C237.4 120.569 237.363 120.645 237.303 120.699C237.243 120.752 237.163 120.781 237.083 120.777L237.096 120.797ZM196.592 118.134C196.51 118.134 196.431 118.101 196.373 118.043C196.316 117.985 196.283 117.907 196.283 117.825V115.985C196.283 115.903 196.316 115.824 196.373 115.766C196.431 115.709 196.51 115.676 196.592 115.676C196.674 115.676 196.752 115.709 196.81 115.766C196.868 115.824 196.901 115.903 196.901 115.985V117.825C196.896 117.903 196.861 117.976 196.803 118.03C196.746 118.084 196.67 118.113 196.592 118.113V118.134ZM237.096 115.882C237.016 115.882 236.938 115.85 236.88 115.794C236.823 115.737 236.789 115.661 236.787 115.58V113.747C236.787 113.665 236.82 113.586 236.878 113.528C236.936 113.471 237.014 113.438 237.096 113.438C237.178 113.438 237.257 113.471 237.315 113.528C237.373 113.586 237.405 113.665 237.405 113.747V115.594C237.395 115.671 237.356 115.741 237.296 115.791C237.237 115.84 237.16 115.865 237.083 115.861L237.096 115.882ZM196.592 113.218C196.511 113.218 196.434 113.187 196.376 113.13C196.318 113.074 196.285 112.997 196.283 112.916V111.069C196.283 110.988 196.316 110.909 196.373 110.851C196.431 110.793 196.51 110.761 196.592 110.761C196.674 110.761 196.752 110.793 196.81 110.851C196.868 110.909 196.901 110.988 196.901 111.069V112.916C196.894 112.993 196.858 113.065 196.801 113.117C196.744 113.169 196.669 113.198 196.592 113.198V113.218ZM237.096 110.973C237.014 110.973 236.936 110.941 236.878 110.883C236.82 110.825 236.787 110.746 236.787 110.664V108.804C236.787 108.722 236.82 108.643 236.878 108.586C236.936 108.528 237.014 108.495 237.096 108.495C237.178 108.495 237.257 108.528 237.315 108.586C237.373 108.643 237.405 108.722 237.405 108.804V110.644C237.405 110.686 237.397 110.727 237.381 110.765C237.364 110.804 237.34 110.838 237.31 110.867C237.28 110.896 237.244 110.919 237.205 110.933C237.166 110.948 237.124 110.955 237.083 110.953L237.096 110.973ZM196.592 108.31C196.51 108.31 196.431 108.277 196.373 108.219C196.316 108.161 196.283 108.083 196.283 108.001V106.161C196.283 106.079 196.316 106 196.373 105.942C196.431 105.884 196.51 105.852 196.592 105.852C196.674 105.852 196.752 105.884 196.81 105.942C196.868 106 196.901 106.079 196.901 106.161V108.001C196.896 108.079 196.861 108.152 196.803 108.206C196.746 108.26 196.67 108.289 196.592 108.289V108.31ZM237.096 106.065C237.014 106.065 236.936 106.032 236.878 105.974C236.82 105.916 236.787 105.838 236.787 105.756V103.916C236.781 103.872 236.784 103.827 236.796 103.784C236.808 103.742 236.83 103.702 236.859 103.668C236.888 103.635 236.924 103.608 236.964 103.589C237.005 103.571 237.048 103.561 237.093 103.561C237.137 103.561 237.181 103.571 237.222 103.589C237.262 103.608 237.298 103.635 237.327 103.668C237.356 103.702 237.377 103.742 237.39 103.784C237.402 103.827 237.405 103.872 237.398 103.916V105.756C237.393 105.835 237.357 105.91 237.298 105.963C237.24 106.017 237.162 106.046 237.083 106.044L237.096 106.065ZM196.592 103.401C196.51 103.401 196.431 103.369 196.373 103.311C196.316 103.253 196.283 103.174 196.283 103.092V101.252C196.283 101.17 196.316 101.092 196.373 101.034C196.431 100.976 196.51 100.943 196.592 100.943C196.674 100.943 196.752 100.976 196.81 101.034C196.868 101.092 196.901 101.17 196.901 101.252V103.092C196.896 103.17 196.861 103.244 196.803 103.297C196.746 103.351 196.67 103.381 196.592 103.38V103.401ZM237.096 101.149C237.014 101.149 236.936 101.117 236.878 101.059C236.82 101.001 236.787 100.922 236.787 100.84V99.0005C236.781 98.9565 236.784 98.9117 236.796 98.869C236.808 98.8263 236.83 98.7867 236.859 98.753C236.888 98.7193 236.924 98.6923 236.964 98.6738C237.005 98.6552 237.048 98.6456 237.093 98.6456C237.137 98.6456 237.181 98.6552 237.222 98.6738C237.262 98.6923 237.298 98.7193 237.327 98.753C237.356 98.7867 237.377 98.8263 237.39 98.869C237.402 98.9117 237.405 98.9565 237.398 99.0005V100.84C237.393 100.92 237.357 100.994 237.298 101.048C237.24 101.102 237.162 101.131 237.083 101.129L237.096 101.149ZM196.592 98.4856C196.511 98.4856 196.434 98.454 196.376 98.3976C196.318 98.3411 196.285 98.2643 196.283 98.1835V96.3368C196.283 96.2549 196.316 96.1763 196.373 96.1184C196.431 96.0604 196.51 96.0279 196.592 96.0279C196.674 96.0279 196.752 96.0604 196.81 96.1184C196.868 96.1763 196.901 96.2549 196.901 96.3368V98.1835C196.894 98.2606 196.858 98.3323 196.801 98.3844C196.744 98.4366 196.669 98.4653 196.592 98.465V98.4856ZM237.096 96.2407C237.014 96.2407 236.936 96.2082 236.878 96.1502C236.82 96.0923 236.787 96.0137 236.787 95.9318V94.0919C236.781 94.0479 236.784 94.0031 236.796 93.9604C236.808 93.9177 236.83 93.8781 236.859 93.8444C236.888 93.8107 236.924 93.7837 236.964 93.7652C237.005 93.7466 237.048 93.737 237.093 93.737C237.137 93.737 237.181 93.7466 237.222 93.7652C237.262 93.7837 237.298 93.8107 237.327 93.8444C237.356 93.8781 237.377 93.9177 237.39 93.9604C237.402 94.0031 237.405 94.0479 237.398 94.0919V95.8974C237.4 95.9397 237.394 95.982 237.378 96.0215C237.363 96.0611 237.34 96.0971 237.311 96.1273C237.281 96.1576 237.245 96.1815 237.206 96.1974C237.167 96.2134 237.125 96.2211 237.083 96.2201L237.096 96.2407ZM197.313 93.7349C197.246 93.7344 197.181 93.7128 197.127 93.6731C197.062 93.624 197.018 93.5508 197.007 93.4697C196.995 93.3886 197.016 93.3062 197.066 93.2406C197.329 92.8762 197.663 92.5681 198.047 92.3344L198.583 92.0255C198.653 91.9853 198.736 91.9742 198.815 91.9948C198.893 92.0153 198.96 92.0658 199.002 92.1353C199.022 92.1699 199.036 92.2083 199.042 92.2482C199.048 92.2882 199.045 92.3289 199.035 92.3679C199.025 92.4069 199.007 92.4435 198.982 92.4755C198.958 92.5075 198.927 92.5342 198.892 92.5541L198.356 92.863C198.044 93.0546 197.773 93.3067 197.56 93.6045C197.528 93.6423 197.488 93.6719 197.443 93.691C197.397 93.7101 197.348 93.7181 197.299 93.7143L197.313 93.7349ZM237.09 91.3252C237.009 91.3252 236.933 91.2934 236.876 91.2368C236.819 91.1801 236.787 91.1033 236.787 91.0232V89.1765C236.798 89.1033 236.835 89.0365 236.891 88.9883C236.947 88.94 237.019 88.9134 237.093 88.9134C237.167 88.9134 237.238 88.94 237.294 88.9883C237.351 89.0365 237.387 89.1033 237.398 89.1765V91.0232C237.391 91.1027 237.354 91.1764 237.294 91.2289C237.234 91.2813 237.155 91.3085 237.076 91.3046L237.09 91.3252ZM201.391 91.0644C201.336 91.0656 201.282 91.0514 201.234 91.0235C201.187 90.9956 201.148 90.9551 201.123 90.9065C201.083 90.8362 201.072 90.7529 201.092 90.6746C201.113 90.5963 201.163 90.5292 201.233 90.4877L202.832 89.5678C202.903 89.5275 202.986 89.5165 203.064 89.5371C203.142 89.5576 203.21 89.6081 203.251 89.6776C203.292 89.7489 203.303 89.8332 203.282 89.9127C203.262 89.9921 203.211 90.0605 203.141 90.1032L201.555 91.0026C201.503 91.0323 201.444 91.0466 201.384 91.0438L201.391 91.0644ZM205.64 88.6066C205.574 88.6037 205.511 88.5798 205.46 88.5385C205.409 88.4973 205.372 88.4407 205.356 88.3772C205.339 88.3136 205.343 88.2463 205.367 88.1851C205.391 88.1239 205.434 88.072 205.489 88.0368L207.082 87.11C207.153 87.0691 207.237 87.058 207.316 87.0792C207.396 87.1005 207.463 87.1523 207.504 87.2233C207.545 87.2943 207.556 87.3787 207.535 87.4579C207.514 87.537 207.462 87.6045 207.391 87.6455L205.798 88.5655C205.746 88.5869 205.689 88.594 205.633 88.586L205.64 88.6066ZM237.083 86.4167C237.001 86.4167 236.922 86.3841 236.864 86.3262C236.806 86.2682 236.774 86.1897 236.774 86.1077V84.2267C236.774 84.1447 236.806 84.0662 236.864 84.0082C236.922 83.9503 237.001 83.9177 237.083 83.9177C237.165 83.9177 237.243 83.9503 237.301 84.0082C237.359 84.0662 237.392 84.1447 237.392 84.2267V86.0665C237.394 86.1094 237.388 86.1524 237.374 86.1927C237.359 86.2331 237.336 86.27 237.306 86.301C237.277 86.332 237.241 86.3565 237.201 86.3728C237.161 86.3892 237.119 86.3971 237.076 86.3961L237.083 86.4167ZM209.897 86.1489C209.843 86.148 209.79 86.1337 209.744 86.1073C209.697 86.0809 209.657 86.0433 209.629 85.9979C209.589 85.9268 209.579 85.8429 209.601 85.7645C209.623 85.6861 209.675 85.6194 209.746 85.5791L211.338 84.6592C211.373 84.6383 211.411 84.6246 211.451 84.6189C211.491 84.6131 211.532 84.6155 211.571 84.6257C211.61 84.6359 211.646 84.6539 211.678 84.6785C211.71 84.7031 211.737 84.7339 211.757 84.769C211.797 84.8393 211.808 84.9225 211.788 85.0009C211.767 85.0792 211.717 85.1463 211.647 85.1878L210.048 86.1077C209.998 86.1289 209.943 86.136 209.89 86.1283L209.897 86.1489ZM214.153 83.698C214.103 83.6944 214.054 83.678 214.012 83.6503C213.97 83.6227 213.936 83.5848 213.913 83.5401C213.872 83.4699 213.861 83.3866 213.882 83.3083C213.903 83.23 213.953 83.1629 214.023 83.1214L215.615 82.2014C215.687 82.1609 215.771 82.1496 215.85 82.1701C215.93 82.1906 215.998 82.2413 216.041 82.3113C216.061 82.3463 216.075 82.385 216.08 82.4253C216.085 82.4655 216.082 82.5064 216.071 82.5455C216.061 82.5845 216.042 82.621 216.017 82.6527C215.991 82.6845 215.96 82.7108 215.924 82.7301L214.331 83.6569C214.273 83.6822 214.209 83.6894 214.146 83.6774L214.153 83.698ZM237.083 81.5081C237.001 81.5081 236.922 81.4755 236.864 81.4176C236.806 81.3596 236.774 81.2811 236.774 81.1991V79.3593C236.774 79.2773 236.806 79.1987 236.864 79.1408C236.922 79.0829 237.001 79.0503 237.083 79.0503C237.165 79.0503 237.243 79.0829 237.301 79.1408C237.359 79.1987 237.392 79.2773 237.392 79.3593V81.1991C237.385 81.2774 237.348 81.3501 237.289 81.4024C237.231 81.4547 237.154 81.4826 237.076 81.4806L237.083 81.5081ZM218.403 81.2403C218.349 81.2394 218.296 81.2251 218.25 81.1987C218.203 81.1724 218.163 81.1347 218.135 81.0893C218.095 81.0171 218.085 80.9322 218.106 80.8527C218.128 80.7731 218.18 80.7053 218.251 80.6636L219.844 79.7437C219.915 79.7041 219.999 79.6941 220.078 79.7159C220.156 79.7378 220.223 79.7897 220.263 79.8604C220.303 79.9307 220.314 80.0139 220.294 80.0923C220.273 80.1706 220.223 80.2377 220.153 80.2792L218.554 81.1991C218.504 81.2203 218.449 81.2274 218.396 81.2197L218.403 81.2403ZM222.659 78.7826C222.605 78.7837 222.552 78.7702 222.504 78.7437C222.457 78.7171 222.418 78.6784 222.391 78.6316C222.351 78.5613 222.34 78.478 222.36 78.3997C222.381 78.3214 222.431 78.2543 222.501 78.2128L224.101 77.2928C224.135 77.273 224.174 77.2602 224.213 77.2552C224.253 77.2501 224.293 77.2529 224.332 77.2635C224.37 77.274 224.406 77.292 224.438 77.3165C224.47 77.3409 224.496 77.3714 224.516 77.4061C224.536 77.4408 224.549 77.4791 224.554 77.5188C224.559 77.5584 224.556 77.5987 224.545 77.6372C224.535 77.6758 224.517 77.7119 224.492 77.7435C224.468 77.7752 224.437 77.8016 224.403 77.8215L222.837 78.7345C222.777 78.7531 222.712 78.7531 222.652 78.7345L222.659 78.7826ZM237.076 76.5926C236.995 76.5926 236.917 76.561 236.86 76.5046C236.802 76.4481 236.769 76.3713 236.767 76.2905V74.4438C236.767 74.3619 236.799 74.2833 236.857 74.2254C236.915 74.1674 236.994 74.1349 237.076 74.1349C237.158 74.1349 237.236 74.1674 237.294 74.2254C237.352 74.2833 237.385 74.3619 237.385 74.4438V76.2905C237.378 76.3676 237.342 76.4393 237.285 76.4914C237.228 76.5436 237.153 76.5723 237.076 76.572V76.5926ZM226.902 76.3317C226.847 76.3307 226.794 76.3157 226.747 76.288C226.7 76.2603 226.661 76.221 226.634 76.1738C226.594 76.1027 226.584 76.0188 226.606 75.9404C226.628 75.862 226.68 75.7954 226.751 75.755L228.343 74.8351C228.414 74.7949 228.497 74.7839 228.575 74.8044C228.653 74.8249 228.721 74.8754 228.762 74.945C228.783 74.9795 228.797 75.0179 228.802 75.0579C228.808 75.0978 228.806 75.1385 228.796 75.1775C228.785 75.2166 228.767 75.2532 228.743 75.2851C228.718 75.3171 228.687 75.3438 228.652 75.3637L227.059 76.2905C227.009 76.3099 226.955 76.317 226.902 76.3111V76.3317ZM231.158 73.874C231.104 73.8751 231.051 73.8616 231.003 73.8351C230.956 73.8085 230.917 73.7698 230.89 73.723C230.85 73.6516 230.838 73.5673 230.859 73.4879C230.879 73.4084 230.93 73.3401 231 73.2973L232.6 72.3774C232.635 72.3526 232.675 72.3354 232.717 72.327C232.76 72.3186 232.803 72.3192 232.845 72.3287C232.888 72.3382 232.927 72.3564 232.962 72.3822C232.996 72.4079 233.025 72.4407 233.047 72.4783C233.068 72.5158 233.081 72.5575 233.085 72.6004C233.089 72.6434 233.084 72.6867 233.071 72.7277C233.057 72.7686 233.035 72.8063 233.006 72.8382C232.977 72.8701 232.941 72.8955 232.902 72.9129L231.309 73.8328C231.261 73.8519 231.209 73.859 231.158 73.8534V73.874ZM236.966 71.6977C236.905 71.6977 236.846 71.6794 236.795 71.6451C236.745 71.6108 236.707 71.5622 236.684 71.5055C236.52 71.1142 236.108 71.0593 235.634 71.3339L235.565 71.3751C235.53 71.3961 235.491 71.4099 235.451 71.4157C235.41 71.4215 235.369 71.4193 235.33 71.4091C235.29 71.3989 235.253 71.3809 235.22 71.3562C235.188 71.3315 235.16 71.3006 235.14 71.2652C235.119 71.2302 235.106 71.1915 235.101 71.1513C235.095 71.111 235.098 71.0701 235.109 71.0311C235.12 70.992 235.139 70.9555 235.164 70.9238C235.189 70.892 235.221 70.8657 235.257 70.8464L235.325 70.8053C235.475 70.6858 235.65 70.6022 235.837 70.5608C236.024 70.5194 236.218 70.5213 236.404 70.5664C236.59 70.6114 236.764 70.6984 236.911 70.8207C237.058 70.9431 237.176 71.0974 237.254 71.2721C237.284 71.3477 237.282 71.4318 237.25 71.5063C237.218 71.5808 237.158 71.6397 237.083 71.6703C237.045 71.6827 237.005 71.6851 236.966 71.6771V71.6977Z" fill="#EA3E3E"/>
<path d="M196.592 112.278C196.539 112.278 196.487 112.264 196.441 112.237L194.841 111.317C194.772 111.275 194.721 111.208 194.701 111.13C194.68 111.051 194.691 110.968 194.731 110.898C194.772 110.827 194.838 110.775 194.917 110.753C194.995 110.732 195.079 110.742 195.15 110.781L196.75 111.687C196.821 111.729 196.873 111.797 196.895 111.876C196.917 111.956 196.907 112.041 196.867 112.113C196.841 112.163 196.801 112.206 196.753 112.235C196.704 112.264 196.649 112.279 196.592 112.278ZM192.336 109.82C192.283 109.819 192.231 109.805 192.185 109.779L190.571 108.859C190.509 108.815 190.465 108.749 190.448 108.674C190.431 108.6 190.442 108.521 190.48 108.454C190.518 108.388 190.579 108.337 190.651 108.313C190.724 108.289 190.803 108.293 190.873 108.323L192.473 109.25C192.542 109.292 192.593 109.359 192.613 109.437C192.634 109.515 192.623 109.599 192.583 109.669C192.557 109.713 192.522 109.75 192.478 109.776C192.435 109.802 192.386 109.818 192.336 109.82ZM188.086 107.362C188.031 107.363 187.976 107.348 187.928 107.321L186.335 106.401C186.265 106.361 186.213 106.294 186.191 106.216C186.169 106.137 186.179 106.054 186.219 105.982C186.239 105.947 186.267 105.916 186.299 105.891C186.332 105.867 186.369 105.849 186.409 105.839C186.448 105.828 186.489 105.826 186.53 105.832C186.57 105.838 186.609 105.852 186.644 105.873L188.237 106.792C188.293 106.828 188.336 106.88 188.36 106.941C188.384 107.002 188.388 107.069 188.371 107.133C188.354 107.196 188.317 107.253 188.266 107.294C188.215 107.335 188.152 107.359 188.086 107.362ZM183.83 104.905C183.774 104.908 183.719 104.894 183.672 104.863L182.079 103.943C182.044 103.924 182.013 103.897 181.988 103.865C181.964 103.833 181.946 103.796 181.936 103.757C181.925 103.718 181.923 103.678 181.929 103.638C181.935 103.598 181.948 103.559 181.969 103.525C182.011 103.455 182.078 103.405 182.156 103.384C182.234 103.364 182.318 103.375 182.388 103.415L183.981 104.335C184.036 104.37 184.079 104.422 184.103 104.483C184.127 104.544 184.131 104.612 184.114 104.675C184.097 104.739 184.061 104.795 184.01 104.836C183.958 104.878 183.895 104.902 183.83 104.905Z" fill="#EA3E3E"/>
<path d="M236.568 63.4046C240.117 61.3451 242.994 63.0202 242.994 67.1187C242.994 71.2172 240.117 76.2081 236.568 78.254C233.019 80.2998 230.135 78.6453 230.135 74.5468C230.135 70.4483 233.005 65.4573 236.568 63.4046Z" fill="#FAFAFA"/>
<path d="M233.684 79.421C233.052 79.4305 232.428 79.2692 231.879 78.9542C230.581 78.2059 229.867 76.6475 229.867 74.5673C229.867 70.3865 232.813 65.2856 236.431 63.1986C238.229 62.1551 239.939 61.9972 241.236 62.7455C242.534 63.4938 243.255 65.0591 243.255 67.1392C243.255 71.3201 240.309 76.4141 236.691 78.508C235.785 79.0664 234.749 79.3809 233.684 79.421ZM239.431 62.8073C238.458 62.8459 237.511 63.1369 236.685 63.6517C233.211 65.6564 230.382 70.5512 230.382 74.5673C230.382 76.4484 231.007 77.8489 232.133 78.5011C233.259 79.1533 234.79 78.9954 236.424 78.048C239.897 76.0434 242.719 71.1485 242.719 67.1392C242.719 65.2513 242.094 63.8577 240.968 63.2055C240.502 62.9311 239.971 62.7865 239.431 62.7867V62.8073Z" fill="#EA3E3E"/>
<path d="M240.687 69.2057V67.6885C240.687 67.4139 240.495 67.304 240.254 67.4413L237.646 68.9448V65.931C237.646 65.6564 237.453 65.5466 237.22 65.6839L235.881 66.4459C235.755 66.5278 235.651 66.6382 235.575 66.7683C235.5 66.8983 235.457 67.0442 235.449 67.1942V70.2011L232.84 71.7046C232.714 71.7865 232.609 71.897 232.534 72.027C232.459 72.157 232.416 72.303 232.407 72.4529V73.977C232.407 74.2516 232.6 74.3614 232.84 74.2241L235.449 72.7207V75.7276C235.449 76.0022 235.641 76.1189 235.881 75.9816L237.199 75.2196C237.324 75.1365 237.427 75.0256 237.501 74.8957C237.575 74.7658 237.617 74.6205 237.625 74.4713V71.4643L240.234 69.954C240.363 69.8744 240.472 69.765 240.551 69.6348C240.63 69.5047 240.676 69.3575 240.687 69.2057Z" fill="#EA3E3E"/>
<path d="M238.991 86.7393V134.342C238.972 134.697 238.87 135.043 238.692 135.351C238.515 135.659 238.266 135.92 237.968 136.114L203.56 155.981C203.458 156.059 203.337 156.106 203.209 156.118C203.082 156.131 202.954 156.107 202.839 156.05L200.917 154.945C200.807 154.871 200.72 154.767 200.668 154.645C200.615 154.523 200.599 154.389 200.622 154.258V96.783C200.639 96.4286 200.741 96.0834 200.917 95.7756C201.094 95.4678 201.341 95.2061 201.638 95.0118L227.478 80.1075L238.991 86.7393Z" fill="#F0F0F0"/>
<path d="M204.459 97.8197L200.869 95.8425C200.71 96.1314 200.62 96.4535 200.608 96.7831V154.251C200.586 154.382 200.602 154.516 200.654 154.638C200.706 154.76 200.793 154.864 200.903 154.938L202.825 156.043C202.94 156.1 203.068 156.124 203.196 156.112C203.323 156.099 203.444 156.052 203.546 155.975L204.446 155.46L204.459 97.8197Z" fill="#E0E0E0"/>
<path d="M238.991 86.7393V134.342C238.971 134.697 238.868 135.042 238.69 135.35C238.513 135.657 238.265 135.919 237.968 136.114L203.56 155.981C202.997 156.304 202.537 156.043 202.537 155.391V97.8952C202.556 97.5403 202.659 97.1949 202.837 96.8871C203.014 96.5794 203.262 96.3179 203.56 96.124L223.641 84.5218L229.401 81.1991L238.991 86.7393Z" fill="#FAFAFA"/>
<path d="M229.401 81.7826L238.483 87.0345V134.342C238.465 134.608 238.386 134.866 238.253 135.097C238.12 135.328 237.935 135.525 237.714 135.674L203.306 155.542C203.244 155.58 203.173 155.604 203.1 155.611C203.1 155.611 203.052 155.535 203.052 155.391V97.8952C203.07 97.63 203.148 97.3724 203.28 97.1417C203.412 96.911 203.595 96.7133 203.814 96.5633L223.895 84.9612L229.387 81.7826H229.401ZM229.387 81.1991L223.627 84.5218L203.546 96.124C203.249 96.3179 203.001 96.5794 202.823 96.8871C202.645 97.1949 202.543 97.5403 202.523 97.8952V155.363C202.523 155.823 202.757 156.091 203.093 156.091C203.254 156.087 203.41 156.039 203.546 155.954L237.941 136.086C238.238 135.891 238.485 135.63 238.663 135.322C238.84 135.014 238.944 134.67 238.964 134.315V86.7393L229.352 81.1991H229.387Z" fill="#E0E0E0"/>
<path d="M233.959 87.1169C234.33 87.1169 234.59 87.4121 234.59 87.927V128.431C234.569 128.825 234.455 129.207 234.258 129.548C234.061 129.889 233.787 130.179 233.458 130.395L208.057 145.045C207.905 145.144 207.729 145.199 207.549 145.203C207.178 145.203 206.924 144.908 206.924 144.393V103.888C206.946 103.495 207.059 103.113 207.256 102.772C207.453 102.431 207.727 102.141 208.057 101.925L225.22 92.0186L233.458 87.2748C233.609 87.1815 233.782 87.1295 233.959 87.1237V87.1169ZM233.959 86.65C233.697 86.6574 233.441 86.7331 233.217 86.8697L224.979 91.6067L207.816 101.52C207.415 101.776 207.081 102.125 206.842 102.537C206.603 102.949 206.466 103.413 206.443 103.888V144.393C206.425 144.55 206.44 144.71 206.486 144.862C206.533 145.013 206.61 145.154 206.713 145.274C206.816 145.395 206.943 145.493 207.085 145.562C207.228 145.631 207.383 145.67 207.542 145.677C207.806 145.67 208.064 145.595 208.29 145.457L233.691 130.807C234.093 130.549 234.427 130.199 234.666 129.786C234.905 129.373 235.041 128.908 235.064 128.431V87.927C235.083 87.7693 235.069 87.6093 235.023 87.4572C234.978 87.3052 234.9 87.1643 234.797 87.0436C234.694 86.9229 234.567 86.825 234.424 86.7561C234.28 86.6871 234.125 86.6487 233.966 86.6432L233.959 86.65Z" fill="#EA3E3E"/>
<path d="M229.4 91.0918V81.1991L239.012 86.7393L230.444 91.6822C229.86 92.0117 229.4 91.7783 229.4 91.0918Z" fill="#E0E0E0"/>
<path d="M212.121 117.255L229.414 107.17C229.793 106.933 230.111 106.61 230.343 106.227C230.574 105.844 230.712 105.412 230.746 104.966C230.746 104.17 230.149 103.868 229.414 104.28L212.114 114.358C211.735 114.596 211.418 114.921 211.187 115.305C210.957 115.689 210.821 116.122 210.789 116.568C210.789 117.379 211.386 117.681 212.121 117.255ZM229.414 110.664L212.114 120.749C211.735 120.988 211.418 121.312 211.187 121.696C210.957 122.08 210.821 122.513 210.789 122.96C210.789 123.749 211.386 124.052 212.121 123.646L229.414 113.562C229.794 113.323 230.113 112.999 230.344 112.615C230.576 112.231 230.713 111.798 230.746 111.351C230.746 110.541 230.149 110.239 229.414 110.664ZM229.414 117.042L212.114 127.127C211.735 127.364 211.417 127.687 211.187 128.07C210.956 128.453 210.82 128.885 210.789 129.331C210.789 130.127 211.386 130.429 212.121 130.017L229.414 119.926C229.794 119.689 230.113 119.367 230.345 118.984C230.576 118.601 230.714 118.168 230.746 117.722C230.746 116.919 230.149 116.617 229.414 117.042Z" fill="#EA3E3E"/>
<path opacity="0.3" d="M212.121 117.255L229.414 107.17C229.793 106.933 230.111 106.61 230.343 106.227C230.574 105.844 230.712 105.412 230.746 104.966C230.746 104.17 230.149 103.868 229.414 104.28L212.114 114.358C211.735 114.596 211.418 114.921 211.187 115.305C210.957 115.689 210.821 116.122 210.789 116.568C210.789 117.379 211.386 117.681 212.121 117.255ZM229.414 110.664L212.114 120.749C211.735 120.988 211.418 121.312 211.187 121.696C210.957 122.08 210.821 122.513 210.789 122.96C210.789 123.749 211.386 124.052 212.121 123.646L229.414 113.562C229.794 113.323 230.113 112.999 230.344 112.615C230.576 112.231 230.713 111.798 230.746 111.351C230.746 110.541 230.149 110.239 229.414 110.664ZM229.414 117.042L212.114 127.127C211.735 127.364 211.417 127.687 211.187 128.07C210.956 128.453 210.82 128.885 210.789 129.331C210.789 130.127 211.386 130.429 212.121 130.017L229.414 119.926C229.794 119.689 230.113 119.367 230.345 118.984C230.576 118.601 230.714 118.168 230.746 117.722C230.746 116.919 230.149 116.617 229.414 117.042Z" fill="white"/>
<path d="M183.239 89.1627V136.738C183.219 137.093 183.116 137.438 182.938 137.746C182.761 138.053 182.513 138.315 182.216 138.51L147.808 158.37C147.704 158.445 147.581 158.491 147.453 158.503C147.326 158.515 147.197 158.493 147.08 158.439L145.165 157.334C145.055 157.26 144.968 157.156 144.916 157.034C144.863 156.912 144.847 156.778 144.87 156.647V99.2064C144.889 98.8523 144.99 98.5075 145.167 98.1999C145.343 97.8922 145.59 97.6303 145.886 97.4352L171.726 82.5172L183.239 89.1627Z" fill="#F0F0F0"/>
<path d="M148.694 100.243L145.124 98.2659C144.96 98.5533 144.868 98.8759 144.856 99.2064V156.682C144.838 156.813 144.857 156.946 144.911 157.067C144.964 157.188 145.05 157.292 145.158 157.368L147.073 158.473C147.189 158.532 147.318 158.556 147.447 158.544C147.576 158.532 147.699 158.484 147.801 158.405L148.694 157.89V100.243Z" fill="#E0E0E0"/>
<path d="M183.239 89.1628V136.738C183.219 137.093 183.116 137.438 182.938 137.746C182.761 138.053 182.513 138.315 182.216 138.51L147.808 158.37C147.245 158.693 146.785 158.432 146.785 157.78V100.319C146.804 99.9638 146.907 99.6184 147.085 99.3106C147.262 99.0029 147.51 98.7414 147.808 98.5474L167.916 86.9728L173.669 83.65L183.239 89.1628Z" fill="#FAFAFA"/>
<path d="M173.642 84.2267L182.731 89.4785V136.759C182.711 137.024 182.632 137.282 182.499 137.513C182.366 137.743 182.182 137.941 181.962 138.091L147.554 157.959C147.489 157.998 147.417 158.022 147.341 158.027C147.302 157.961 147.285 157.884 147.293 157.808V100.319C147.311 100.053 147.39 99.7946 147.523 99.5638C147.657 99.333 147.841 99.1356 148.062 98.9868L168.143 87.3847L173.635 84.2061L173.642 84.2267ZM173.635 83.6226L167.916 86.9728L147.835 98.5749C147.538 98.7688 147.29 99.0303 147.112 99.3381C146.934 99.6458 146.832 99.9912 146.812 100.346V157.814C146.812 158.274 147.046 158.542 147.382 158.542C147.543 158.538 147.699 158.49 147.835 158.405L182.244 138.537C182.541 138.342 182.788 138.081 182.966 137.773C183.143 137.465 183.246 137.12 183.267 136.766V89.1902L173.655 83.65L173.635 83.6226Z" fill="#E0E0E0"/>
<path d="M178.214 89.5403C178.584 89.5403 178.839 89.8355 178.839 90.3504V130.855C178.817 131.248 178.703 131.631 178.506 131.972C178.309 132.313 178.035 132.603 177.706 132.818L152.305 147.469C152.153 147.566 151.977 147.621 151.797 147.627C151.426 147.627 151.172 147.331 151.172 146.816V106.312C151.194 105.919 151.308 105.536 151.504 105.195C151.701 104.854 151.975 104.564 152.305 104.349L169.468 94.4421L177.706 89.6982C177.86 89.6059 178.034 89.5539 178.214 89.5472V89.5403ZM178.214 89.0735C177.952 89.0799 177.696 89.1557 177.472 89.2932L169.234 94.0302L152.071 103.943C151.67 104.2 151.336 104.549 151.097 104.961C150.858 105.373 150.722 105.836 150.698 106.312V146.816C150.68 146.974 150.695 147.134 150.741 147.285C150.787 147.437 150.865 147.577 150.968 147.698C151.071 147.818 151.198 147.916 151.34 147.985C151.483 148.055 151.638 148.094 151.797 148.1C152.059 148.094 152.315 148.018 152.538 147.881L177.939 133.23C178.341 132.972 178.675 132.622 178.914 132.209C179.153 131.796 179.289 131.332 179.312 130.855V90.3504C179.33 90.1929 179.316 90.0334 179.269 89.8817C179.223 89.7301 179.146 89.5897 179.043 89.4692C178.94 89.3487 178.813 89.2508 178.67 89.1815C178.528 89.1123 178.372 89.0732 178.214 89.0667V89.0735Z" fill="#EA3E3E"/>
<path d="M173.648 93.5153V83.6226L183.26 89.1628L174.692 94.1057C174.095 94.4352 173.648 94.1675 173.648 93.5153Z" fill="#E0E0E0"/>
<path d="M156.362 119.678L173.662 109.628C174.041 109.39 174.359 109.067 174.591 108.684C174.822 108.302 174.96 107.87 174.994 107.424C174.994 106.628 174.397 106.326 173.662 106.737L156.362 116.816C155.982 117.053 155.664 117.377 155.434 117.762C155.204 118.146 155.068 118.579 155.037 119.026C155.037 119.802 155.628 120.104 156.362 119.678ZM173.662 113.088L156.362 123.173C155.982 123.41 155.664 123.734 155.434 124.119C155.204 124.503 155.068 124.936 155.037 125.383C155.037 126.173 155.628 126.475 156.362 126.07L173.662 115.985C174.042 115.747 174.361 115.423 174.592 115.039C174.824 114.655 174.961 114.221 174.994 113.774C174.994 112.964 174.397 112.669 173.662 113.06V113.088ZM173.662 119.466L156.362 129.537C155.982 129.772 155.663 130.095 155.433 130.478C155.202 130.861 155.066 131.294 155.037 131.74C155.037 132.537 155.628 132.839 156.362 132.427L173.662 122.342C174.042 122.106 174.361 121.783 174.593 121.4C174.824 121.017 174.962 120.585 174.994 120.138C174.994 119.342 174.397 119.04 173.662 119.466Z" fill="#EA3E3E"/>
<path opacity="0.3" d="M156.362 119.678L173.662 109.628C174.041 109.39 174.359 109.067 174.591 108.684C174.822 108.302 174.96 107.87 174.994 107.424C174.994 106.628 174.397 106.326 173.662 106.737L156.362 116.816C155.982 117.053 155.664 117.377 155.434 117.762C155.204 118.146 155.068 118.579 155.037 119.026C155.037 119.802 155.628 120.104 156.362 119.678ZM173.662 113.088L156.362 123.173C155.982 123.41 155.664 123.734 155.434 124.119C155.204 124.503 155.068 124.936 155.037 125.383C155.037 126.173 155.628 126.475 156.362 126.07L173.662 115.985C174.042 115.747 174.361 115.423 174.592 115.039C174.824 114.655 174.961 114.221 174.994 113.774C174.994 112.964 174.397 112.669 173.662 113.06V113.088ZM173.662 119.466L156.362 129.537C155.982 129.772 155.663 130.095 155.433 130.478C155.202 130.861 155.066 131.294 155.037 131.74C155.037 132.537 155.628 132.839 156.362 132.427L173.662 122.342C174.042 122.106 174.361 121.783 174.593 121.4C174.824 121.017 174.962 120.585 174.994 120.138C174.994 119.342 174.397 119.04 173.662 119.466Z" fill="white"/>
<path d="M258.207 246.464C258.262 249.444 258.495 253.776 258.207 255.011C257.918 256.247 252.955 257.455 249.069 257.634C245.184 257.812 240.508 257.229 240.227 259.975C239.945 262.721 242.383 264.554 244.168 265.378C247.195 266.785 250.573 266.476 253.545 266.064C256.518 265.652 258.104 265.941 261.241 266.71C264.379 267.478 266.15 267.005 267.489 266.332C269.479 265.337 268.951 261.938 268.251 259.728C267.55 257.517 267.626 255.492 267.887 252.423C268.148 249.354 269.026 244.871 269.026 244.871L258.207 246.464Z" fill="#FFBDA7"/>
<path d="M268.251 259.673C268.251 259.673 268.251 260.613 266.191 261.046C264.131 261.478 260.781 261.362 258.413 261.52C254.864 261.746 252.172 262.151 248.115 261.52C244.545 260.957 244.682 258.128 247.895 257.675C244.298 257.737 240.474 257.49 240.22 259.947C239.939 262.693 242.376 264.526 244.161 265.35C247.188 266.758 250.566 266.449 253.539 266.037C256.511 265.625 258.097 265.913 261.234 266.682C264.372 267.451 266.143 266.977 267.482 266.305C269.479 265.282 268.951 261.883 268.251 259.673Z" fill="#455A64"/>
<path d="M295.1 239.07C296.769 241.487 299.515 246.059 299.906 247.192C300.297 248.325 300.634 252.588 299.906 253.844C298.862 254.606 297.228 255.046 295.835 255.732C293.817 256.728 293.384 258.382 294.702 259.645C296.535 261.41 299.508 261.616 301.293 261.513C303.901 261.114 304.08 258.197 304.451 255.609C304.821 253.02 304.403 247.947 306.366 244.823C308.329 241.7 311.796 241.391 312.249 242.448C312.037 240.876 311.165 240.835 309.291 239.771C307.416 238.707 305.776 238.741 304.739 236.276C303.503 233.359 302.384 229.878 302.384 229.878L295.1 239.07Z" fill="#FFBDA7"/>
<path d="M298.766 261.561C300.634 261.87 301.952 261.87 305.268 260.243C308.137 258.835 308.865 258.238 309.304 257.462C309.991 256.227 309.249 253.178 309.847 250.556C310.291 248.708 310.926 246.911 311.742 245.194C312.394 243.601 312.346 242.915 312.243 242.448C312.016 241.453 309.991 241.329 308.062 242.448C306.133 243.567 304.883 245.702 304.245 250.789C303.606 255.876 304.588 261.437 298.766 261.561Z" fill="#263238"/>
<path d="M312.242 242.448C312.023 240.876 311.48 240.643 309.606 239.585C308.92 239.187 308.233 238.899 307.581 238.583C305.762 238.24 302.899 239.668 302.775 243.485C302.652 247.302 303.283 252.142 302.137 253.934C301.155 255.464 299.549 255.362 299.919 253.844C297.338 254.792 296.453 254.805 294.997 255.602C293.322 256.522 292.759 258.918 294.311 259.879C296.359 261.273 298.852 261.856 301.306 261.513C303.915 261.115 304.093 258.197 304.464 255.609C304.835 253.02 304.416 247.947 306.38 244.823C308.343 241.7 311.789 241.439 312.242 242.448Z" fill="#455A64"/>
<path d="M295.608 240.588C295.608 240.588 286.141 226.686 281.088 217.679C277.347 211.019 277.01 209.729 276.091 205.369C274.12 196.012 273.66 193.815 273.66 193.815L270.722 212.722C271.196 214.781 272.143 218.839 272.177 221.228C272.152 225.895 271.773 230.554 271.045 235.164C270.36 240.36 269.4 245.516 268.168 250.611C267.434 251.119 265.298 251.222 263.445 251.16C261.639 251.05 259.854 250.716 258.131 250.165C258.131 250.165 256.587 227.887 256.23 221.756C255.797 214.404 255.646 211.514 255.413 207.477C255.049 201.044 254.177 191.735 254.424 179.913C254.918 156.407 260.156 145.677 260.156 145.677L286.683 141.99C288.887 149.913 293.466 150.832 293.947 161.645C294.057 164.096 292.759 168.97 292.711 172.774C292.574 185.131 291.468 204.532 291.468 204.532C294.379 207.216 296.514 209.646 298.526 215.873C299.748 219.656 302.46 229.24 303.606 233.125C300.249 233.125 295.553 239.07 295.608 240.588Z" fill="#455A64"/>
<path d="M268.765 159.228L269.452 159.119C270.07 163.382 271.086 168.215 271.642 168.593C272.617 169.279 276.228 169.801 277.038 169.595C277.848 169.389 278.569 168.73 280.011 166.773C281.02 165.4 280.91 164.542 280.697 162.654C280.608 161.968 280.505 161.158 280.443 160.155L281.13 160.107C281.191 161.082 281.287 161.872 281.377 162.565C281.617 164.453 281.761 165.586 280.573 167.199C279.015 169.313 278.232 170.041 277.203 170.288C277.054 170.324 276.902 170.343 276.75 170.343C275.322 170.412 272.219 169.842 271.257 169.19C270.207 168.462 269.081 161.384 268.765 159.228Z" fill="#37474F"/>
<path d="M257.905 158.604L258.591 158.803C256.58 166.018 257.019 172.629 260.616 174.641C261.303 169.767 262.195 164.728 263.465 159.338L264.152 159.503C260.033 176.865 259.566 190.541 260.095 206.969C260.493 219.491 261.289 241.006 261.66 250.995L260.939 250.872C260.568 240.828 259.779 219.45 259.381 206.996C259.024 195.868 259.14 186.003 260.513 175.417C256.394 173.309 255.749 166.341 257.905 158.604Z" fill="#37474F"/>
<path d="M293.631 165.078C293.19 165.501 292.657 165.816 292.073 165.998C290.954 166.046 289.1 164.453 288.572 163.252C288.323 162.548 288.173 161.813 288.125 161.068C288.017 159.979 287.82 158.899 287.535 157.842L288.221 157.636C288.518 158.732 288.725 159.85 288.839 160.979C288.879 161.653 289.011 162.318 289.231 162.956C289.677 163.972 291.29 165.304 292.045 165.27C292.723 164.934 293.327 164.468 293.823 163.897C293.755 164.226 293.686 164.714 293.631 165.078Z" fill="#37474F"/>
<path d="M297.819 236.846C297.984 236.654 298.155 236.469 298.327 236.283C293.796 228.381 284.068 211.102 283.223 206.907C282.111 201.539 280.196 183.531 280.114 173.844H279.427C279.503 183.566 281.425 201.655 282.544 207.051C283.416 211.445 293.322 229.006 297.819 236.846Z" fill="#37474F"/>
<path d="M283.937 156.407C285.736 159.27 286.828 164.295 284.507 169.801L283.855 169.519C286.066 164.268 285.036 159.503 283.333 156.798L283.937 156.407Z" fill="#37474F"/>
<path d="M273.64 193.815L276.523 173.996C276.523 173.996 283.985 172.952 285.015 165.95C285.194 170.069 283.539 173.673 278.905 175.561L275.198 193.856L276.07 205.335L273.64 193.815Z" fill="#37474F"/>
<path d="M288.922 109.971C293.727 111.118 296.37 112.456 298.354 119.019C300.235 125.198 303.387 135.722 304.217 140.171C304.615 142.34 304.801 144.407 301.787 145.663C294.977 148.546 288.407 150.565 288.407 150.565L285.75 142.526L293.027 138.887L291.215 133.024L288.922 109.971Z" fill="#FFBDA7"/>
<path d="M293.027 138.901C293.644 140.294 294.7 141.447 296.034 142.182C294.256 142.395 292.526 140.542 292.073 139.375L293.027 138.901Z" fill="#F0997A"/>
<path d="M289.265 109.916C291.421 110.307 294.373 110.76 296.528 114.035C298.684 117.31 302.185 128.727 302.185 128.727C302.185 128.727 300.476 130.855 296.007 132.049C291.537 133.244 289.656 132.228 289.656 132.228L286.32 121.298L289.265 109.916Z" fill="#EA3E3E"/>
<path opacity="0.2" d="M289.265 109.916C291.421 110.307 294.373 110.76 296.528 114.035C298.684 117.31 302.185 128.727 302.185 128.727C302.185 128.727 300.476 130.855 296.007 132.049C291.537 133.244 289.656 132.228 289.656 132.228L286.32 121.298L289.265 109.916Z" fill="black"/>
<path d="M265.47 85.9361C264.626 84.8102 264.749 83.1214 265.353 81.817C265.958 80.5126 267.125 79.2425 270.358 77.8489C274.203 76.1944 284.693 75.1028 288.716 82.119C289.313 83.1694 278.349 101.726 278.562 105.673C276.159 102.749 268.264 92.5266 268.264 92.5266C266.294 91.5174 265.113 90.6936 264.832 88.7439C264.747 87.7643 264.97 86.7828 265.47 85.9361Z" fill="#263238"/>
<path d="M266.617 91.3801C266.617 91.3801 263.555 95.6709 263.829 96.0553C264.433 96.6073 265.083 97.1058 265.772 97.545L266.617 91.3801Z" fill="#F0997A"/>
<path d="M270.612 83.4371C268.711 84.1786 267.008 85.4967 266.15 89.4853C265.923 90.5288 266.644 92.0323 266.15 93.4122C264.09 99.3162 265.669 104.472 266.761 105.667C267.495 106.47 271.608 107.094 273.818 106.641C276.564 106.078 282.674 103.84 285.791 99.7762C289.45 95.0186 290.7 88.3594 287.205 85.4074C282.317 81.2677 272.644 82.6476 270.612 83.4371Z" fill="#FFBDA7"/>
<path d="M283.793 103.072L284.137 109.072C287.473 111.015 280.58 113.555 273.269 110.445L272.74 105.035L283.793 103.072Z" fill="#FFBDA7"/>
<path d="M272.987 107.486C273.118 108.859 273.255 110.918 271.106 111.522C269.081 112.058 265.813 112.394 262.628 113.582C262.628 113.582 274.106 115.394 280.134 114.399C286.162 113.404 287.205 109.532 287.205 109.532C285.036 109.236 284.13 108.845 284.047 107.472L272.987 107.486Z" fill="#FFBDA7"/>
<path d="M266.987 105.831C267.914 106.435 270.008 106.978 272.919 106.786L272.788 105.282C271.873 105.575 270.933 105.784 269.981 105.907C268.985 106.031 267.976 106.006 266.987 105.831Z" fill="#F0997A"/>
<path d="M267.736 85.4074C267.447 88.0162 269.033 88.9636 270.166 89.5609C269.652 90.4935 269.414 91.553 269.48 92.6159C269.644 93.9889 270.077 95.0873 271.354 95.6228C272.13 95.9455 272.39 95.6228 272.727 95.0049C273.194 94.133 273.798 92.7943 275.706 93.1925C277.896 93.6525 278.246 97.0233 276.798 99.1103C276.517 99.5533 276.133 99.9216 275.679 100.183C275.224 100.445 274.713 100.593 274.189 100.614C273.904 100.586 273.628 100.499 273.379 100.358C273.129 100.217 272.912 100.026 272.741 99.7968C272.741 99.7968 272.679 102.708 276.29 104.699C276.29 104.699 279.908 107.088 283.842 106.216C285.723 104.414 287.506 102.512 289.183 100.518C293.679 94.9157 294.62 84.2815 287.81 81.8513C287.487 81.7414 281.899 80.3272 278.789 80.7734C269.232 82.1671 267.784 84.9543 267.736 85.4074Z" fill="#263238"/>
<path d="M288.743 82.1671C289.814 82.1671 293.061 83.8216 293.047 91.03C293.047 95.9043 291.874 102.419 290.301 105.447C286.127 110.047 274.045 110.939 268.704 108.996C272.136 107.41 272.782 103.113 272.768 99.7831C274.347 102.172 277.237 102.742 280.738 100.985C284.239 99.2271 288.743 82.1671 288.743 82.1671Z" fill="#263238"/>
<path d="M293.604 115.937C292.601 111.069 289.965 110.012 288.798 109.799L285.764 109.271C285.764 109.847 286.175 111.227 280.793 111.9C277.361 112.333 271.354 111.447 271.354 111.447C269.055 111.819 266.781 112.328 264.543 112.971C261.049 113.967 259.209 118.044 256.923 123.434C255.124 127.69 255.797 132.022 259.017 135.194C259.115 137.85 259.051 140.509 258.825 143.157C257.467 148.307 256.657 153.586 256.408 158.906C256.408 158.906 258.468 160.828 274.827 160.464C287.5 160.176 293.363 154.512 293.363 154.512C292.999 152.624 291.674 148.567 289.279 142.265C289.567 136.1 295.766 126.475 293.604 115.937Z" fill="#EA3E3E"/>
<path d="M236.602 128.72C236.602 128.72 218.588 125.136 217.558 124.395C216.686 123.763 216.405 122.726 215.965 121.8C215.446 120.746 214.776 119.775 213.975 118.916C213.467 118.34 212.849 117.845 212.368 117.248C211.888 116.651 211.743 115.999 211.311 115.436C210.878 114.873 210.302 115.278 210.027 115.82C209.728 116.614 209.75 117.493 210.089 118.271C210.219 118.614 210.336 118.958 210.473 119.308C210.632 119.614 210.759 119.936 210.851 120.269C210.896 120.44 210.881 120.622 210.81 120.784C210.618 121.106 210.007 120.893 209.739 120.784C207.921 120.051 206.272 118.955 204.892 117.564C204.302 116.967 203.835 116.294 203.203 115.738C202.624 115.212 201.969 114.777 201.26 114.447C200.787 114.21 200.255 114.115 199.729 114.172C198.954 114.461 199.819 115.703 200.025 116.122C200.279 116.581 200.403 117.101 200.382 117.626C200.353 117.934 200.385 118.245 200.477 118.541C200.569 118.836 200.719 119.111 200.917 119.349C201.369 119.854 201.706 120.451 201.906 121.099C201.919 121.328 201.919 121.557 201.906 121.786C201.974 122.497 202.262 123.169 202.729 123.708C203.184 124.201 203.443 124.843 203.457 125.514C203.615 127.038 205.208 128.157 206.395 128.885C207.773 129.702 209.244 130.352 210.775 130.821C211.599 131.088 212.396 131.425 213.219 131.672C214.043 131.919 214.716 132.036 215.437 132.31C217.146 132.962 230.41 138.015 235.696 139.478C238.305 140.198 239.005 140.851 242.678 138.935C249.289 135.503 255.763 133.12 259.566 130.793C264.777 127.601 266.987 125.816 267.701 122.418C269.342 114.536 264.152 113.081 264.152 113.081C262.25 113.568 261.269 114.008 255.481 117.358C249.303 120.942 236.602 128.72 236.602 128.72Z" fill="#FFBDA7"/>
<path d="M264.152 113.095C260.96 113.458 259.299 114.337 255.756 116.568C252.214 118.8 246.179 122.706 246.179 122.706C246.584 126.251 248.054 129.59 250.394 132.283C253.237 135.53 255.543 135.262 255.543 135.262C255.543 135.262 265.065 128.26 266.988 125.562C268.91 122.864 270.338 114.777 264.152 113.095Z" fill="#EA3E3E"/>
<path opacity="0.2" d="M264.152 113.095C260.96 113.458 259.299 114.337 255.756 116.568C252.214 118.8 246.179 122.706 246.179 122.706C246.584 126.251 248.054 129.59 250.394 132.283C253.237 135.53 255.543 135.262 255.543 135.262C255.543 135.262 265.065 128.26 266.988 125.562C268.91 122.864 270.338 114.777 264.152 113.095Z" fill="black"/>
<path d="M280.134 64.6197L278.336 61.2489L279.784 57.0818V54.5348L275.363 57.0818V59.6356L277.265 62.924C277.292 62.9762 277.339 63.0156 277.395 63.0339L280.134 64.6197Z" fill="#EA3E3E"/>
<path opacity="0.2" d="M280.134 64.6197L278.336 61.2489L279.784 57.0818V54.5348L275.363 57.0818V59.6356L277.265 62.924C277.292 62.9762 277.339 63.0156 277.395 63.0339L280.134 64.6197Z" fill="black"/>
<path d="M290.679 34.2619C290.655 33.8022 290.523 33.3546 290.292 32.956C290.062 32.5574 289.741 32.2192 289.354 31.969L288.276 31.3648C287.865 31.1583 287.411 31.0508 286.951 31.0508C286.491 31.0508 286.037 31.1583 285.626 31.3648L269.095 40.9074C268.709 41.1584 268.388 41.4969 268.158 41.8953C267.928 42.2938 267.795 42.7409 267.77 43.2004V61.3931C267.794 61.8528 267.926 62.3004 268.157 62.699C268.387 63.0976 268.709 63.4359 269.095 63.686L270.207 64.3176C270.617 64.5273 271.071 64.6367 271.532 64.6367C271.993 64.6367 272.447 64.5273 272.857 64.3176L278.171 61.2489L280.066 64.5305C280.094 64.5763 280.134 64.6133 280.182 64.6373C280.23 64.6614 280.284 64.6715 280.338 64.6665C280.391 64.6615 280.443 64.6416 280.485 64.6091C280.528 64.5765 280.561 64.5327 280.58 64.4824L282.564 58.6882L289.375 54.7476C289.761 54.4974 290.083 54.1591 290.313 53.7605C290.543 53.3619 290.676 52.9144 290.7 52.4546L290.679 34.2619Z" fill="#EA3E3E"/>
<path d="M286.457 46.7153V44.6558C286.457 44.2851 286.189 44.134 285.867 44.3194L282.324 46.3789V42.2598C282.324 41.8891 282.063 41.7312 281.741 41.9234L279.949 42.9532C279.779 43.0649 279.637 43.2151 279.536 43.3916C279.434 43.5681 279.376 43.766 279.365 43.9693V48.0884L275.823 50.1479C275.65 50.2576 275.507 50.4072 275.404 50.584C275.301 50.7608 275.242 50.9597 275.232 51.1639V53.2235C275.232 53.5942 275.493 53.7453 275.823 53.5599L279.365 51.5003V55.6194C279.365 55.997 279.626 56.1481 279.949 55.9558L281.741 54.9261C281.911 54.8143 282.052 54.6642 282.154 54.4877C282.255 54.3112 282.313 54.1133 282.324 53.91V49.7909L285.867 47.7314C286.038 47.6204 286.181 47.4706 286.283 47.294C286.386 47.1175 286.445 46.9192 286.457 46.7153Z" fill="#FAFAFA"/>
<path opacity="0.2" d="M267.77 61.3931C267.794 61.8528 267.926 62.3004 268.157 62.699C268.387 63.0976 268.709 63.4358 269.095 63.686L270.207 64.3176C270.58 64.507 270.989 64.6147 271.407 64.6337C271.825 64.6526 272.242 64.5823 272.631 64.4275C272.006 64.6609 271.532 64.3108 271.532 63.5556V45.3629C271.546 44.9022 271.678 44.4529 271.917 44.0585L268.148 41.896C267.912 42.2917 267.78 42.7402 267.763 43.2004L267.77 61.3931Z" fill="black"/>
<path opacity="0.3" d="M290.638 33.8843C290.48 33.3214 289.951 33.1429 289.354 33.493L272.816 43.0356C272.425 43.2767 272.105 43.618 271.889 44.0242L268.148 41.9029C268.366 41.4964 268.688 41.1552 269.081 40.9143L285.626 31.3648C286.038 31.1583 286.491 31.0508 286.951 31.0508C287.412 31.0508 287.865 31.1583 288.276 31.3648L289.354 31.9896C289.685 32.2026 289.969 32.4802 290.19 32.8058C290.41 33.1314 290.563 33.4983 290.638 33.8843Z" fill="white"/>
</svg>
