<svg width="24" height="18" viewBox="0 0 24 18" fill="none" xmlns="http://www.w3.org/2000/svg">
<path fill-rule="evenodd" clip-rule="evenodd" d="M6.85706 16.2845C6.85706 16.0572 6.94735 15.8392 7.10807 15.6785C7.26879 15.5178 7.48677 15.4275 7.71406 15.4275H23.14C23.3673 15.4275 23.5853 15.5178 23.746 15.6785C23.9067 15.8392 23.997 16.0572 23.997 16.2845C23.997 16.5118 23.9067 16.7297 23.746 16.8905C23.5853 17.0512 23.3673 17.1415 23.14 17.1415H7.71406C7.48677 17.1415 7.26879 17.0512 7.10807 16.8905C6.94735 16.7297 6.85706 16.5118 6.85706 16.2845ZM6.85706 9.4285C6.85706 9.20121 6.94735 8.98323 7.10807 8.82251C7.26879 8.66179 7.48677 8.5715 7.71406 8.5715H23.14C23.3673 8.5715 23.5853 8.66179 23.746 8.82251C23.9067 8.98323 23.997 9.20121 23.997 9.4285C23.997 9.65579 23.9067 9.87377 23.746 10.0345C23.5853 10.1952 23.3673 10.2855 23.14 10.2855H7.71406C7.48677 10.2855 7.26879 10.1952 7.10807 10.0345C6.94735 9.87377 6.85706 9.65579 6.85706 9.4285ZM6.85706 2.57252C6.85706 2.34523 6.94735 2.12725 7.10807 1.96653C7.26879 1.80582 7.48677 1.71553 7.71406 1.71553H23.14C23.3673 1.71553 23.5853 1.80582 23.746 1.96653C23.9067 2.12725 23.997 2.34523 23.997 2.57252C23.997 2.79981 23.9067 3.01779 23.746 3.17851C23.5853 3.33923 23.3673 3.42952 23.14 3.42952H7.71406C7.48677 3.42952 7.26879 3.33923 7.10807 3.17851C6.94735 3.01779 6.85706 2.79981 6.85706 2.57252ZM4.89282 0.251775C4.97263 0.331383 5.03595 0.425953 5.07915 0.53007C5.12236 0.634187 5.1446 0.745804 5.1446 0.858529C5.1446 0.971254 5.12236 1.08287 5.07915 1.18699C5.03595 1.2911 4.97263 1.38568 4.89282 1.46528L2.32183 4.03627C2.24222 4.11608 2.14765 4.1794 2.04354 4.22261C1.93942 4.26581 1.8278 4.28805 1.71508 4.28805C1.60235 4.28805 1.49073 4.26581 1.38662 4.22261C1.2825 4.1794 1.18793 4.11608 1.10832 4.03627L0.251326 3.17928C0.171646 3.0996 0.10844 3.005 0.0653174 2.9009C0.0221948 2.79679 1.18733e-09 2.68521 0 2.57252C-1.18733e-09 2.45984 0.0221948 2.34826 0.0653174 2.24415C0.10844 2.14004 0.171646 2.04545 0.251326 1.96577C0.331006 1.88609 0.4256 1.82288 0.529707 1.77976C0.633814 1.73664 0.745395 1.71444 0.85808 1.71444C0.970764 1.71444 1.08235 1.73664 1.18645 1.77976C1.29056 1.82288 1.38515 1.88609 1.46483 1.96577L1.71508 2.21773L3.67931 0.251775C3.75892 0.171966 3.85349 0.108646 3.95761 0.0654425C4.06173 0.0222388 4.17334 0 4.28607 0C4.39879 0 4.51041 0.0222388 4.61453 0.0654425C4.71864 0.108646 4.81321 0.171966 4.89282 0.251775ZM4.89282 7.10775C4.97263 7.18736 5.03595 7.28193 5.07915 7.38605C5.12236 7.49016 5.1446 7.60178 5.1446 7.7145C5.1446 7.82723 5.12236 7.93885 5.07915 8.04296C5.03595 8.14708 4.97263 8.24165 4.89282 8.32126L2.32183 10.8923C2.24222 10.9721 2.14765 11.0354 2.04354 11.0786C1.93942 11.1218 1.8278 11.144 1.71508 11.144C1.60235 11.144 1.49073 11.1218 1.38662 11.0786C1.2825 11.0354 1.18793 10.9721 1.10832 10.8923L0.251326 10.0353C0.0904047 9.87433 0 9.65608 0 9.4285C0 9.20092 0.0904047 8.98267 0.251326 8.82174C0.412247 8.66082 0.630503 8.57042 0.85808 8.57042C1.08566 8.57042 1.30391 8.66082 1.46483 8.82174L1.71508 9.0737L3.67931 7.10775C3.75892 7.02794 3.85349 6.96462 3.95761 6.92142C4.06173 6.87821 4.17334 6.85598 4.28607 6.85598C4.39879 6.85598 4.51041 6.87821 4.61453 6.92142C4.71864 6.96462 4.81321 7.02794 4.89282 7.10775ZM4.89282 13.9637C4.97263 14.0433 5.03595 14.1379 5.07915 14.242C5.12236 14.3461 5.1446 14.4578 5.1446 14.5705C5.1446 14.6832 5.12236 14.7948 5.07915 14.8989C5.03595 15.0031 4.97263 15.0976 4.89282 15.1772L2.32183 17.7482C2.24222 17.828 2.14765 17.8914 2.04354 17.9346C1.93942 17.9778 1.8278 18 1.71508 18C1.60235 18 1.49073 17.9778 1.38662 17.9346C1.2825 17.8914 1.18793 17.828 1.10832 17.7482L0.251326 16.8912C0.0904047 16.7303 0 16.5121 0 16.2845C0 16.0569 0.0904047 15.8386 0.251326 15.6777C0.412247 15.5168 0.630503 15.4264 0.85808 15.4264C1.08566 15.4264 1.30391 15.5168 1.46483 15.6777L1.71508 15.9297L3.67931 13.9637C3.75892 13.8839 3.85349 13.8206 3.95761 13.7774C4.06173 13.7342 4.17334 13.712 4.28607 13.712C4.39879 13.712 4.51041 13.7342 4.61453 13.7774C4.71864 13.8206 4.81321 13.8839 4.89282 13.9637Z" fill="#424242"/>
</svg>
